{
.appVersion = "1271";
classes = (
{
automatic = 1;

glyphs = (
{
color = 4;
glyphname = A;
lastChange = "2019-11-14 11:57:06 +0000";
layers = (
{
anchors = (
{
name = bottom;
position = "{358, 0}";
},
{
name = ogonek;
position = "{687, 0}";
},
{
name = top;
position = "{358, 705}";
}
);
background = {
anchors = (
{
name = bottom;
position = "{361, 0}";
},
{
name = ogonek;
position = "{686, 10}";
},
{
name = top;
position = "{361, 712}";
}
);
paths = (
{
closed = 1;
nodes = (
"373 687 LINE",
"347 687 LINE",
"642 0 LINE",
"687 0 LINE",
"381 712 LINE",
"340 712 LINE",
"34 0 LINE",
"79 0 LINE"
);
},
{
closed = 1;
nodes = (
"567 197 LINE",
"554 237 LINE",
"170 237 LINE",
"159 197 LINE"
);
}
);
};
layerId = "2567DF27-EA2D-46C8-A1A0-FA57AF1B0F16";
paths = (
{
closed = 1;
nodes = (
"79 0 LINE",
"166 204 LINE",
"138 195 LINE",
"575 195 LINE",
"552 204 LINE",
"641 0 LINE",
"687 0 LINE",
"378 705 LINE",
"337 705 LINE",
"34 0 LINE"
);
},
{
closed = 1;
nodes = (
"358 649 LINE",
"542 228 LINE",
"558 234 LINE",
"155 234 LINE",
"177 228 LINE",
"356 649 LINE"
);
}
);
width = 721;
},
{
anchors = (
{
name = bottom;
position = "{390, 0}";
},
{
name = ogonek;
position = "{731, 0}";
},
{
name = top;
position = "{390, 705}";
}
);
background = {
anchors = (
{
name = bottom;
position = "{390, 0}";
},
{
name = ogonek;
position = "{725, 10}";
},
{
name = top;
position = "{388, 712}";
}
);
paths = (
{
closed = 1;
nodes = (
"413 537 LINE",
"370 537 LINE",
"600 0 LINE",
"813 0 LINE",
"473 712 LINE",
"304 712 LINE",
"-34 0 LINE",
"182 0 LINE"
);
},
{
closed = 1;
nodes = (
"636 138 LINE",
"553 298 LINE",
"210 298 LINE",
"126 138 LINE"
);
}
);
};
layerId = "FFBF88B9-CE65-4AF8-A771-12A489880E49";
paths = (
{
closed = 1;
nodes = (
"181 0 LINE",
"265 191 LINE",
"185 131 LINE",
"594 131 LINE",
"513 191 LINE",
"597 0 LINE",
"813 0 LINE",
"476 705 LINE",
"301 705 LINE",
"-34 0 LINE"
);
},
{
closed = 1;
nodes = (
"393 485 LINE",
"497 238 LINE",
"524 294 LINE",
"255 294 LINE",
"285 238 LINE",
"388 485 LINE"
);
}
);
width = 779;
},
{
anchors = (
{
name = bottom;
position = "{330, 0}";
},
{
name = ogonek;
position = "{649, 0}";
},
{
name = top;
position = "{427, 705}";
}
);
background = {
anchors = (
{
name = bottom;
position = "{341, 0}";
},
{
name = ogonek;
position = "{669, 10}";
},
{
name = top;
position = "{453, 712}";
}
);
paths = (
{
closed = 1;
nodes = (
"462 687 LINE",
"436 687 LINE",
"623 0 LINE",
"668 0 LINE",
"473 712 LINE",
"433 712 LINE",
"15 0 LINE",
"61 0 LINE"
);
},
{
closed = 1;
nodes = (
"579 197 LINE",
"573 237 LINE",
"189 237 LINE",
"172 197 LINE"
);
}
);
};
layerId = "5EBC8607-93CF-4E15-8CE6-F0DFD39C8AE8";
paths = (
{
closed = 1;
nodes = (
"43 0 LINE",
"162 204 LINE",
"134 195 LINE",
"571 195 LINE",
"546 204 LINE",
"604 0 LINE",
"647 0 LINE",
"446 705 LINE",
"405 705 LINE",
"-6 0 LINE"
);
},
{
closed = 1;
nodes = (
"420 649 LINE",
"539 228 LINE",
"560 234 LINE",
"157 234 LINE",
"176 228 LINE",
"418 649 LINE"
);
}
);
width = 721;
},
{
anchors = (
{
name = bottom;
position = "{366, 0}";
},
{
name = ogonek;
position = "{681, 0}";
},
{
name = top;
position = "{454, 705}";
}
);
background = {
anchors = (
{
name = bottom;
position = "{369, 0}";
},
{
name = ogonek;
position = "{706, 10}";
},
{
name = top;
position = "{478, 712}";
}
);
paths = (
{
closed = 1;
nodes = (
"478 537 LINE",
"435 537 LINE",
"584 0 LINE",
"790 0 LINE",
"565 712 LINE",
"394 712 LINE",
"-55 0 LINE",
"164 0 LINE"
);
},
{
closed = 1;
nodes = (
"637 138 LINE",
"579 298 LINE",
"236 298 LINE",
"126 138 LINE"
);
}
);
};
layerId = "7E8CE273-6C2A-436A-BEF2-D90EC4D0BD66";
paths = (
{
closed = 1;
nodes = (
"148 0 LINE",
"250 170 LINE",
"180 131 LINE",
"579 131 LINE",
"523 175 LINE",
"568 0 LINE",
"773 0 LINE",
"551 705 LINE",
"381 705 LINE",
"-74 0 LINE"
);
},
{
closed = 1;
nodes = (
"442 483 LINE",
"503 251 LINE",
"537 295 LINE",
"276 295 LINE",
"301 256 LINE",
"440 483 LINE"
);
}
);
width = 779;
}
);
leftKerningGroup = A;
rightKerningGroup = A;
unicode = 0041;
userData = {
anchors = (
);
b = {
};
com.typemytype.robofont.layerData = {
b = {
anchors = (
);
components = (
);
contours = (
{
points = (
{
segmentType = line;
smooth = 0;
x = 403;
y = 502;
},
{
segmentType = line;
smooth = 0;
x = 703;
y = 1275;
},
{
segmentType = line;
smooth = 0;
x = 705;
y = 1275;
},
{
segmentType = line;
smooth = 0;
x = 1004;
y = 502;
}
);
},
{
points = (
{
segmentType = curve;
smooth = 1;
x = 150;
y = 0;
},
{
smooth = 0;
x = 181;
y = 0;
},
{
smooth = 0;
x = 214;
y = 15;
},
{
segmentType = curve;
smooth = 1;
x = 229;
y = 53;
},
{
segmentType = line;
smooth = 0;
x = 356;
y = 373;
},
{
segmentType = line;
smooth = 0;
x = 1051;
y = 373;
},
{
segmentType = line;
smooth = 1;
x = 1179;
y = 53;
},
{
smooth = 0;
x = 1193;
y = 17;
},
{
smooth = 0;
x = 1228;
y = 0;
},
{
segmentType = curve;
smooth = 1;
x = 1260;
y = 0;
},
{
smooth = 0;
x = 1306;
y = 0;
},
{
smooth = 0;
x = 1354;
y = 31;
},
{
segmentType = curve;
smooth = 1;
x = 1354;
y = 80;
},
{
smooth = 0;
x = 1354;
y = 87;
},
{
smooth = 0;
x = 1352;
y = 97;
},
{
segmentType = curve;
smooth = 0;
x = 1349;
y = 108;
},
{
segmentType = line;
smooth = 1;
x = 871;
y = 1288;
},
{
smooth = 0;
x = 817;
y = 1420;
},
{
smooth = 0;
x = 777;
y = 1430;
},
{
segmentType = curve;
smooth = 1;
x = 710;
y = 1430;
},
{
smooth = 0;
x = 644;
y = 1430;
},
{
smooth = 0;
x = 596;
y = 1413;
},
{
segmentType = curve;
smooth = 1;
x = 542;
y = 1280;
},
{
segmentType = line;
smooth = 1;
x = 66;
y = 108;
},
{
smooth = 0;
x = 62;
y = 97;
},
{
smooth = 0;
x = 60;
y = 87;
},
{
segmentType = curve;
smooth = 1;
x = 60;
y = 78;
},
{
smooth = 0;
x = 60;
y = 32;
},
{
smooth = 0;
x = 106;
y = 0;
}
);
}
);
lib = {
};
name = A;
unicodes = (
);
width = 1414;
};
};
components = (
);
contours = {
};
lib = {
};
name = A;
points = {
};
segmentType = line;
unicodes = (
);
width = 1445;
x = 718;
y = 1232;
};
},
{
color = 4;
glyphname = Aogonek;
lastChange = "2019-11-14 11:57:36 +0000";
layers = (
{
background = {
paths = (
{
closed = 1;
nodes = (
"567 197 LINE",
"554 237 LINE",
"170 237 LINE",
"159 197 LINE"
);
},
{
closed = 1;
nodes = (
"699 -146 OFFCURVE",
"676 -153 OFFCURVE",
"660 -153 CURVE SMOOTH",
"619 -153 OFFCURVE",
"590 -129 OFFCURVE",
"590 -85 CURVE SMOOTH",
"590 -39 OFFCURVE",
"618 0 OFFCURVE",
"685 0 CURVE SMOOTH",
"687 0 LINE",
"381 712 LINE",
"340 712 LINE",
"34 0 LINE",
"79 0 LINE",
"373 687 LINE",
"347 687 LINE",
"642 0 LINE",
"666 39 LINE",
"587 22 OFFCURVE",
"545 -27 OFFCURVE",
"545 -89 CURVE SMOOTH",
"545 -148 OFFCURVE",
"590 -192 OFFCURVE",
"658 -192 CURVE SMOOTH",
"691 -192 OFFCURVE",
"718 -182 OFFCURVE",
"736 -169 CURVE",
"720 -134 LINE"
);
}
);
};
components = (
{
name = A;
},
{
name = ogonekcomb;
transform = "{1, 0, 0, 1, 437, 0}";
}
);
layerId = "2567DF27-EA2D-46C8-A1A0-FA57AF1B0F16";
width = 721;
},
{
background = {
paths = (
{
closed = 1;
nodes = (
"636 138 LINE",
"553 298 LINE",
"210 298 LINE",
"126 138 LINE"
);
},
{
closed = 1;
nodes = (
"758 -100 OFFCURVE",
"742 -103 OFFCURVE",
"725 -103 CURVE SMOOTH",
"688 -103 OFFCURVE",
"669 -87 OFFCURVE",
"669 -56 CURVE SMOOTH",
"669 -22 OFFCURVE",
"700 0 OFFCURVE",
"735 0 CURVE SMOOTH",
"813 0 LINE",
"473 712 LINE",
"304 712 LINE",
"-34 0 LINE",
"182 0 LINE",
"413 537 LINE",
"370 537 LINE",
"600 0 LINE",
"620 31 LINE",
"573 6 OFFCURVE",
"545 -38 OFFCURVE",
"545 -88 CURVE SMOOTH",
"545 -159 OFFCURVE",
"607 -202 OFFCURVE",
"682 -202 CURVE SMOOTH",
"720 -202 OFFCURVE",
"758 -196 OFFCURVE",
"795 -183 CURVE",
"778 -94 LINE"
);
}
);
};
components = (
{
name = A;
},
{
name = ogonekcomb;
transform = "{1, 0, 0, 1, 481, 0}";
}
);
layerId = "FFBF88B9-CE65-4AF8-A771-12A489880E49";
width = 779;
},
{
background = {
paths = (
{
closed = 1;
nodes = (
"579 197 LINE",
"573 237 LINE",
"189 237 LINE",
"172 197 LINE"
);
},
{
closed = 1;
nodes = (
"658 -146 OFFCURVE",
"631 -153 OFFCURVE",
"615 -153 CURVE SMOOTH",
"579 -153 OFFCURVE",
"558 -134 OFFCURVE",
"558 -97 CURVE SMOOTH",
"558 -50 OFFCURVE",
"589 0 OFFCURVE",
"666 0 CURVE SMOOTH",
"668 0 LINE",
"473 712 LINE",
"433 712 LINE",
"15 0 LINE",
"61 0 LINE",
"462 687 LINE",
"436 687 LINE",
"623 0 LINE",
"653 39 LINE",
"565 25 OFFCURVE",
"511 -30 OFFCURVE",
"511 -103 CURVE SMOOTH",
"511 -158 OFFCURVE",
"549 -192 OFFCURVE",
"610 -192 CURVE SMOOTH",
"641 -192 OFFCURVE",
"673 -181 OFFCURVE",
"691 -169 CURVE",
"681 -133 LINE"
);
}
);
};
components = (
{
name = A;
},
{
name = ogonekcomb;
transform = "{1, 0, 0, 1, 438, 0}";
}
);
layerId = "5EBC8607-93CF-4E15-8CE6-F0DFD39C8AE8";
width = 721;
},
{
background = {
paths = (
{
closed = 1;
nodes = (
"639 138 LINE",
"581 298 LINE",
"238 298 LINE",
"128 138 LINE"
);
},
{
closed = 1;
nodes = (
"720 -100 OFFCURVE",
"705 -103 OFFCURVE",
"688 -103 CURVE SMOOTH",
"660 -103 OFFCURVE",
"641 -88 OFFCURVE",
"641 -63 CURVE SMOOTH",
"641 -23 OFFCURVE",
"684 0 OFFCURVE",
"716 0 CURVE SMOOTH",
"792 0 LINE",
"567 712 LINE",
"396 712 LINE",
"-53 0 LINE",
"166 0 LINE",
"480 537 LINE",
"437 537 LINE",
"586 0 LINE",
"606 31 LINE",
"567 9 OFFCURVE",
"511 -29 OFFCURVE",
"511 -100 CURVE SMOOTH",
"511 -159 OFFCURVE",
"561 -202 OFFCURVE",
"641 -202 CURVE SMOOTH",
"677 -202 OFFCURVE",
"710 -196 OFFCURVE",
"746 -183 CURVE",
"743 -94 LINE"
);
}
);
};
components = (
{
name = A;
},
{
name = ogonekcomb;
transform = "{1, 0, 0, 1, 470, 0}";
}
);
layerId = "7E8CE273-6C2A-436A-BEF2-D90EC4D0BD66";
width = 779;
},
{
associatedMasterId = "2567DF27-EA2D-46C8-A1A0-FA57AF1B0F16";
components = (
{
name = A;
},
{
name = ogonekcomb;
transform = "{1, 0, 0, 1, 437, 0}";
}
);
layerId = "B8FA56BD-7EDE-4576-AB47-8A7B7BD1DCF7";
width = 721;
}
);
leftKerningGroup = A;
rightKerningGroup = A;
unicode = 0104;
},
{
color = 4;
glyphname = AE;
lastChange = "2019-11-14 11:52:21 +0000";
layers = (
{
anchors = (
{
name = bottom;
position = "{515, 0}";
},
{
name = top;
position = "{514, 705}";
}
);
background = {
anchors = (
{
name = bottom;
position = "{501, 0}";
},
{
name = top;
position = "{500, 712}";
}
);
paths = (
{
closed = 1;
nodes = (
"59 0 LINE",
"462 680 LINE",
"437 672 LINE",
"939 672 LINE",
"939 712 LINE",
"438 712 LINE",
"14 0 LINE"
);
},
{
closed = 1;
nodes = (
"573 197 LINE",
"567 237 LINE",
"160 237 LINE",
"148 197 LINE"
);
},
{
closed = 1;
nodes = (
"939 0 LINE",
"939 40 LINE",
"598 40 LINE",
"534 694 LINE",
"497 694 LINE",
"565 0 LINE"
);
},
{
closed = 1;
nodes = (
"919 341 LINE",
"919 381 LINE",
"563 381 LINE",
"563 341 LINE"
);
},
{
closed = 0;
nodes = (
"486 705 LINE",
"62 0 LINE"
);
}
);
};
layerId = "2567DF27-EA2D-46C8-A1A0-FA57AF1B0F16";
paths = (
{
closed = 1;
nodes = (
"62 0 LINE",
"187 207 LINE",
"170 195 LINE",
"568 195 LINE",
"548 207 LINE",
"592 0 LINE",
"939 0 LINE",
"939 39 LINE",
"607 39 LINE",
"630 20 LINE",
"558 348 LINE",
"544 338 LINE",
"918 338 LINE",
"918 377 LINE",
"536 377 LINE",
"554 366 LINE",
"483 690 LINE",
"475 666 LINE",
"939 666 LINE",
"939 705 LINE",
"437 705 LINE",
"14 0 LINE"
);
},
{
closed = 1;
nodes = (
"451 648 LINE",
"543 225 LINE",
"549 234 LINE",
"190 234 LINE",
"197 224 LINE",
"449 648 LINE"
);
}
);
width = 996;
},
{
anchors = (
{
name = bottom;
position = "{523, 0}";
},
{
name = top;
position = "{524, 705}";
}
);
background = {
anchors = (
{
name = bottom;
position = "{514, 0}";
},
{
name = top;
position = "{514, 712}";
}
);
paths = (
{
closed = 1;
nodes = (
"180 0 LINE",
"521 575 LINE",
"487 548 LINE",
"991 548 LINE",
"991 712 LINE",
"406 712 LINE",
"-54 0 LINE"
);
},
{
closed = 1;
nodes = (
"600 138 LINE",
"551 298 LINE",
"218 298 LINE",
"132 138 LINE"
);
},
{
closed = 1;
nodes = (
"991 0 LINE",
"991 164 LINE",
"727 164 LINE",
"703 615 LINE",
"508 615 LINE",
"541 0 LINE"
);
},
{
closed = 1;
nodes = (
"969 280 LINE",
"969 444 LINE",
"577 444 LINE",
"577 280 LINE"
);
}
);
};
layerId = "FFBF88B9-CE65-4AF8-A771-12A489880E49";
paths = (
{
closed = 1;
nodes = (
"173 0 LINE",
"287 186 LINE",
"208 131 LINE",
"598 131 LINE",
"534 194 LINE",
"578 0 LINE",
"990 0 LINE",
"990 164 LINE",
"675 164 LINE",
"745 109 LINE",
"692 335 LINE",
"650 276 LINE",
"967 276 LINE",
"967 440 LINE",
"613 440 LINE",
"682 381 LINE",
"635 584 LINE",
"581 541 LINE",
"990 541 LINE",
"990 705 LINE",
"403 705 LINE",
"-54 0 LINE"
);
},
{
closed = 1;
nodes = (
"466 478 LINE",
"524 235 LINE",
"567 295 LINE",
"309 295 LINE",
"321 243 LINE",
"464 478 LINE"
);
}
);
width = 1017;
},
{
anchors = (
{
name = bottom;
position = "{475, 0}";
},
{
name = top;
position = "{571, 705}";
}
);
background = {
anchors = (
{
name = bottom;
position = "{503, 0}";
},
{
name = top;
position = "{676, 712}";
}
);
paths = (
{
closed = 1;
nodes = (
"44 0 LINE",
"554 680 LINE",
"525 672 LINE",
"1027 672 LINE",
"1033 712 LINE",
"532 712 LINE",
"-5 0 LINE"
);
},
{
closed = 1;
nodes = (
"585 197 LINE",
"586 237 LINE",
"179 237 LINE",
"161 197 LINE"
);
},
{
closed = 1;
nodes = (
"921 0 LINE",
"927 40 LINE",
"585 40 LINE",
"625 694 LINE",
"588 694 LINE",
"545 0 LINE"
);
},
{
closed = 1;
nodes = (
"954 341 LINE",
"960 381 LINE",
"604 381 LINE",
"597 341 LINE"
);
}
);
};
layerId = "5EBC8607-93CF-4E15-8CE6-F0DFD39C8AE8";
paths = (
{
closed = 1;
nodes = (
"24 0 LINE",
"184 207 LINE",
"163 195 LINE",
"571 195 LINE",
"553 207 LINE",
"564 0 LINE",
"901 0 LINE",
"908 39 LINE",
"584 39 LINE",
"603 20 LINE",
"582 348 LINE",
"568 338 LINE",
"934 338 LINE",
"940 377 LINE",
"566 377 LINE",
"581 366 LINE",
"562 690 LINE",
"552 666 LINE",
"1007 666 LINE",
"1013 705 LINE",
"520 705 LINE",
"-26 0 LINE"
);
},
{
closed = 1;
nodes = (
"526 648 LINE",
"551 225 LINE",
"558 234 LINE",
"189 234 LINE",
"197 224 LINE",
"524 648 LINE"
);
}
);
width = 996;
},
{
anchors = (
{
name = bottom;
position = "{469, 0}";
},
{
name = top;
position = "{571, 705}";
}
);
background = {
anchors = (
{
name = bottom;
position = "{503, 0}";
},
{
name = top;
position = "{587, 712}";
}
);
paths = (
{
closed = 1;
nodes = (
"181 0 LINE",
"610 575 LINE",
"571 548 LINE",
"1075 548 LINE",
"1100 712 LINE",
"515 712 LINE",
"-57 0 LINE"
);
},
{
closed = 1;
nodes = (
"620 138 LINE",
"596 298 LINE",
"263 298 LINE",
"152 138 LINE"
);
},
{
closed = 1;
nodes = (
"988 0 LINE",
"1015 164 LINE",
"753 164 LINE",
"799 615 LINE",
"603 615 LINE",
"537 0 LINE"
);
},
{
closed = 1;
nodes = (
"1011 280 LINE",
"1039 444 LINE",
"645 444 LINE",
"619 280 LINE"
);
}
);
};
guideLines = (
{
angle = 93.734;
position = "{498, 347}";
}
);
layerId = "7E8CE273-6C2A-436A-BEF2-D90EC4D0BD66";
paths = (
{
closed = 1;
nodes = (
"138 0 LINE",
"278 186 LINE",
"193 131 LINE",
"571 131 LINE",
"516 194 LINE",
"529 0 LINE",
"941 0 LINE",
"967 164 LINE",
"642 164 LINE",
"706 109 LINE",
"691 335 LINE",
"636 276 LINE",
"961 276 LINE",
"987 440 LINE",
"625 440 LINE",
"689 381 LINE",
"675 584 LINE",
"611 541 LINE",
"1026 541 LINE",
"1052 705 LINE",
"473 705 LINE",
"-94 0 LINE"
);
},
{
closed = 1;
nodes = (
"498 476 LINE",
"514 235 LINE",
"565 295 LINE",
"319 295 LINE",
"320 243 LINE",
"496 476 LINE"
);
}
);
width = 1017;
},
{
anchors = (
{
name = bottom;
position = "{523, 0}";
},
{
name = top;
position = "{524, 705}";
}
);
associatedMasterId = "2567DF27-EA2D-46C8-A1A0-FA57AF1B0F16";
layerId = "B8FA56BD-7EDE-4576-AB47-8A7B7BD1DCF7";
paths = (
{
closed = 1;
nodes = (
"169 0 LINE",
"283 187 LINE",
"206 134 LINE",
"597 134 LINE",
"535 195 LINE",
"579 0 LINE",
"988 0 LINE",
"988 159 LINE",
"672 159 LINE",
"740 105 LINE",
"687 336 LINE",
"646 279 LINE",
"965 279 LINE",
"965 437 LINE",
"610 437 LINE",
"677 380 LINE",
"629 588 LINE",
"577 546 LINE",
"988 546 LINE",
"988 705 LINE",
"404 705 LINE",
"-51 0 LINE"
);
},
{
closed = 1;
nodes = (
"465 485 LINE",
"525 235 LINE",
"566 293 LINE",
"304 293 LINE",
"316 242 LINE",
"463 485 LINE"
);
}
);
width = 1016.15029;
}
);
leftKerningGroup = A;
rightKerningGroup = E;
unicode = 00C6;
userData = {
com.typemytype.robofont.layerData = {
b = {
anchors = (
);
components = (
);
contours = (
);
lib = {
};
name = AE;
unicodes = (
);
width = 1976;
};
};
};
},
{
color = 4;
glyphname = B;
lastChange = "2019-11-14 11:57:35 +0000";
layers = (
{
anchors = (
{
name = bottom;
position = "{341, 0}";
},
{
name = top;
position = "{340, 705}";
}
);
background = {
anchors = (
{
name = bottom;
position = "{340, 0}";
},
{
name = top;
position = "{339, 712}";
}
);
paths = (
{
closed = 1;
nodes = (
"371 0 LINE SMOOTH",
"517.991 0 OFFCURVE",
"601 66 OFFCURVE",
"601 193 CURVE SMOOTH",
"601 288 OFFCURVE",
"546 351 OFFCURVE",
"458 368 CURVE",
"458 360 LINE",
"536 384 OFFCURVE",
"585 441 OFFCURVE",
"585 525 CURVE SMOOTH",
"585 647 OFFCURVE",
"503 712 OFFCURVE",
"360 712 CURVE SMOOTH",
"97 712 LINE",
"97 0 LINE"
);
},
{
closed = 1;
nodes = (
"139 341 LINE",
"370 341 LINE SMOOTH",
"494 341 OFFCURVE",
"556 289 OFFCURVE",
"556 188 CURVE SMOOTH",
"556 87 OFFCURVE",
"496 39 OFFCURVE",
"370 39 CURVE SMOOTH",
"139 39 LINE"
);
},
{
closed = 1;
nodes = (
"139 673 LINE",
"355 673 LINE SMOOTH",
"480 673 OFFCURVE",
"540 625 OFFCURVE",
"540 531 CURVE SMOOTH",
"540 434 OFFCURVE",
"477 382 OFFCURVE",
"355 382 CURVE SMOOTH",
"139 382 LINE"
);
}
);
};
layerId = "2567DF27-EA2D-46C8-A1A0-FA57AF1B0F16";
paths = (
{
closed = 1;
nodes = (
"368 0 LINE SMOOTH",
"518 0 OFFCURVE",
"601 65 OFFCURVE",
"601 191 CURVE SMOOTH",
"601 293 OFFCURVE",
"536 355 OFFCURVE",
"431 365 CURVE",
"431 351 LINE",
"526 370 OFFCURVE",
"585 430 OFFCURVE",
"585 521 CURVE SMOOTH",
"585 639 OFFCURVE",
"502 705 OFFCURVE",
"354 705 CURVE SMOOTH",
"97 705 LINE",
"97 0 LINE"
);
},
{
closed = 1;
nodes = (
"139 337 LINE",
"367 337 LINE SMOOTH",
"482 337 OFFCURVE",
"557 297 OFFCURVE",
"557 188 CURVE SMOOTH",
"557 80 OFFCURVE",
"482 39 OFFCURVE",
"367 39 CURVE SMOOTH",
"139 39 LINE"
);
},
{
closed = 1;
nodes = (
"139 666 LINE",
"352 666 LINE SMOOTH",
"476 666 OFFCURVE",
"541 615 OFFCURVE",
"541 521 CURVE SMOOTH",
"541 427 OFFCURVE",
"476 376 OFFCURVE",
"352 376 CURVE SMOOTH",
"139 376 LINE"
);
}
);
width = 672;
},
{
anchors = (
{
name = bottom;
position = "{361, 0}";
},
{
name = top;
position = "{361, 705}";
}
);
background = {
anchors = (
{
name = bottom;
position = "{357, 0}";
},
{
name = top;
position = "{358, 712}";
}
);
paths = (
{
closed = 1;
nodes = (
"429 0 LINE SMOOTH",
"587 0 OFFCURVE",
"688 79 OFFCURVE",
"688 196 CURVE SMOOTH",
"688 287 OFFCURVE",
"637 351 OFFCURVE",
"543 374 CURVE",
"543 366 LINE",
"623 388 OFFCURVE",
"667 451 OFFCURVE",
"667 528 CURVE SMOOTH",
"667 639 OFFCURVE",
"569 712 OFFCURVE",
"419 712 CURVE SMOOTH",
"58 712 LINE",
"58 0 LINE"
);
},
{
closed = 1;
nodes = (
"268 282 LINE",
"402 282 LINE SMOOTH",
"465 282 OFFCURVE",
"487 266 OFFCURVE",
"487 221 CURVE SMOOTH",
"487 178 OFFCURVE",
"464 162 OFFCURVE",
"402 162 CURVE SMOOTH",
"268 162 LINE"
);
},
{
closed = 1;
nodes = (
"268 550 LINE",
"382 550 LINE SMOOTH",
"440 550 OFFCURVE",
"466 534 OFFCURVE",
"466 494 CURVE SMOOTH",
"466 457 OFFCURVE",
"441 443 OFFCURVE",
"382 443 CURVE SMOOTH",
"268 443 LINE"
);
}
);
};
layerId = "FFBF88B9-CE65-4AF8-A771-12A489880E49";
paths = (
{
closed = 1;
nodes = (
"429 0 LINE SMOOTH",
"588 0 OFFCURVE",
"688 79 OFFCURVE",
"688 202 CURVE SMOOTH",
"688 294 OFFCURVE",
"633 355 OFFCURVE",
"534 375 CURVE",
"534 358 LINE",
"617 379 OFFCURVE",
"667 441 OFFCURVE",
"667 523 CURVE SMOOTH",
"667 633 OFFCURVE",
"577 705 OFFCURVE",
"419 705 CURVE SMOOTH",
"58 705 LINE",
"58 0 LINE"
);
},
{
closed = 1;
nodes = (
"264 280 LINE",
"400 280 LINE SMOOTH",
"458 280 OFFCURVE",
"484 260 OFFCURVE",
"484 218 CURVE SMOOTH",
"484 176 OFFCURVE",
"458 156 OFFCURVE",
"400 156 CURVE SMOOTH",
"264 156 LINE"
);
},
{
closed = 1;
nodes = (
"264 549 LINE",
"378 549 LINE SMOOTH",
"437 549 OFFCURVE",
"461 533 OFFCURVE",
"461 493 CURVE SMOOTH",
"461 453 OFFCURVE",
"437 436 OFFCURVE",
"378 436 CURVE SMOOTH",
"264 436 LINE"
);
}
);
width = 708;
},
{
anchors = (
{
name = bottom;
position = "{308, 0}";
},
{
name = top;
position = "{419, 705}";
}
);
background = {
anchors = (
{
name = bottom;
position = "{322, 0}";
},
{
name = top;
position = "{433, 712}";
}
);
paths = (
{
closed = 1;
nodes = (
"364 0 LINE SMOOTH",
"520 0 OFFCURVE",
"616 86 OFFCURVE",
"616 224 CURVE SMOOTH",
"616 302 OFFCURVE",
"573 352 OFFCURVE",
"487 367 CURVE",
"498 360 LINE",
"596 387 OFFCURVE",
"652 459 OFFCURVE",
"652 557 CURVE SMOOTH",
"652 658 OFFCURVE",
"581 712 OFFCURVE",
"443 712 CURVE SMOOTH",
"190 712 LINE",
"79 0 LINE"
);
},
{
closed = 1;
nodes = (
"227 673 LINE",
"443 673 LINE SMOOTH",
"552 673 OFFCURVE",
"609 633 OFFCURVE",
"609 555 CURVE SMOOTH",
"609 448 OFFCURVE",
"532 382 OFFCURVE",
"408 382 CURVE SMOOTH",
"169 382 LINE",
"162 341 LINE",
"405 341 LINE SMOOTH",
"516 341 OFFCURVE",
"570 298 OFFCURVE",
"570 215 CURVE SMOOTH",
"570 103 OFFCURVE",
"498 39 OFFCURVE",
"369 39 CURVE SMOOTH",
"127 39 LINE"
);
}
);
};
layerId = "5EBC8607-93CF-4E15-8CE6-F0DFD39C8AE8";
paths = (
{
closed = 1;
nodes = (
"349 0 LINE SMOOTH",
"510 0 OFFCURVE",
"596 70 OFFCURVE",
"596 207 CURVE SMOOTH",
"596 291 OFFCURVE",
"539 349 OFFCURVE",
"445 363 CURVE",
"445 349 LINE",
"561 363 OFFCURVE",
"633 433 OFFCURVE",
"633 542 CURVE SMOOTH",
"633 643 OFFCURVE",
"562 705 OFFCURVE",
"419 705 CURVE SMOOTH",
"169 705 LINE",
"57 0 LINE"
);
},
{
closed = 1;
nodes = (
"153 337 LINE",
"382 337 LINE SMOOTH",
"480 337 OFFCURVE",
"552 298 OFFCURVE",
"552 206 CURVE SMOOTH",
"552 90 OFFCURVE",
"474 39 OFFCURVE",
"353 39 CURVE SMOOTH",
"106 39 LINE"
);
},
{
closed = 1;
nodes = (
"205 666 LINE",
"417 666 LINE SMOOTH",
"534 666 OFFCURVE",
"589 622 OFFCURVE",
"589 540 CURVE SMOOTH",
"589 435 OFFCURVE",
"512 376 OFFCURVE",
"390 376 CURVE SMOOTH",
"159 376 LINE"
);
}
);
width = 672;
},
{
anchors = (
{
name = bottom;
position = "{308, 0}";
},
{
name = top;
position = "{419, 705}";
}
);
background = {
anchors = (
{
name = bottom;
position = "{339, 0}";
},
{
name = top;
position = "{452, 712}";
}
);
paths = (
{
closed = 1;
nodes = (
"412 0 LINE SMOOTH",
"588 0 OFFCURVE",
"703 85 OFFCURVE",
"703 217 CURVE SMOOTH",
"703 288 OFFCURVE",
"663 353 OFFCURVE",
"588 371 CURVE",
"581 363 LINE",
"684 396 OFFCURVE",
"735 457 OFFCURVE",
"735 545 CURVE SMOOTH",
"735 638 OFFCURVE",
"660 712 OFFCURVE",
"502 712 CURVE SMOOTH",
"151 712 LINE",
"40 0 LINE"
);
},
{
closed = 1;
nodes = (
"337 550 LINE",
"449 550 LINE SMOOTH",
"500 550 OFFCURVE",
"524 536 OFFCURVE",
"524 502 CURVE SMOOTH",
"524 449 OFFCURVE",
"492 443 OFFCURVE",
"429 443 CURVE SMOOTH",
"301 443 LINE",
"275 282 LINE",
"426 282 LINE SMOOTH",
"477 282 OFFCURVE",
"504 268 OFFCURVE",
"504 229 CURVE SMOOTH",
"504 169 OFFCURVE",
"467 162 OFFCURVE",
"405 162 CURVE SMOOTH",
"276 162 LINE"
);
}
);
};
guideLines = (
{
position = "{298, 541}";
showMeasurement = 1;
}
);
layerId = "7E8CE273-6C2A-436A-BEF2-D90EC4D0BD66";
paths = (
{
closed = 1;
nodes = (
"407 0 LINE SMOOTH",
"571 0 OFFCURVE",
"678 76 OFFCURVE",
"678 212 CURVE SMOOTH",
"678 293 OFFCURVE",
"629 355 OFFCURVE",
"542 372 CURVE",
"542 355 LINE",
"640 373 OFFCURVE",
"709 437 OFFCURVE",
"709 534 CURVE SMOOTH",
"709 628 OFFCURVE",
"646 705 OFFCURVE",
"473 705 CURVE SMOOTH",
"130 705 LINE",
"18 0 LINE"
);
},
{
closed = 1;
nodes = (
"268 280 LINE",
"403 280 LINE SMOOTH",
"450 280 OFFCURVE",
"475 263 OFFCURVE",
"475 227 CURVE SMOOTH",
"475 183 OFFCURVE",
"449 156 OFFCURVE",
"393 156 CURVE SMOOTH",
"248 156 LINE"
);
},
{
closed = 1;
nodes = (
"310 549 LINE",
"436 549 LINE SMOOTH",
"485 549 OFFCURVE",
"505 533 OFFCURVE",
"505 505 CURVE SMOOTH",
"505 458 OFFCURVE",
"477 436 OFFCURVE",
"416 436 CURVE SMOOTH",
"292 436 LINE"
);
}
);
width = 708;
},
{
anchors = (
{
name = bottom;
position = "{360, 0}";
},
{
name = top;
position = "{360, 705}";
}
);
associatedMasterId = "2567DF27-EA2D-46C8-A1A0-FA57AF1B0F16";
layerId = "B8FA56BD-7EDE-4576-AB47-8A7B7BD1DCF7";
name = "";
paths = (
{
closed = 1;
nodes = (
"427 0 LINE SMOOTH",
"585 0 OFFCURVE",
"684 78 OFFCURVE",
"684 202 CURVE SMOOTH",
"684 294 OFFCURVE",
"629 355 OFFCURVE",
"530 375 CURVE",
"530 358 LINE",
"613 379 OFFCURVE",
"664 441 OFFCURVE",
"664 523 CURVE SMOOTH",
"664 633 OFFCURVE",
"574 705 OFFCURVE",
"416 705 CURVE SMOOTH",
"60 705 LINE",
"60 0 LINE"
);
},
{
closed = 1;
nodes = (
"259 282 LINE",
"399 282 LINE SMOOTH",
"459 282 OFFCURVE",
"487 261 OFFCURVE",
"487 217 CURVE SMOOTH",
"487 172 OFFCURVE",
"459 151 OFFCURVE",
"399 151 CURVE SMOOTH",
"259 151 LINE"
);
},
{
closed = 1;
nodes = (
"259 554 LINE",
"377 554 LINE SMOOTH",
"439 554 OFFCURVE",
"464 536 OFFCURVE",
"464 494 CURVE SMOOTH",
"464 452 OFFCURVE",
"439 434 OFFCURVE",
"377 434 CURVE SMOOTH",
"259 434 LINE"
);
}
);
width = 706.54335;
}
);
leftKerningGroup = H;
rightKerningGroup = B;
unicode = 0042;
userData = {
anchors = (
);
b = {
};
com.typemytype.robofont.layerData = {
b = {
anchors = (
);
components = (
);
contours = (
{
points = (
{
segmentType = curve;
smooth = 1;
x = 266;
y = 0;
},
{
segmentType = line;
smooth = 1;
x = 1035;
y = 0;
},
{
smooth = 0;
x = 1084;
y = 0;
},
{
smooth = 0;
x = 1108;
y = 36;
},
{
segmentType = curve;
smooth = 1;
x = 1108;
y = 73;
},
{
smooth = 0;
x = 1108;
y = 109;
},
{
smooth = 0;
x = 1084;
y = 145;
},
{
segmentType = curve;
smooth = 1;
x = 1035;
y = 145;
},
{
segmentType = line;
smooth = 0;
x = 353;
y = 145;
},
{
segmentType = line;
smooth = 0;
x = 353;
y = 662;
},
{
segmentType = line;
smooth = 1;
x = 975;
y = 662;
},
{
smooth = 0;
x = 1024;
y = 662;
},
{
smooth = 0;
x = 1049;
y = 698;
},
{
segmentType = curve;
smooth = 1;
x = 1049;
y = 734;
},
{
smooth = 0;
x = 1049;
y = 770;
},
{
smooth = 0;
x = 1026;
y = 806;
},
{
segmentType = curve;
smooth = 1;
x = 975;
y = 806;
},
{
segmentType = line;
smooth = 0;
x = 353;
y = 806;
},
{
segmentType = line;
smooth = 0;
x = 353;
y = 1281;
},
{
segmentType = line;
smooth = 1;
x = 1007;
y = 1281;
},
{
smooth = 0;
x = 1056;
y = 1281;
},
{
smooth = 0;
x = 1080;
y = 1317;
},
{
segmentType = curve;
smooth = 1;
x = 1080;
y = 1354;
},
{
smooth = 0;
x = 1080;
y = 1390;
},
{
smooth = 0;
x = 1056;
y = 1426;
},
{
segmentType = curve;
smooth = 1;
x = 1007;
y = 1426;
},
{
segmentType = line;
smooth = 1;
x = 261;
y = 1426;
},
{
smooth = 0;
x = 213;
y = 1426;
},
{
smooth = 0;
x = 178;
y = 1383;
},
{
segmentType = curve;
smooth = 1;
x = 178;
y = 1340;
},
{
segmentType = line;
smooth = 1;
x = 178;
y = 86;
},
{
smooth = 0;
x = 178;
y = 41;
},
{
smooth = 0;
x = 222;
y = 0;
}
);
}
);
lib = {
};
name = B;
unicodes = (
);
width = 1292;
};
};
components = (
);
contours = {
};
lib = {
};
name = B;
points = {
};
segmentType = curve;
unicodes = (
);
width = 1395;
x = 676;
y = 1260;
};
},
{
color = 4;
glyphname = C;
lastChange = "2019-11-14 11:52:21 +0000";
layers = (
{
anchors = (
{
name = bottom;
position = "{384, 0}";
},
{
name = top;
position = "{386, 705}";
}
);
background = {
anchors = (
{
name = bottom;
position = "{384, 0}";
},
{
name = top;
position = "{386, 712}";
}
);
paths = (
{
closed = 1;
nodes = (
"483 -8 OFFCURVE",
"565 23 OFFCURVE",
"627 88 CURVE",
"606 123 LINE",
"535 58 OFFCURVE",
"471 33 OFFCURVE",
"384 33 CURVE SMOOTH",
"211 33 OFFCURVE",
"112 152 OFFCURVE",
"112 357 CURVE SMOOTH",
"112 561 OFFCURVE",
"212 679 OFFCURVE",
"384 679 CURVE SMOOTH",
"471 679 OFFCURVE",
"535 654 OFFCURVE",
"606 589 CURVE",
"627 624 LINE",
"565 689 OFFCURVE",
"483 720 OFFCURVE",
"385 720 CURVE SMOOTH",
"189 720 OFFCURVE",
"68 585 OFFCURVE",
"68 357 CURVE SMOOTH",
"68 128 OFFCURVE",
"189 -8 OFFCURVE",
"385 -8 CURVE SMOOTH"
);
}
);
};
layerId = "2567DF27-EA2D-46C8-A1A0-FA57AF1B0F16";
paths = (
{
closed = 1;
nodes = (
"486 -8 OFFCURVE",
"564 25 OFFCURVE",
"624 88 CURVE",
"602 123 LINE",
"537 60 OFFCURVE",
"475 33 OFFCURVE",
"384 33 CURVE SMOOTH",
"206 33 OFFCURVE",
"113 150 OFFCURVE",
"113 353 CURVE SMOOTH",
"113 555 OFFCURVE",
"206 672 OFFCURVE",
"384 672 CURVE SMOOTH",
"475 672 OFFCURVE",
"537 645 OFFCURVE",
"602 582 CURVE",
"624 617 LINE",
"564 680 OFFCURVE",
"487 713 OFFCURVE",
"385 713 CURVE SMOOTH",
"181 713 OFFCURVE",
"68 576 OFFCURVE",
"68 353 CURVE SMOOTH",
"68 129 OFFCURVE",
"181 -8 OFFCURVE",
"385 -8 CURVE SMOOTH"
);
}
);
width = 684;
},
{
anchors = (
{
name = bottom;
position = "{411, 0}";
},
{
name = top;
position = "{410, 705}";
}
);
background = {
anchors = (
{
name = bottom;
position = "{405, 0}";
},
{
name = top;
position = "{405, 712}";
}
);
paths = (
{
closed = 1;
nodes = (
"507 -9 OFFCURVE",
"604 20 OFFCURVE",
"656 65 CURVE",
"592 217 LINE",
"532 178 OFFCURVE",
"475 160 OFFCURVE",
"420 160 CURVE SMOOTH",
"318 160 OFFCURVE",
"261 224 OFFCURVE",
"261 357 CURVE SMOOTH",
"261 489 OFFCURVE",
"317 552 OFFCURVE",
"420 552 CURVE SMOOTH",
"475 552 OFFCURVE",
"532 534 OFFCURVE",
"592 495 CURVE",
"656 647 LINE",
"604 692 OFFCURVE",
"507 721 OFFCURVE",
"415 721 CURVE SMOOTH",
"185 721 OFFCURVE",
"41 574 OFFCURVE",
"41 357 CURVE SMOOTH",
"41 139 OFFCURVE",
"185 -9 OFFCURVE",
"415 -9 CURVE SMOOTH"
);
}
);
};
layerId = "FFBF88B9-CE65-4AF8-A771-12A489880E49";
paths = (
{
closed = 1;
nodes = (
"523 -12 OFFCURVE",
"606 14 OFFCURVE",
"660 59 CURVE",
"597 228 LINE",
"537 188 OFFCURVE",
"495 175 OFFCURVE",
"435 175 CURVE SMOOTH",
"327 175 OFFCURVE",
"267 237 OFFCURVE",
"267 353 CURVE SMOOTH",
"267 468 OFFCURVE",
"327 530 OFFCURVE",
"435 530 CURVE SMOOTH",
"495 530 OFFCURVE",
"537 517 OFFCURVE",
"597 477 CURVE",
"660 646 LINE",
"606 691 OFFCURVE",
"523 717 OFFCURVE",
"427 717 CURVE SMOOTH",
"191 717 OFFCURVE",
"41 572 OFFCURVE",
"41 353 CURVE SMOOTH",
"41 133 OFFCURVE",
"191 -12 OFFCURVE",
"427 -12 CURVE SMOOTH"
);
}
);
width = 685;
},
{
anchors = (
{
name = bottom;
position = "{375, 0}";
},
{
name = top;
position = "{444, 705}";
}
);
background = {
anchors = (
{
name = bottom;
position = "{365, 0}";
},
{
name = top;
position = "{478, 712}";
}
);
paths = (
{
closed = 1;
nodes = (
"466 -8 OFFCURVE",
"549 24 OFFCURVE",
"622 88 CURVE",
"606 123 LINE",
"534 58 OFFCURVE",
"454 33 OFFCURVE",
"380 33 CURVE SMOOTH",
"228 33 OFFCURVE",
"144 123 OFFCURVE",
"144 282 CURVE SMOOTH",
"144 519 OFFCURVE",
"269 679 OFFCURVE",
"455 679 CURVE SMOOTH",
"556 679 OFFCURVE",
"620 653 OFFCURVE",
"680 590 CURVE",
"707 624 LINE",
"655 686 OFFCURVE",
"572 720 OFFCURVE",
"461 720 CURVE SMOOTH",
"248 720 OFFCURVE",
"100 540 OFFCURVE",
"100 282 CURVE SMOOTH",
"100 100 OFFCURVE",
"202 -8 OFFCURVE",
"364 -8 CURVE SMOOTH"
);
}
);
};
layerId = "5EBC8607-93CF-4E15-8CE6-F0DFD39C8AE8";
paths = (
{
closed = 1;
nodes = (
"477 -8 OFFCURVE",
"557 25 OFFCURVE",
"623 88 CURVE",
"599 122 LINE",
"531 60 OFFCURVE",
"468 33 OFFCURVE",
"383 33 CURVE SMOOTH",
"229 33 OFFCURVE",
"129 109 OFFCURVE",
"129 304 CURVE SMOOTH",
"129 518 OFFCURVE",
"250 672 OFFCURVE",
"442 672 CURVE SMOOTH",
"534 672 OFFCURVE",
"600 643 OFFCURVE",
"657 582 CURVE",
"682 617 LINE",
"628 677 OFFCURVE",
"547 713 OFFCURVE",
"445 713 CURVE SMOOTH",
"224 713 OFFCURVE",
"84 537 OFFCURVE",
"84 305 CURVE SMOOTH",
"84 89 OFFCURVE",
"204 -8 OFFCURVE",
"382 -8 CURVE SMOOTH"
);
}
);
width = 684;
},
{
anchors = (
{
name = bottom;
position = "{376, 0}";
},
{
name = top;
position = "{449, 705}";
}
);
background = {
anchors = (
{
name = bottom;
position = "{384, 0}";
},
{
name = top;
position = "{495, 712}";
}
);
paths = (
{
closed = 1;
nodes = (
"496 -9 OFFCURVE",
"599 21 OFFCURVE",
"645 65 CURVE",
"605 217 LINE",
"531 179 OFFCURVE",
"475 160 OFFCURVE",
"424 160 CURVE SMOOTH",
"337 160 OFFCURVE",
"292 211 OFFCURVE",
"292 308 CURVE SMOOTH",
"292 458 OFFCURVE",
"371 552 OFFCURVE",
"495 552 CURVE SMOOTH",
"545 552 OFFCURVE",
"595 535 OFFCURVE",
"649 495 CURVE",
"737 647 LINE",
"675 695 OFFCURVE",
"590 721 OFFCURVE",
"498 721 CURVE SMOOTH",
"248 721 OFFCURVE",
"73 548 OFFCURVE",
"73 299 CURVE SMOOTH",
"73 109 OFFCURVE",
"197 -9 OFFCURVE",
"407 -9 CURVE SMOOTH"
);
}
);
};
guideLines = (
{
angle = 81;
position = "{617, 387}";
},
{
angle = 81;
position = "{697, 387}";
},
{
angle = 244.946;
position = "{666, 560}";
}
);
layerId = "7E8CE273-6C2A-436A-BEF2-D90EC4D0BD66";
paths = (
{
closed = 1;
nodes = (
"481 -12 OFFCURVE",
"574 14 OFFCURVE",
"628 54 CURVE",
"577 223 LINE",
"518 189 OFFCURVE",
"472 175 OFFCURVE",
"427 175 CURVE SMOOTH",
"316 175 OFFCURVE",
"284 223 OFFCURVE",
"284 324 CURVE SMOOTH",
"284 437 OFFCURVE",
"329 530 OFFCURVE",
"452 530 CURVE SMOOTH",
"505 530 OFFCURVE",
"554 510 OFFCURVE",
"606 475 CURVE",
"685 644 LINE",
"636 685 OFFCURVE",
"542 717 OFFCURVE",
"456 717 CURVE SMOOTH",
"188 717 OFFCURVE",
"57 539 OFFCURVE",
"57 315 CURVE SMOOTH",
"57 102 OFFCURVE",
"199 -12 OFFCURVE",
"400 -12 CURVE SMOOTH"
);
}
);
width = 685;
},
{
anchors = (
{
name = bottom;
position = "{410, 0}";
},
{
name = top;
position = "{409, 705}";
}
);
associatedMasterId = "2567DF27-EA2D-46C8-A1A0-FA57AF1B0F16";
layerId = "B8FA56BD-7EDE-4576-AB47-8A7B7BD1DCF7";
paths = (
{
closed = 1;
nodes = (
"522 -12 OFFCURVE",
"604 14 OFFCURVE",
"659 60 CURVE",
"597 224 LINE",
"537 183 OFFCURVE",
"494 169 OFFCURVE",
"433 169 CURVE SMOOTH",
"322 169 OFFCURVE",
"261 233 OFFCURVE",
"261 353 CURVE SMOOTH",
"261 472 OFFCURVE",
"322 536 OFFCURVE",
"433 536 CURVE SMOOTH",
"494 536 OFFCURVE",
"537 522 OFFCURVE",
"597 481 CURVE",
"659 645 LINE",
"604 691 OFFCURVE",
"522 717 OFFCURVE",
"425 717 CURVE SMOOTH",
"191 717 OFFCURVE",
"42 572 OFFCURVE",
"42 353 CURVE SMOOTH",
"42 133 OFFCURVE",
"191 -12 OFFCURVE",
"425 -12 CURVE SMOOTH"
);
}
);
width = 684.95954;
}
);
leftKerningGroup = O;
rightKerningGroup = C;
unicode = 0043;
userData = {
anchors = (
);
b = {
};
com.typemytype.robofont.layerData = {
b = {
anchors = (
);
components = (
);
contours = (
);
lib = {
};
name = C;
unicodes = (
);
width = 1353.89001;
};
};
components = (
);
contours = (
);
lib = {
};
name = C;
unicodes = (
);
width = 1354;
};
},
{
color = 4;
glyphname = D;
lastChange = "2019-11-14 11:52:21 +0000";
layers = (
{
anchors = (
{
name = bottom;
position = "{372, 0}";
},
{
name = center;
position = "{176, 358}";
},
{
name = top;
position = "{372, 705}";
}
);
background = {
anchors = (
{
name = bottom;
position = "{367, 0}";
},
{
name = center;
position = "{367, 357}";
},
{
name = top;
position = "{366, 712}";
}
);
paths = (
{
closed = 1;
nodes = (
"316 0 LINE SMOOTH",
"538 0 OFFCURVE",
"665 128 OFFCURVE",
"665 357 CURVE SMOOTH",
"665 586 OFFCURVE",
"539 712 OFFCURVE",
"316 712 CURVE SMOOTH",
"97 712 LINE",
"97 0 LINE"
);
},
{
closed = 1;
nodes = (
"138 674 LINE",
"315 674 LINE SMOOTH",
"517 674 OFFCURVE",
"619 567 OFFCURVE",
"619 357 CURVE SMOOTH",
"619 147 OFFCURVE",
"516 38 OFFCURVE",
"315 38 CURVE SMOOTH",
"138 38 LINE"
);
}
);
};
layerId = "2567DF27-EA2D-46C8-A1A0-FA57AF1B0F16";
paths = (
{
closed = 1;
nodes = (
"311 0 LINE SMOOTH",
"539 0 OFFCURVE",
"665 122 OFFCURVE",
"665 353 CURVE SMOOTH",
"665 583 OFFCURVE",
"539 705 OFFCURVE",
"311 705 CURVE SMOOTH",
"97 705 LINE",
"97 0 LINE"
);
},
{
closed = 1;
nodes = (
"139 666 LINE",
"307 666 LINE SMOOTH",
"517 666 OFFCURVE",
"620 562 OFFCURVE",
"620 353 CURVE SMOOTH",
"620 144 OFFCURVE",
"517 39 OFFCURVE",
"307 39 CURVE SMOOTH",
"139 39 LINE"
);
}
);
width = 733;
},
{
anchors = (
{
name = bottom;
position = "{404, 0}";
},
{
name = center;
position = "{217, 358}";
},
{
name = top;
position = "{404, 705}";
}
);
background = {
anchors = (
{
name = bottom;
position = "{394, 0}";
},
{
name = center;
position = "{394, 357}";
},
{
name = top;
position = "{395, 712}";
}
);
paths = (
{
closed = 1;
nodes = (
"362 0 LINE SMOOTH",
"606 0 OFFCURVE",
"749 134 OFFCURVE",
"749 357 CURVE SMOOTH",
"749 578 OFFCURVE",
"604 712 OFFCURVE",
"362 712 CURVE SMOOTH",
"58 712 LINE",
"58 0 LINE"
);
},
{
closed = 1;
nodes = (
"274 540 LINE",
"347 540 LINE SMOOTH",
"474 540 OFFCURVE",
"535 480 OFFCURVE",
"535 357 CURVE SMOOTH",
"535 232 OFFCURVE",
"474 172 OFFCURVE",
"347 172 CURVE SMOOTH",
"274 172 LINE"
);
}
);
};
layerId = "FFBF88B9-CE65-4AF8-A771-12A489880E49";
paths = (
{
closed = 1;
nodes = (
"357 0 LINE SMOOTH",
"613 0 OFFCURVE",
"750 137 OFFCURVE",
"750 353 CURVE SMOOTH",
"750 570 OFFCURVE",
"613 705 OFFCURVE",
"357 705 CURVE SMOOTH",
"58 705 LINE",
"58 0 LINE"
);
},
{
closed = 1;
nodes = (
"274 531 LINE",
"344 531 LINE SMOOTH",
"474 531 OFFCURVE",
"536 475 OFFCURVE",
"536 353 CURVE SMOOTH",
"536 231 OFFCURVE",
"475 174 OFFCURVE",
"344 174 CURVE SMOOTH",
"274 174 LINE"
);
}
);
width = 791;
},
{
anchors = (
{
name = bottom;
position = "{332, 0}";
},
{
name = center;
position = "{193, 358}";
},
{
name = top;
position = "{434, 705}";
}
);
background = {
anchors = (
{
name = bottom;
position = "{348, 0}";
},
{
name = center;
position = "{405, 357}";
},
{
name = top;
position = "{459, 712}";
}
);
paths = (
{
closed = 1;
nodes = (
"325 0 LINE SMOOTH",
"558 0 OFFCURVE",
"707 168 OFFCURVE",
"707 429 CURVE SMOOTH",
"707 611 OFFCURVE",
"603 712 OFFCURVE",
"403 712 CURVE SMOOTH",
"190 712 LINE",
"79 0 LINE"
);
},
{
closed = 1;
nodes = (
"227 674 LINE",
"401 674 LINE SMOOTH",
"576 674 OFFCURVE",
"661 590 OFFCURVE",
"661 429 CURVE SMOOTH",
"661 187 OFFCURVE",
"535 38 OFFCURVE",
"329 38 CURVE SMOOTH",
"127 38 LINE"
);
}
);
};
layerId = "5EBC8607-93CF-4E15-8CE6-F0DFD39C8AE8";
paths = (
{
closed = 1;
nodes = (
"283 0 LINE SMOOTH",
"569 0 OFFCURVE",
"687 189 OFFCURVE",
"687 416 CURVE SMOOTH",
"687 600 OFFCURVE",
"570 705 OFFCURVE",
"359 705 CURVE SMOOTH",
"169 705 LINE",
"57 0 LINE"
);
},
{
closed = 1;
nodes = (
"204 666 LINE",
"358 666 LINE SMOOTH",
"548 666 OFFCURVE",
"642 579 OFFCURVE",
"642 416 CURVE SMOOTH",
"642 214 OFFCURVE",
"547 39 OFFCURVE",
"285 39 CURVE SMOOTH",
"105 39 LINE"
);
}
);
width = 736;
},
{
anchors = (
{
name = bottom;
position = "{355, 0}";
},
{
name = center;
position = "{230, 358}";
},
{
name = top;
position = "{449, 705}";
}
);
background = {
anchors = (
{
name = bottom;
position = "{375, 0}";
},
{
name = center;
position = "{431, 357}";
},
{
name = top;
position = "{486, 712}";
}
);
paths = (
{
closed = 1;
nodes = (
"348 0 LINE SMOOTH",
"618 0 OFFCURVE",
"788 158 OFFCURVE",
"788 410 CURVE SMOOTH",
"788 594 OFFCURVE",
"659 712 OFFCURVE",
"456 712 CURVE SMOOTH",
"150 712 LINE",
"39 0 LINE"
);
},
{
closed = 1;
nodes = (
"339 540 LINE",
"411 540 LINE SMOOTH",
"515 540 OFFCURVE",
"574 489 OFFCURVE",
"574 397 CURVE SMOOTH",
"574 246 OFFCURVE",
"497 172 OFFCURVE",
"341 172 CURVE SMOOTH",
"281 172 LINE"
);
}
);
};
layerId = "7E8CE273-6C2A-436A-BEF2-D90EC4D0BD66";
paths = (
{
closed = 1;
nodes = (
"353 0 LINE SMOOTH",
"616 0 OFFCURVE",
"766 164 OFFCURVE",
"765 392 CURVE SMOOTH",
"764 587 OFFCURVE",
"627 705 OFFCURVE",
"383 705 CURVE SMOOTH",
"130 705 LINE",
"18 0 LINE"
);
},
{
closed = 1;
nodes = (
"318 531 LINE",
"383 531 LINE SMOOTH",
"488 531 OFFCURVE",
"542 481 OFFCURVE",
"542 388 CURVE SMOOTH",
"542 250 OFFCURVE",
"473 174 OFFCURVE",
"355 174 CURVE SMOOTH",
"260 174 LINE"
);
}
);
width = 791;
},
{
anchors = (
{
name = bottom;
position = "{403, 0}";
},
{
name = center;
position = "{215, 358}";
},
{
name = top;
position = "{403, 705}";
}
);
associatedMasterId = "2567DF27-EA2D-46C8-A1A0-FA57AF1B0F16";
layerId = "B8FA56BD-7EDE-4576-AB47-8A7B7BD1DCF7";
paths = (
{
closed = 1;
nodes = (
"355 0 LINE SMOOTH",
"610.006 0 OFFCURVE",
"747 136 OFFCURVE",
"747 353 CURVE SMOOTH",
"747 571 OFFCURVE",
"610.006 705 OFFCURVE",
"355 705 CURVE SMOOTH",
"60 705 LINE",
"60 0 LINE"
);
},
{
closed = 1;
nodes = (
"269 536 LINE",
"343 536 LINE SMOOTH",
"476 536 OFFCURVE",
"539 479 OFFCURVE",
"539 353 CURVE SMOOTH",
"539 227 OFFCURVE",
"477 169 OFFCURVE",
"343 169 CURVE SMOOTH",
"269 169 LINE"
);
}
);
width = 788.65318;
}
);
leftKerningGroup = H;
rightKerningGroup = O;
unicode = 0044;
userData = {
anchors = (
);
b = {
};
com.typemytype.robofont.layerData = {
b = {
anchors = (
);
components = (
);
contours = (
{
points = (
{
segmentType = curve;
smooth = 1;
x = 266;
y = 0;
},
{
segmentType = line;
smooth = 1;
x = 1035;
y = 0;
},
{
smooth = 0;
x = 1084;
y = 0;
},
{
smooth = 0;
x = 1108;
y = 34;
},
{
segmentType = curve;
smooth = 1;
x = 1108;
y = 71;
},
{
smooth = 0;
x = 1108;
y = 107;
},
{
smooth = 0;
x = 1084;
y = 141;
},
{
segmentType = curve;
smooth = 1;
x = 1035;
y = 141;
},
{
segmentType = line;
smooth = 0;
x = 356;
y = 141;
},
{
segmentType = line;
smooth = 0;
x = 356;
y = 665;
},
{
segmentType = line;
smooth = 1;
x = 975;
y = 665;
},
{
smooth = 0;
x = 1024;
y = 665;
},
{
smooth = 0;
x = 1049;
y = 698;
},
{
segmentType = curve;
smooth = 1;
x = 1049;
y = 734;
},
{
smooth = 0;
x = 1049;
y = 770;
},
{
smooth = 0;
x = 1026;
y = 803;
},
{
segmentType = curve;
smooth = 1;
x = 975;
y = 803;
},
{
segmentType = line;
smooth = 0;
x = 356;
y = 803;
},
{
segmentType = line;
smooth = 0;
x = 356;
y = 1285;
},
{
segmentType = line;
smooth = 1;
x = 1007;
y = 1285;
},
{
smooth = 0;
x = 1056;
y = 1285;
},
{
smooth = 0;
x = 1080;
y = 1319;
},
{
segmentType = curve;
smooth = 1;
x = 1080;
y = 1356;
},
{
smooth = 0;
x = 1080;
y = 1392;
},
{
smooth = 0;
x = 1056;
y = 1426;
},
{
segmentType = curve;
smooth = 1;
x = 1007;
y = 1426;
},
{
segmentType = line;
smooth = 1;
x = 261;
y = 1426;
},
{
smooth = 0;
x = 213;
y = 1426;
},
{
smooth = 0;
x = 178;
y = 1383;
},
{
segmentType = curve;
smooth = 1;
x = 178;
y = 1340;
},
{
segmentType = line;
smooth = 1;
x = 178;
y = 86;
},
{
smooth = 0;
x = 178;
y = 41;
},
{
smooth = 0;
x = 222;
y = 0;
}
);
}
);
lib = {
};
name = D;
unicodes = (
);
width = 1499;
};
};
components = (
);
contours = (
);
lib = {
};
name = D;
unicodes = (
);
width = 1535;
};
},
{
color = 4;
glyphname = Eth;
lastChange = "2019-11-14 11:52:21 +0000";
layers = (
{
background = {
paths = (
{
closed = 1;
nodes = (
"341 343 LINE",
"341 381 LINE",
"4 381 LINE",
"4 343 LINE"
);
},
{
closed = 1;
nodes = (
"320 0 LINE SMOOTH",
"542 0 OFFCURVE",
"669 128 OFFCURVE",
"669 357 CURVE SMOOTH",
"669 586 OFFCURVE",
"544 712 OFFCURVE",
"320 712 CURVE SMOOTH",
"101 712 LINE",
"101 0 LINE"
);
},
{
closed = 1;
nodes = (
"143 674 LINE",
"319 674 LINE SMOOTH",
"521 674 OFFCURVE",
"623 567 OFFCURVE",
"623 357 CURVE SMOOTH",
"623 147 OFFCURVE",
"520 38 OFFCURVE",
"319 38 CURVE SMOOTH",
"143 38 LINE"
);
}
);
};
components = (
{
name = D;
},
{
name = strokeshortcomb.case;
transform = "{1, 0, 0, 1, -74, 0}";
}
);
layerId = "2567DF27-EA2D-46C8-A1A0-FA57AF1B0F16";
width = 733;
},
{
background = {
paths = (
{
closed = 1;
nodes = (
"499 278 LINE",
"499 439 LINE",
"20 439 LINE",
"20 278 LINE"
);
},
{
closed = 1;
nodes = (
"407 0 LINE SMOOTH",
"649 0 OFFCURVE",
"792 134 OFFCURVE",
"792 357 CURVE SMOOTH",
"792 578 OFFCURVE",
"647 712 OFFCURVE",
"407 712 CURVE SMOOTH",
"101 712 LINE",
"101 0 LINE"
);
},
{
closed = 1;
nodes = (
"317 540 LINE",
"391 540 LINE SMOOTH",
"517 540 OFFCURVE",
"578 480 OFFCURVE",
"578 357 CURVE SMOOTH",
"578 232 OFFCURVE",
"517 172 OFFCURVE",
"391 172 CURVE SMOOTH",
"317 172 LINE"
);
}
);
};
components = (
{
name = D;
},
{
name = strokeshortcomb.case;
transform = "{1, 0, 0, 1, -33, 0}";
}
);
layerId = "FFBF88B9-CE65-4AF8-A771-12A489880E49";
width = 791;
},
{
background = {
paths = (
{
closed = 1;
nodes = (
"376 343 LINE",
"382 381 LINE",
"44 381 LINE",
"38 343 LINE"
);
},
{
closed = 1;
nodes = (
"328 0 LINE SMOOTH",
"561 0 OFFCURVE",
"710 167 OFFCURVE",
"710 429 CURVE SMOOTH",
"710 611 OFFCURVE",
"606 712 OFFCURVE",
"407 712 CURVE SMOOTH",
"193 712 LINE",
"82 0 LINE"
);
},
{
closed = 1;
nodes = (
"230 674 LINE",
"406 674 LINE SMOOTH",
"580 674 OFFCURVE",
"664 590 OFFCURVE",
"664 430 CURVE SMOOTH",
"664 187 OFFCURVE",
"538 38 OFFCURVE",
"332 38 CURVE SMOOTH",
"130 38 LINE"
);
}
);
};
components = (
{
name = D;
},
{
name = strokeshortcomb.case;
transform = "{1, 0, 0, 1, -75, 0}";
}
);
layerId = "5EBC8607-93CF-4E15-8CE6-F0DFD39C8AE8";
width = 736;
},
{
background = {
paths = (
{
closed = 1;
nodes = (
"524 278 LINE",
"550 439 LINE",
"70 439 LINE",
"44 278 LINE"
);
},
{
closed = 1;
nodes = (
"393 0 LINE SMOOTH",
"662 0 OFFCURVE",
"833 159 OFFCURVE",
"833 409 CURVE SMOOTH",
"833 594 OFFCURVE",
"703 712 OFFCURVE",
"499 712 CURVE SMOOTH",
"193 712 LINE",
"82 0 LINE"
);
},
{
closed = 1;
nodes = (
"383 540 LINE",
"455 540 LINE SMOOTH",
"559 540 OFFCURVE",
"618 489 OFFCURVE",
"618 397 CURVE SMOOTH",
"618 246 OFFCURVE",
"541 172 OFFCURVE",
"386 172 CURVE SMOOTH",
"326 172 LINE"
);
}
);
};
components = (
{
name = D;
},
{
name = strokeshortcomb.case;
transform = "{1, 0, 0, 1, -38, 0}";
}
);
layerId = "7E8CE273-6C2A-436A-BEF2-D90EC4D0BD66";
width = 791;
},
{
associatedMasterId = "2567DF27-EA2D-46C8-A1A0-FA57AF1B0F16";
components = (
{
name = D;
},
{
name = strokeshortcomb.case;
transform = "{1, 0, 0, 1, -35, 0}";
}
);
layerId = "B8FA56BD-7EDE-4576-AB47-8A7B7BD1DCF7";
width = 789;
}
);
leftKerningGroup = H;
rightKerningGroup = O;
unicode = 00D0;
},
{
color = 4;
glyphname = E;
lastChange = "2019-11-14 11:52:21 +0000";
layers = (
{
anchors = (
{
name = bottom;
position = "{323, 0}";
},
{
name = ogonek;
position = "{499, 0}";
},
{
name = top;
position = "{323, 705}";
},
{
name = topleft;
position = "{25, 705}";
}
);
background = {
anchors = (
{
name = bottom;
position = "{323, 0}";
},
{
name = ogonek;
position = "{506, 10}";
},
{
name = top;
position = "{323, 712}";
},
{
name = topleft;
position = "{27, 712}";
}
);
paths = (
{
closed = 1;
nodes = (
"525 0 LINE",
"525 39 LINE",
"139 39 LINE",
"139 341 LINE",
"505 341 LINE",
"505 381 LINE",
"139 381 LINE",
"139 673 LINE",
"525 673 LINE",
"525 712 LINE",
"97 712 LINE",
"97 0 LINE"
);
}
);
};
layerId = "2567DF27-EA2D-46C8-A1A0-FA57AF1B0F16";
paths = (
{
closed = 1;
nodes = (
"525 0 LINE",
"525 39 LINE",
"139 39 LINE",
"139 338 LINE",
"503 338 LINE",
"503 377 LINE",
"139 377 LINE",
"139 666 LINE",
"525 666 LINE",
"525 705 LINE",
"97 705 LINE",
"97 0 LINE"
);
}
);
width = 582;
},
{
anchors = (
{
name = bottom;
position = "{343, 0}";
},
{
name = ogonek;
position = "{523, 0}";
},
{
name = top;
position = "{343, 705}";
},
{
name = topleft;
position = "{17, 705}";
}
);
background = {
anchors = (
{
name = bottom;
position = "{339, 0}";
},
{
name = ogonek;
position = "{556, 10}";
},
{
name = top;
position = "{339, 712}";
},
{
name = topleft;
position = "{19, 712}";
}
);
paths = (
{
closed = 1;
nodes = (
"581 0 LINE",
"581 165 LINE",
"268 165 LINE",
"268 280 LINE",
"560 280 LINE",
"560 444 LINE",
"268 444 LINE",
"268 547 LINE",
"581 547 LINE",
"581 712 LINE",
"58 712 LINE",
"58 0 LINE"
);
}
);
};
layerId = "FFBF88B9-CE65-4AF8-A771-12A489880E49";
paths = (
{
closed = 1;
nodes = (
"581 0 LINE",
"581 164 LINE",
"264 164 LINE",
"264 276 LINE",
"557 276 LINE",
"557 440 LINE",
"264 440 LINE",
"264 541 LINE",
"581 541 LINE",
"581 705 LINE",
"58 705 LINE",
"58 0 LINE"
);
}
);
width = 608;
},
{
anchors = (
{
name = bottom;
position = "{295, 0}";
},
{
name = ogonek;
position = "{461, 0}";
},
{
name = top;
position = "{402, 705}";
},
{
name = topleft;
position = "{97, 705}";
}
);
background = {
anchors = (
{
name = bottom;
position = "{305, 0}";
},
{
name = ogonek;
position = "{491, 10}";
},
{
name = top;
position = "{417, 712}";
},
{
name = topleft;
position = "{121, 712}";
}
);
paths = (
{
closed = 1;
nodes = (
"507 0 LINE",
"513 39 LINE",
"127 39 LINE",
"227 673 LINE",
"614 673 LINE",
"619 712 LINE",
"190 712 LINE",
"79 0 LINE"
);
},
{
closed = 1;
nodes = (
"541 341 LINE",
"547 381 LINE",
"169 381 LINE",
"163 341 LINE"
);
}
);
};
layerId = "5EBC8607-93CF-4E15-8CE6-F0DFD39C8AE8";
paths = (
{
closed = 1;
nodes = (
"487 0 LINE",
"493 39 LINE",
"105 39 LINE",
"152 338 LINE",
"519 338 LINE",
"525 377 LINE",
"159 377 LINE",
"205 666 LINE",
"593 666 LINE",
"599 705 LINE",
"169 705 LINE",
"57 0 LINE"
);
}
);
width = 582;
},
{
anchors = (
{
name = bottom;
position = "{299, 0}";
},
{
name = ogonek;
position = "{461, 0}";
},
{
name = top;
position = "{404, 705}";
},
{
name = topleft;
position = "{89, 705}";
}
);
background = {
anchors = (
{
name = bottom;
position = "{318, 0}";
},
{
name = ogonek;
position = "{538, 10}";
},
{
name = top;
position = "{430, 712}";
},
{
name = topleft;
position = "{110, 712}";
}
);
paths = (
{
closed = 1;
nodes = (
"559 0 LINE",
"585 165 LINE",
"273 165 LINE",
"334 547 LINE",
"646 547 LINE",
"673 712 LINE",
"150 712 LINE",
"38 0 LINE"
);
},
{
closed = 1;
nodes = (
"583 280 LINE",
"610 444 LINE",
"299 444 LINE",
"273 280 LINE"
);
}
);
};
guideLines = (
{
position = "{275, 0}";
}
);
layerId = "7E8CE273-6C2A-436A-BEF2-D90EC4D0BD66";
paths = (
{
closed = 1;
nodes = (
"531 0 LINE",
"557 164 LINE",
"248 164 LINE",
"266 276 LINE",
"552 276 LINE",
"578 440 LINE",
"292 440 LINE",
"308 541 LINE",
"617 541 LINE",
"643 705 LINE",
"129 705 LINE",
"18 0 LINE"
);
}
);
width = 608;
},
{
anchors = (
{
name = bottom;
position = "{342, 0}";
},
{
name = ogonek;
position = "{522, 0}";
},
{
name = top;
position = "{342, 705}";
},
{
name = topleft;
position = "{17, 705}";
}
);
associatedMasterId = "2567DF27-EA2D-46C8-A1A0-FA57AF1B0F16";
layerId = "B8FA56BD-7EDE-4576-AB47-8A7B7BD1DCF7";
paths = (
{
closed = 1;
nodes = (
"579 0 LINE",
"579 159 LINE",
"259 159 LINE",
"259 279 LINE",
"555 279 LINE",
"555 437 LINE",
"259 437 LINE",
"259 546 LINE",
"579 546 LINE",
"579 705 LINE",
"60 705 LINE",
"60 0 LINE"
);
}
);
width = 606.94798;
}
);
leftKerningGroup = H;
rightKerningGroup = E;
unicode = 0045;
userData = {
anchors = (
);
b = {
};
com.typemytype.robofont.layerData = {
b = {
anchors = (
);
components = (
);
contours = (
);
lib = {
};
name = E;
unicodes = (
);
width = 1234;
};
};
components = (
);
contours = (
);
lib = {
};
name = E;
unicodes = (
);
width = 1258;
};
},
{
color = 4;
glyphname = Eogonek;
lastChange = "2019-11-14 11:52:21 +0000";
layers = (
{
anchors = (
{
name = top;
position = "{330, 705}";
}
);
background = {
anchors = (
{
name = top;
position = "{323, 712}";
}
);
paths = (
{
closed = 1;
nodes = (
"519 -146 OFFCURVE",
"497 -153 OFFCURVE",
"481 -153 CURVE SMOOTH",
"439 -153 OFFCURVE",
"411 -129 OFFCURVE",
"411 -85 CURVE SMOOTH",
"411 -37 OFFCURVE",
"443 0 OFFCURVE",
"513 0 CURVE SMOOTH",
"525 0 LINE",
"525 39 LINE",
"139 39 LINE",
"139 341 LINE",
"505 341 LINE",
"505 381 LINE",
"139 381 LINE",
"139 673 LINE",
"525 673 LINE",
"525 712 LINE",
"97 712 LINE",
"97 0 LINE",
"451 0 LINE",
"436 19 LINE",
"391 -5 OFFCURVE",
"366 -42 OFFCURVE",
"366 -89 CURVE SMOOTH",
"366 -149 OFFCURVE",
"410 -192 OFFCURVE",
"479 -192 CURVE SMOOTH",
"511 -192 OFFCURVE",
"538 -182 OFFCURVE",
"557 -169 CURVE",
"540 -134 LINE"
);
}
);
};
components = (
{
name = E;
},
{
name = ogonekcomb;
transform = "{1, 0, 0, 1, 249, 0}";
}
);
layerId = "2567DF27-EA2D-46C8-A1A0-FA57AF1B0F16";
width = 582;
},
{
anchors = (
{
name = top;
position = "{345, 705}";
}
);
background = {
anchors = (
{
name = top;
position = "{339, 712}";
}
);
paths = (
{
closed = 1;
nodes = (
"588 -100 OFFCURVE",
"571 -103 OFFCURVE",
"553 -103 CURVE SMOOTH",
"517 -103 OFFCURVE",
"499 -87 OFFCURVE",
"499 -56 CURVE SMOOTH",
"499 -20 OFFCURVE",
"524 0 OFFCURVE",
"553 0 CURVE SMOOTH",
"581 0 LINE",
"581 165 LINE",
"268 165 LINE",
"268 280 LINE",
"560 280 LINE",
"560 444 LINE",
"268 444 LINE",
"268 547 LINE",
"581 547 LINE",
"581 712 LINE",
"58 712 LINE",
"58 0 LINE",
"459 0 LINE",
"439 20 LINE",
"395 -5 OFFCURVE",
"374 -42 OFFCURVE",
"374 -88 CURVE SMOOTH",
"374 -155 OFFCURVE",
"431 -202 OFFCURVE",
"511 -202 CURVE SMOOTH",
"548 -202 OFFCURVE",
"588 -196 OFFCURVE",
"623 -183 CURVE",
"606 -94 LINE"
);
}
);
};
components = (
{
name = E;
},
{
name = ogonekcomb;
transform = "{1, 0, 0, 1, 273, 0}";
}
);
layerId = "FFBF88B9-CE65-4AF8-A771-12A489880E49";
width = 608;
},
{
anchors = (
{
name = top;
position = "{365, 705}";
}
);
background = {
anchors = (
{
name = top;
position = "{417, 712}";
}
);
paths = (
{
closed = 1;
nodes = (
"163 341 LINE",
"541 341 LINE",
"547 381 LINE",
"169 381 LINE"
);
},
{
closed = 1;
nodes = (
"227 673 LINE",
"614 673 LINE",
"619 712 LINE",
"190 712 LINE",
"79 0 LINE",
"434 0 LINE",
"415 19 LINE",
"363 -8 OFFCURVE",
"333 -53 OFFCURVE",
"333 -105 CURVE SMOOTH",
"333 -158 OFFCURVE",
"371 -192 OFFCURVE",
"431 -192 CURVE SMOOTH",
"462 -192 OFFCURVE",
"495 -181 OFFCURVE",
"512 -169 CURVE",
"502 -133 LINE",
"480 -145 OFFCURVE",
"457 -153 OFFCURVE",
"439 -153 CURVE SMOOTH",
"401 -153 OFFCURVE",
"380 -134 OFFCURVE",
"380 -97 CURVE SMOOTH",
"380 -41 OFFCURVE",
"417 0 OFFCURVE",
"495 0 CURVE SMOOTH",
"507 0 LINE",
"513 39 LINE",
"127 39 LINE"
);
}
);
};
components = (
{
name = E;
},
{
name = ogonekcomb;
transform = "{1, 0, 0, 1, 250, 0}";
}
);
layerId = "5EBC8607-93CF-4E15-8CE6-F0DFD39C8AE8";
width = 582;
},
{
anchors = (
{
name = top;
position = "{379, 705}";
}
);
background = {
anchors = (
{
name = top;
position = "{431, 712}";
}
);
paths = (
{
closed = 1;
nodes = (
"274 280 LINE",
"584 280 LINE",
"611 444 LINE",
"300 444 LINE"
);
},
{
closed = 1;
nodes = (
"335 547 LINE",
"646 547 LINE",
"672 712 LINE",
"151 712 LINE",
"39 0 LINE",
"438 0 LINE",
"426 20 LINE",
"371 -4 OFFCURVE",
"340 -49 OFFCURVE",
"340 -99 CURVE SMOOTH",
"340 -159 OFFCURVE",
"389 -202 OFFCURVE",
"470 -202 CURVE SMOOTH",
"498 -202 OFFCURVE",
"533 -198 OFFCURVE",
"576 -183 CURVE",
"573 -94 LINE",
"548 -100 OFFCURVE",
"534 -103 OFFCURVE",
"515 -103 CURVE SMOOTH",
"488 -103 OFFCURVE",
"469 -87 OFFCURVE",
"469 -63 CURVE SMOOTH",
"469 -24 OFFCURVE",
"509 0 OFFCURVE",
"534 0 CURVE SMOOTH",
"560 0 LINE",
"586 165 LINE",
"274 165 LINE"
);
}
);
};
components = (
{
name = E;
},
{
name = ogonekcomb;
transform = "{1, 0, 0, 1, 250, 0}";
}
);
layerId = "7E8CE273-6C2A-436A-BEF2-D90EC4D0BD66";
width = 608;
},
{
anchors = (
{
name = top;
position = "{344, 705}";
}
);
associatedMasterId = "2567DF27-EA2D-46C8-A1A0-FA57AF1B0F16";
components = (
{
name = E;
},
{
name = ogonekcomb;
transform = "{1, 0, 0, 1, 272, 0}";
}
);
layerId = "B8FA56BD-7EDE-4576-AB47-8A7B7BD1DCF7";
width = 606.94798;
}
);
leftKerningGroup = H;
rightKerningGroup = E;
unicode = 0118;
userData = {
com.typemytype.robofont.layerData = {
b = {
anchors = (
);
components = (
);
contours = (
);
lib = {
};
name = Eogonek;
unicodes = (
);
width = 1234;
};
};
};
},
{
color = 4;
glyphname = F;
lastChange = "2019-11-14 11:52:21 +0000";
layers = (
{
anchors = (
{
name = bottom;
position = "{300, 0}";
},
{
name = top;
position = "{300, 705}";
}
);
background = {
anchors = (
{
name = bottom;
position = "{308, 0}";
},
{
name = top;
position = "{288, 712}";
}
);
paths = (
{
closed = 1;
nodes = (
"138 0 LINE",
"138 342 LINE",
"495 342 LINE",
"495 381 LINE",
"138 381 LINE",
"138 673 LINE",
"515 673 LINE",
"515 712 LINE",
"97 712 LINE",
"97 0 LINE"
);
}
);
};
layerId = "2567DF27-EA2D-46C8-A1A0-FA57AF1B0F16";
paths = (
{
closed = 1;
nodes = (
"139 0 LINE",
"139 338 LINE",
"494 338 LINE",
"494 377 LINE",
"139 377 LINE",
"139 666 LINE",
"515 666 LINE",
"515 705 LINE",
"97 705 LINE",
"97 0 LINE"
);
}
);
width = 554;
},
{
anchors = (
{
name = bottom;
position = "{313, 0}";
},
{
name = top;
position = "{319, 705}";
}
);
background = {
anchors = (
{
name = bottom;
position = "{324, 0}";
},
{
name = top;
position = "{292, 712}";
}
);
paths = (
{
closed = 1;
nodes = (
"271 0 LINE",
"271 279 LINE",
"550 279 LINE",
"550 446 LINE",
"271 446 LINE",
"271 544 LINE",
"570 544 LINE",
"570 712 LINE",
"58 712 LINE",
"58 0 LINE"
);
}
);
};
layerId = "FFBF88B9-CE65-4AF8-A771-12A489880E49";
paths = (
{
closed = 1;
nodes = (
"274 0 LINE",
"274 267 LINE",
"546 267 LINE",
"546 431 LINE",
"274 431 LINE",
"274 541 LINE",
"570 541 LINE",
"570 705 LINE",
"58 705 LINE",
"58 0 LINE"
);
}
);
width = 590;
},
{
anchors = (
{
name = bottom;
position = "{260, 0}";
},
{
name = top;
position = "{372, 705}";
}
);
background = {
anchors = (
{
name = bottom;
position = "{290, 0}";
},
{
name = top;
position = "{381, 712}";
}
);
paths = (
{
closed = 1;
nodes = (
"162 342 LINE",
"531 342 LINE",
"537 381 LINE",
"169 381 LINE"
);
},
{
closed = 1;
nodes = (
"227 673 LINE",
"603 673 LINE",
"609 712 LINE",
"190 712 LINE",
"79 0 LINE",
"121 0 LINE"
);
}
);
};
layerId = "5EBC8607-93CF-4E15-8CE6-F0DFD39C8AE8";
paths = (
{
closed = 1;
nodes = (
"99 0 LINE",
"153 338 LINE",
"510 338 LINE",
"516 377 LINE",
"159 377 LINE",
"205 666 LINE",
"583 666 LINE",
"589 705 LINE",
"169 705 LINE",
"57 0 LINE"
);
}
);
width = 554;
},
{
anchors = (
{
name = bottom;
position = "{265, 0}";
},
{
name = top;
position = "{382, 705}";
}
);
background = {
anchors = (
{
name = bottom;
position = "{303, 0}";
},
{
name = top;
position = "{383, 712}";
}
);
paths = (
{
closed = 1;
nodes = (
"276 279 LINE",
"573 279 LINE",
"599 446 LINE",
"302 446 LINE"
);
},
{
closed = 1;
nodes = (
"337 544 LINE",
"635 544 LINE",
"661 712 LINE",
"150 712 LINE",
"38 0 LINE",
"250 0 LINE"
);
}
);
};
layerId = "7E8CE273-6C2A-436A-BEF2-D90EC4D0BD66";
paths = (
{
closed = 1;
nodes = (
"233 0 LINE",
"275 267 LINE",
"546 267 LINE",
"572 431 LINE",
"301 431 LINE",
"318 541 LINE",
"612 541 LINE",
"638 705 LINE",
"129 705 LINE",
"18 0 LINE"
);
}
);
width = 590;
},
{
anchors = (
{
name = bottom;
position = "{312, 0}";
},
{
name = top;
position = "{318, 705}";
}
);
associatedMasterId = "2567DF27-EA2D-46C8-A1A0-FA57AF1B0F16";
layerId = "B8FA56BD-7EDE-4576-AB47-8A7B7BD1DCF7";
paths = (
{
closed = 1;
nodes = (
"269 0 LINE",
"269 270 LINE",
"544 270 LINE",
"544 429 LINE",
"269 429 LINE",
"269 546 LINE",
"568 546 LINE",
"568 705 LINE",
"60 705 LINE",
"60 0 LINE"
);
}
);
width = 588.54335;
}
);
leftKerningGroup = H;
rightKerningGroup = F;
unicode = 0046;
userData = {
anchors = (
);
b = {
};
com.typemytype.robofont.layerData = {
b = {
anchors = (
);
components = (
);
contours = (
{
points = (
{
segmentType = curve;
smooth = 1;
x = 266;
y = 0;
},
{
segmentType = line;
smooth = 1;
x = 1035;
y = 0;
},
{
smooth = 0;
x = 1084;
y = 0;
},
{
smooth = 0;
x = 1108;
y = 34;
},
{
segmentType = curve;
smooth = 1;
x = 1108;
y = 71;
},
{
smooth = 0;
x = 1108;
y = 107;
},
{
smooth = 0;
x = 1084;
y = 141;
},
{
segmentType = curve;
smooth = 1;
x = 1035;
y = 141;
},
{
segmentType = line;
smooth = 0;
x = 353;
y = 141;
},
{
segmentType = line;
smooth = 0;
x = 353;
y = 665;
},
{
segmentType = line;
smooth = 1;
x = 975;
y = 665;
},
{
smooth = 0;
x = 1024;
y = 665;
},
{
smooth = 0;
x = 1049;
y = 698;
},
{
segmentType = curve;
smooth = 1;
x = 1049;
y = 734;
},
{
smooth = 0;
x = 1049;
y = 770;
},
{
smooth = 0;
x = 1026;
y = 803;
},
{
segmentType = curve;
smooth = 1;
x = 975;
y = 803;
},
{
segmentType = line;
smooth = 0;
x = 353;
y = 803;
},
{
segmentType = line;
smooth = 0;
x = 353;
y = 1285;
},
{
segmentType = line;
smooth = 1;
x = 1007;
y = 1285;
},
{
smooth = 0;
x = 1056;
y = 1285;
},
{
smooth = 0;
x = 1080;
y = 1319;
},
{
segmentType = curve;
smooth = 1;
x = 1080;
y = 1356;
},
{
smooth = 0;
x = 1080;
y = 1392;
},
{
smooth = 0;
x = 1056;
y = 1426;
},
{
segmentType = curve;
smooth = 1;
x = 1007;
y = 1426;
},
{
segmentType = line;
smooth = 1;
x = 261;
y = 1426;
},
{
smooth = 0;
x = 213;
y = 1426;
},
{
smooth = 0;
x = 178;
y = 1383;
},
{
segmentType = curve;
smooth = 1;
x = 178;
y = 1340;
},
{
segmentType = line;
smooth = 1;
x = 178;
y = 86;
},
{
smooth = 0;
x = 178;
y = 41;
},
{
smooth = 0;
x = 222;
y = 0;
}
);
}
);
lib = {
};
name = F;
unicodes = (
);
width = 1142;
};
};
components = (
);
contours = (
);
lib = {
};
name = F;
unicodes = (
);
width = 1175;
};
},
{
color = 4;
glyphname = G;
lastChange = "2019-11-14 11:52:21 +0000";
layers = (
{
anchors = (
{
name = bottom;
position = "{406, 0}";
},
{
name = top;
position = "{391, 705}";
}
);
background = {
anchors = (
{
name = bottom;
position = "{394, 0}";
},
{
name = top;
position = "{387, 712}";
}
);
paths = (
{
closed = 1;
nodes = (
"486 -8 OFFCURVE",
"585 12 OFFCURVE",
"634 40 CURVE",
"634 359 LINE",
"398 359 LINE",
"398 318 LINE",
"595 318 LINE",
"595 35 LINE",
"606 74 LINE",
"552 49 OFFCURVE",
"474 32 OFFCURVE",
"394 32 CURVE SMOOTH",
"213 32 OFFCURVE",
"112 148 OFFCURVE",
"112 357 CURVE SMOOTH",
"112 562 OFFCURVE",
"213 679 OFFCURVE",
"387 679 CURVE SMOOTH",
"473 679 OFFCURVE",
"538 653 OFFCURVE",
"608 589 CURVE",
"629 624 LINE",
"568 689 OFFCURVE",
"486 720 OFFCURVE",
"390 720 CURVE SMOOTH",
"190 720 OFFCURVE",
"68 587 OFFCURVE",
"68 357 CURVE SMOOTH",
"68 127 OFFCURVE",
"189 -8 OFFCURVE",
"394 -8 CURVE SMOOTH"
);
}
);
};
layerId = "2567DF27-EA2D-46C8-A1A0-FA57AF1B0F16";
paths = (
{
closed = 1;
nodes = (
"490 -8 OFFCURVE",
"583 13 OFFCURVE",
"634 41 CURVE",
"634 357 LINE",
"400 357 LINE",
"400 318 LINE",
"594 318 LINE",
"594 38 LINE",
"606 74 LINE",
"547 47 OFFCURVE",
"482 33 OFFCURVE",
"406 33 CURVE SMOOTH",
"206 33 OFFCURVE",
"113 145 OFFCURVE",
"113 352 CURVE SMOOTH",
"113 555 OFFCURVE",
"213 672 OFFCURVE",
"391 672 CURVE SMOOTH",
"484 672 OFFCURVE",
"537 645 OFFCURVE",
"604 582 CURVE",
"626 617 LINE",
"565 680 OFFCURVE",
"495 713 OFFCURVE",
"392 713 CURVE SMOOTH",
"188 713 OFFCURVE",
"68 576 OFFCURVE",
"68 353 CURVE SMOOTH",
"68 124 OFFCURVE",
"181 -8 OFFCURVE",
"406 -8 CURVE SMOOTH"
);
}
);
width = 723;
},
{
anchors = (
{
name = bottom;
position = "{435, 0}";
},
{
name = top;
position = "{428, 705}";
}
);
background = {
anchors = (
{
name = bottom;
position = "{430, 0}";
},
{
name = top;
position = "{423, 712}";
}
);
paths = (
{
closed = 1;
nodes = (
"529 -9 OFFCURVE",
"627 9 OFFCURVE",
"708 46 CURVE",
"708 411 LINE",
"404 411 LINE",
"404 266 LINE",
"514 266 LINE",
"514 113 LINE",
"561 169 LINE",
"515 157 OFFCURVE",
"475 153 OFFCURVE",
"440 153 CURVE SMOOTH",
"316 153 OFFCURVE",
"259 216 OFFCURVE",
"259 357 CURVE SMOOTH",
"259 493 OFFCURVE",
"313 553 OFFCURVE",
"430 553 CURVE SMOOTH",
"496 553 OFFCURVE",
"551 537 OFFCURVE",
"616 498 CURVE",
"682 650 LINE",
"626 693 OFFCURVE",
"526 721 OFFCURVE",
"422 721 CURVE SMOOTH",
"191 721 OFFCURVE",
"41 579 OFFCURVE",
"41 357 CURVE SMOOTH",
"41 128 OFFCURVE",
"190 -9 OFFCURVE",
"430 -9 CURVE SMOOTH"
);
}
);
};
layerId = "FFBF88B9-CE65-4AF8-A771-12A489880E49";
paths = (
{
closed = 1;
nodes = (
"528 -12 OFFCURVE",
"627 7 OFFCURVE",
"708 45 CURVE",
"708 406 LINE",
"398 406 LINE",
"398 258 LINE",
"533 258 LINE",
"533 115 LINE",
"570 187 LINE",
"522 174 OFFCURVE",
"476 167 OFFCURVE",
"441 167 CURVE SMOOTH",
"320 167 OFFCURVE",
"267 228 OFFCURVE",
"267 348 CURVE SMOOTH",
"267 470 OFFCURVE",
"327 534 OFFCURVE",
"458 534 CURVE SMOOTH",
"528 534 OFFCURVE",
"568 524 OFFCURVE",
"631 488 CURVE",
"695 653 LINE",
"639 694 OFFCURVE",
"557 717 OFFCURVE",
"456 717 CURVE SMOOTH",
"196 717 OFFCURVE",
"41 572 OFFCURVE",
"41 348 CURVE SMOOTH",
"41 135 OFFCURVE",
"176 -12 OFFCURVE",
"429 -12 CURVE SMOOTH"
);
}
);
width = 756;
},
{
anchors = (
{
name = bottom;
position = "{383, 0}";
},
{
name = top;
position = "{444, 705}";
}
);
background = {
anchors = (
{
name = bottom;
position = "{377, 0}";
},
{
name = top;
position = "{481, 712}";
}
);
paths = (
{
closed = 1;
nodes = (
"466 -8 OFFCURVE",
"564 12 OFFCURVE",
"622 39 CURVE",
"671 359 LINE",
"435 359 LINE",
"429 318 LINE",
"626 318 LINE",
"582 35 LINE",
"600 74 LINE",
"541 49 OFFCURVE",
"460 32 OFFCURVE",
"391 32 CURVE SMOOTH",
"225 32 OFFCURVE",
"143 122 OFFCURVE",
"143 277 CURVE SMOOTH",
"143 518 OFFCURVE",
"276 679 OFFCURVE",
"473 679 CURVE SMOOTH",
"560 679 OFFCURVE",
"620 650 OFFCURVE",
"682 589 CURVE",
"710 624 LINE",
"651 689 OFFCURVE",
"573 719 OFFCURVE",
"476 719 CURVE SMOOTH",
"254 719 OFFCURVE",
"99 535 OFFCURVE",
"99 272 CURVE SMOOTH",
"99 96 OFFCURVE",
"198 -8 OFFCURVE",
"391 -8 CURVE SMOOTH"
);
}
);
};
layerId = "5EBC8607-93CF-4E15-8CE6-F0DFD39C8AE8";
paths = (
{
closed = 1;
nodes = (
"477 -8 OFFCURVE",
"551 10 OFFCURVE",
"601 33 CURVE",
"652 355 LINE",
"423 355 LINE",
"417 316 LINE",
"606 316 LINE",
"561 38 LINE",
"579 69 LINE",
"524 48 OFFCURVE",
"475 33 OFFCURVE",
"397 33 CURVE SMOOTH",
"219 33 OFFCURVE",
"127 116 OFFCURVE",
"127 288 CURVE SMOOTH",
"127 525 OFFCURVE",
"248 672 OFFCURVE",
"440 672 CURVE SMOOTH",
"534 672 OFFCURVE",
"600 643 OFFCURVE",
"659 582 CURVE",
"685 617 LINE",
"629 677 OFFCURVE",
"546 713 OFFCURVE",
"443 713 CURVE SMOOTH",
"222 713 OFFCURVE",
"82 545 OFFCURVE",
"82 289 CURVE SMOOTH",
"82 96 OFFCURVE",
"194 -8 OFFCURVE",
"394 -8 CURVE SMOOTH"
);
}
);
width = 723;
},
{
anchors = (
{
name = bottom;
position = "{405, 0}";
},
{
name = top;
position = "{458, 705}";
}
);
background = {
anchors = (
{
name = bottom;
position = "{408, 0}";
},
{
name = top;
position = "{512, 712}";
}
);
paths = (
{
closed = 1;
nodes = (
"516 -9 OFFCURVE",
"615 10 OFFCURVE",
"695 49 CURVE",
"751 411 LINE",
"447 411 LINE",
"424 266 LINE",
"535 266 LINE",
"511 113 LINE",
"566 174 LINE",
"518 159 OFFCURVE",
"483 153 OFFCURVE",
"448 153 CURVE SMOOTH",
"339 153 OFFCURVE",
"290 211 OFFCURVE",
"290 311 CURVE SMOOTH",
"290 459 OFFCURVE",
"367 549 OFFCURVE",
"489 553 CURVE SMOOTH",
"571 556 OFFCURVE",
"620 535 OFFCURVE",
"672 495 CURVE",
"760 647 LINE",
"699 695 OFFCURVE",
"613 722 OFFCURVE",
"499 722 CURVE SMOOTH",
"246 722 OFFCURVE",
"73 552 OFFCURVE",
"73 304 CURVE SMOOTH",
"73 111 OFFCURVE",
"198 -9 OFFCURVE",
"402 -9 CURVE SMOOTH"
);
}
);
};
layerId = "7E8CE273-6C2A-436A-BEF2-D90EC4D0BD66";
paths = (
{
closed = 1;
nodes = (
"497 -12 OFFCURVE",
"594 1 OFFCURVE",
"674 39 CURVE",
"732 406 LINE",
"428 406 LINE",
"405 258 LINE",
"535 258 LINE",
"511 110 LINE",
"558 185 LINE",
"517 173 OFFCURVE",
"478 167 OFFCURVE",
"447 167 CURVE SMOOTH",
"347 167 OFFCURVE",
"279 216 OFFCURVE",
"279 326 CURVE SMOOTH",
"279 429 OFFCURVE",
"347 534 OFFCURVE",
"478 534 CURVE SMOOTH",
"539 534 OFFCURVE",
"600 516 OFFCURVE",
"654 483 CURVE",
"732 650 LINE",
"690 685 OFFCURVE",
"598 717 OFFCURVE",
"488 717 CURVE SMOOTH",
"209 717 OFFCURVE",
"57 539 OFFCURVE",
"57 317 CURVE SMOOTH",
"57 103 OFFCURVE",
"215 -12 OFFCURVE",
"414 -12 CURVE SMOOTH"
);
}
);
width = 756;
},
{
anchors = (
{
name = bottom;
position = "{434, 0}";
},
{
name = top;
position = "{427, 705}";
}
);
associatedMasterId = "2567DF27-EA2D-46C8-A1A0-FA57AF1B0F16";
layerId = "B8FA56BD-7EDE-4576-AB47-8A7B7BD1DCF7";
paths = (
{
closed = 1;
nodes = (
"526 -12 OFFCURVE",
"625 7 OFFCURVE",
"705 45 CURVE",
"705 404 LINE",
"398 404 LINE",
"398 260 LINE",
"535 260 LINE",
"535 112 LINE",
"571 182 LINE",
"523 169 OFFCURVE",
"476 162 OFFCURVE",
"440 162 CURVE SMOOTH",
"315 162 OFFCURVE",
"261 225 OFFCURVE",
"261 348 CURVE SMOOTH",
"261 473 OFFCURVE",
"322 540 OFFCURVE",
"455 540 CURVE SMOOTH",
"526 540 OFFCURVE",
"567 529 OFFCURVE",
"630 492 CURVE",
"692 652 LINE",
"636 693 OFFCURVE",
"554 717 OFFCURVE",
"453 717 CURVE SMOOTH",
"196 717 OFFCURVE",
"42 572 OFFCURVE",
"42 348 CURVE SMOOTH",
"42 135 OFFCURVE",
"176 -12 OFFCURVE",
"428 -12 CURVE SMOOTH"
);
}
);
width = 754.66474;
}
);
leftKerningGroup = O;
rightKerningGroup = G;
unicode = 0047;
userData = {
anchors = (
);
b = {
};
com.typemytype.robofont.layerData = {
b = {
anchors = (
);
components = (
);
contours = (
{
points = (
{
segmentType = curve;
smooth = 1;
x = 783;
y = "-22";
},
{
smooth = 0;
x = 965;
y = "-22";
},
{
smooth = 0;
x = 1086;
y = 34;
},
{
segmentType = curve;
smooth = 1;
x = 1166;
y = 86;
},
{
smooth = 0;
x = 1270;
y = 154;
},
{
smooth = 0;
x = 1186;
y = 258;
},
{
segmentType = curve;
smooth = 1;
x = 1112;
y = 214;
},
{
smooth = 0;
x = 1024;
y = 162;
},
{
smooth = 0;
x = 939;
y = 120;
},
{
segmentType = curve;
smooth = 1;
x = 806;
y = 120;
},
{
smooth = 0;
x = 446;
y = 120;
},
{
smooth = 0;
x = 316;
y = 406;
},
{
segmentType = curve;
smooth = 1;
x = 316;
y = 706;
},
{
smooth = 0;
x = 316;
y = 1005;
},
{
smooth = 0;
x = 450;
y = 1296;
},
{
segmentType = curve;
smooth = 1;
x = 801;
y = 1296;
},
{
smooth = 0;
x = 980;
y = 1296;
},
{
smooth = 0;
x = 1053;
y = 1246;
},
{
segmentType = curve;
smooth = 1;
x = 1094;
y = 1225;
},
{
smooth = 0;
x = 1174;
y = 1184;
},
{
smooth = 0;
x = 1231;
y = 1300;
},
{
segmentType = curve;
smooth = 1;
x = 1156;
y = 1343;
},
{
smooth = 0;
x = 1106;
y = 1372;
},
{
smooth = 0;
x = 995;
y = 1438;
},
{
segmentType = curve;
smooth = 1;
x = 797;
y = 1438;
},
{
smooth = 0;
x = 359;
y = 1438;
},
{
smooth = 0;
x = 128;
y = 1093;
},
{
segmentType = curve;
smooth = 1;
x = 128;
y = 704;
},
{
smooth = 0;
x = 128;
y = 307;
},
{
smooth = 0;
x = 350;
y = "-22";
}
);
}
);
lib = {
};
name = G;
unicodes = (
);
width = 1448;
};
};
components = (
);
contours = (
);
lib = {
};
name = G;
unicodes = (
);
width = 1538;
};
},
{
color = 4;
glyphname = H;
lastChange = "2019-11-14 11:52:21 +0000";
layers = (
{
anchors = (
{
name = bottom;
position = "{380, 0}";
},
{
name = center;
position = "{380, 546}";
},
{
name = top;
position = "{380, 705}";
},
{
name = topleft;
position = "{25, 705}";
}
);
background = {
anchors = (
{
name = bottom;
position = "{380, 0}";
},
{
name = center;
position = "{380, 362}";
},
{
name = top;
position = "{379, 712}";
},
{
name = topleft;
position = "{27, 712}";
}
);
paths = (
{
closed = 1;
nodes = (
"661.991 0 LINE",
"661.991 712 LINE",
"619 712 LINE",
"619 0 LINE"
);
},
{
closed = 1;
nodes = (
"139 0 LINE",
"139 712 LINE",
"97 712 LINE",
"97 0 LINE"
);
},
{
closed = 1;
nodes = (
"618 342 LINE",
"618 381 LINE",
"129 381 LINE",
"129 342 LINE"
);
}
);
};
layerId = "2567DF27-EA2D-46C8-A1A0-FA57AF1B0F16";
paths = (
{
closed = 1;
nodes = (
"139 0 LINE",
"139 338 LINE",
"620 338 LINE",
"620 0 LINE",
"662 0 LINE",
"662 705 LINE",
"620 705 LINE",
"620 377 LINE",
"139 377 LINE",
"139 705 LINE",
"97 705 LINE",
"97 0 LINE"
);
}
);
width = 759;
},
{
anchors = (
{
name = bottom;
position = "{395, 0}";
},
{
name = center;
position = "{395, 575}";
},
{
name = top;
position = "{395, 705}";
},
{
name = topleft;
position = "{17, 705}";
}
);
background = {
anchors = (
{
name = bottom;
position = "{394, 0}";
},
{
name = center;
position = "{394, 362}";
},
{
name = top;
position = "{395, 712}";
},
{
name = topleft;
position = "{19, 712}";
}
);
paths = (
{
closed = 1;
nodes = (
"731 0 LINE",
"731 712 LINE",
"519 712 LINE",
"519 0 LINE"
);
},
{
closed = 1;
nodes = (
"269 0 LINE",
"269 712 LINE",
"58 712 LINE",
"58 0 LINE"
);
},
{
closed = 1;
nodes = (
"658 277 LINE",
"658 446 LINE",
"118 446 LINE",
"118 277 LINE"
);
}
);
};
layerId = "FFBF88B9-CE65-4AF8-A771-12A489880E49";
paths = (
{
closed = 1;
nodes = (
"274 0 LINE",
"274 269 LINE",
"515 269 LINE",
"515 0 LINE",
"731 0 LINE",
"731 705 LINE",
"515 705 LINE",
"515 445 LINE",
"274 445 LINE",
"274 705 LINE",
"58 705 LINE",
"58 0 LINE"
);
}
);
width = 789;
},
{
anchors = (
{
name = bottom;
position = "{350, 0}";
},
{
name = center;
position = "{432, 546}";
},
{
name = top;
position = "{456, 705}";
},
{
name = topleft;
position = "{96, 705}";
}
);
background = {
anchors = (
{
name = bottom;
position = "{362, 0}";
},
{
name = center;
position = "{418, 362}";
},
{
name = top;
position = "{472, 712}";
},
{
name = topleft;
position = "{121, 712}";
}
);
paths = (
{
closed = 1;
nodes = (
"643 0 LINE",
"755 712 LINE",
"712 712 LINE",
"601 0 LINE"
);
},
{
closed = 1;
nodes = (
"121 0 LINE",
"233 712 LINE",
"190 712 LINE",
"79 0 LINE"
);
},
{
closed = 1;
nodes = (
"654 342 LINE",
"660 381 LINE",
"171 381 LINE",
"164 342 LINE"
);
}
);
};
layerId = "5EBC8607-93CF-4E15-8CE6-F0DFD39C8AE8";
paths = (
{
closed = 1;
nodes = (
"99 0 LINE",
"153 338 LINE",
"634 338 LINE",
"580 0 LINE",
"622 0 LINE",
"734 705 LINE",
"692 705 LINE",
"640 377 LINE",
"159 377 LINE",
"211 705 LINE",
"169 705 LINE",
"57 0 LINE"
);
}
);
width = 759;
},
{
anchors = (
{
name = bottom;
position = "{361, 0}";
},
{
name = center;
position = "{446, 575}";
},
{
name = top;
position = "{464, 705}";
},
{
name = topleft;
position = "{91, 705}";
}
);
background = {
anchors = (
{
name = bottom;
position = "{375, 0}";
},
{
name = center;
position = "{431, 362}";
},
{
name = top;
position = "{486, 712}";
},
{
name = topleft;
position = "{111, 712}";
}
);
paths = (
{
closed = 1;
nodes = (
"711 0 LINE",
"823 712 LINE",
"612 712 LINE",
"498 0 LINE"
);
},
{
closed = 1;
nodes = (
"250 0 LINE",
"363 712 LINE",
"151 712 LINE",
"39 0 LINE"
);
},
{
closed = 1;
nodes = (
"682 277 LINE",
"710 446 LINE",
"168 446 LINE",
"142 277 LINE"
);
}
);
};
guideLines = (
{
position = "{470, 705}";
}
);
layerId = "7E8CE273-6C2A-436A-BEF2-D90EC4D0BD66";
paths = (
{
closed = 1;
nodes = (
"233 0 LINE",
"276 269 LINE",
"518 269 LINE",
"475 0 LINE",
"690 0 LINE",
"802 705 LINE",
"587 705 LINE",
"546 445 LINE",
"304 445 LINE",
"345 705 LINE",
"130 705 LINE",
"18 0 LINE"
);
}
);
width = 789;
},
{
anchors = (
{
name = bottom;
position = "{394, 0}";
},
{
name = center;
position = "{394, 574}";
},
{
name = top;
position = "{394, 705}";
},
{
name = topleft;
position = "{17, 705}";
}
);
associatedMasterId = "2567DF27-EA2D-46C8-A1A0-FA57AF1B0F16";
layerId = "B8FA56BD-7EDE-4576-AB47-8A7B7BD1DCF7";
paths = (
{
closed = 1;
nodes = (
"269 0 LINE",
"269 272 LINE",
"519 272 LINE",
"519 0 LINE",
"728 0 LINE",
"728 705 LINE",
"519 705 LINE",
"519 442 LINE",
"269 442 LINE",
"269 705 LINE",
"60 705 LINE",
"60 0 LINE"
);
}
);
width = 787.78613;
}
);
leftKerningGroup = H;
rightKerningGroup = H;
unicode = 0048;
userData = {
anchors = (
);
b = {
};
com.typemytype.robofont.layerData = {
b = {
anchors = (
);
components = (
);
contours = (
);
lib = {
};
name = H;
unicodes = (
);
width = 1464;
};
};
components = (
);
contours = (
);
lib = {
};
name = H;
unicodes = (
);
width = 1524;
};
},
{
color = 4;
glyphname = Hbar;
lastChange = "2019-11-14 11:52:21 +0000";
layers = (
{
background = {
paths = (
{
closed = 1;
nodes = (
"763 532 LINE",
"763 571 LINE",
"4 571 LINE",
"4 532 LINE"
);
},
{
closed = 1;
nodes = (
"666 0 LINE",
"666 712 LINE",
"623 712 LINE",
"623 0 LINE"
);
},
{
closed = 1;
nodes = (
"144 0 LINE",
"144 712 LINE",
"101 712 LINE",
"101 0 LINE"
);
},
{
closed = 1;
nodes = (
"623 342 LINE",
"623 381 LINE",
"134 381 LINE",
"134 342 LINE"
);
}
);
};
layerId = "2567DF27-EA2D-46C8-A1A0-FA57AF1B0F16";
paths = (
{
closed = 1;
nodes = (
"144 0 LINE",
"144 338 LINE",
"623 338 LINE",
"623 0 LINE",
"665 0 LINE",
"665 527 LINE",
"763 527 LINE",
"763 565 LINE",
"665 565 LINE",
"665 705 LINE",
"623 705 LINE",
"623 565 LINE",
"144 565 LINE",
"144 705 LINE",
"102 705 LINE",
"102 565 LINE",
"4 565 LINE",
"4 527 LINE",
"102 527 LINE",
"102 0 LINE"
);
},
{
closed = 1;
nodes = (
"144 527 LINE",
"623 527 LINE",
"623 377 LINE",
"144 377 LINE"
);
}
);
width = 767;
},
{
background = {
paths = (
{
closed = 1;
nodes = (
"855 503 LINE",
"855 658 LINE",
"20 658 LINE",
"20 503 LINE"
);
},
{
closed = 1;
nodes = (
"774 0 LINE",
"774 712 LINE",
"564 712 LINE",
"564 0 LINE"
);
},
{
closed = 1;
nodes = (
"313 0 LINE",
"313 712 LINE",
"101 712 LINE",
"101 0 LINE"
);
},
{
closed = 1;
nodes = (
"702 277 LINE",
"702 446 LINE",
"161 446 LINE",
"161 277 LINE"
);
}
);
};
layerId = "FFBF88B9-CE65-4AF8-A771-12A489880E49";
paths = (
{
closed = 1;
nodes = (
"317 0 LINE",
"317 246 LINE",
"558 246 LINE",
"558 0 LINE",
"774 0 LINE",
"774 495 LINE",
"850 495 LINE",
"850 644 LINE",
"774 644 LINE",
"774 705 LINE",
"558 705 LINE",
"558 644 LINE",
"317 644 LINE",
"317 705 LINE",
"101 705 LINE",
"101 644 LINE",
"25 644 LINE",
"25 495 LINE",
"101 495 LINE",
"101 0 LINE"
);
},
{
closed = 1;
nodes = (
"317 495 LINE",
"558 495 LINE",
"558 422 LINE",
"317 422 LINE"
);
}
);
width = 875;
},
{
background = {
paths = (
{
closed = 1;
nodes = (
"827 532 LINE",
"834 571 LINE",
"74 571 LINE",
"68 532 LINE"
);
},
{
closed = 1;
nodes = (
"644 0 LINE",
"756 712 LINE",
"713 712 LINE",
"602 0 LINE"
);
},
{
closed = 1;
nodes = (
"121 0 LINE",
"233 712 LINE",
"191 712 LINE",
"80 0 LINE"
);
},
{
closed = 1;
nodes = (
"655 342 LINE",
"662 381 LINE",
"172 381 LINE",
"166 342 LINE"
);
}
);
};
layerId = "5EBC8607-93CF-4E15-8CE6-F0DFD39C8AE8";
paths = (
{
closed = 1;
nodes = (
"103 0 LINE",
"157 338 LINE",
"638 338 LINE",
"584 0 LINE",
"626 0 LINE",
"710 527 LINE",
"807 527 LINE",
"813 565 LINE",
"716 565 LINE",
"738 705 LINE",
"696 705 LINE",
"674 565 LINE",
"193 565 LINE",
"215 705 LINE",
"173 705 LINE",
"151 565 LINE",
"54 565 LINE",
"48 527 LINE",
"145 527 LINE",
"61 0 LINE"
);
},
{
closed = 1;
nodes = (
"187 527 LINE",
"668 527 LINE",
"644 377 LINE",
"163 377 LINE"
);
}
);
width = 767;
},
{
background = {
paths = (
{
closed = 1;
nodes = (
"926 503 LINE",
"949 658 LINE",
"114 658 LINE",
"90 503 LINE"
);
},
{
closed = 1;
nodes = (
"793 0 LINE",
"906 712 LINE",
"694 712 LINE",
"582 0 LINE"
);
},
{
closed = 1;
nodes = (
"333 0 LINE",
"445 712 LINE",
"234 712 LINE",
"120 0 LINE"
);
},
{
closed = 1;
nodes = (
"765 277 LINE",
"792 446 LINE",
"251 446 LINE",
"224 277 LINE"
);
}
);
};
layerId = "7E8CE273-6C2A-436A-BEF2-D90EC4D0BD66";
paths = (
{
closed = 1;
nodes = (
"275 0 LINE",
"315 249 LINE",
"557 249 LINE",
"517 0 LINE",
"732 0 LINE",
"811 495 LINE",
"885 495 LINE",
"909 645 LINE",
"835 645 LINE",
"844 705 LINE",
"629 705 LINE",
"620 645 LINE",
"378 645 LINE",
"387 705 LINE",
"172 705 LINE",
"163 645 LINE",
"89 645 LINE",
"65 495 LINE",
"139 495 LINE",
"60 0 LINE"
);
},
{
closed = 1;
nodes = (
"354 495 LINE",
"596 495 LINE",
"585 425 LINE",
"343 425 LINE"
);
}
);
width = 875;
},
{
associatedMasterId = "2567DF27-EA2D-46C8-A1A0-FA57AF1B0F16";
layerId = "B8FA56BD-7EDE-4576-AB47-8A7B7BD1DCF7";
paths = (
{
closed = 1;
nodes = (
"310 0 LINE",
"310 250 LINE",
"561 250 LINE",
"561 0 LINE",
"770 0 LINE",
"770 496 LINE",
"846 496 LINE",
"846 641 LINE",
"770 641 LINE",
"770 705 LINE",
"561 705 LINE",
"561 641 LINE",
"310 641 LINE",
"310 705 LINE",
"101 705 LINE",
"101 641 LINE",
"24 641 LINE",
"24 496 LINE",
"101 496 LINE",
"101 0 LINE"
);
},
{
closed = 1;
nodes = (
"310 496 LINE",
"561 496 LINE",
"561 420 LINE",
"310 420 LINE"
);
}
);
width = 870.63006;
}
);
leftKerningGroup = H;
rightKerningGroup = H;
unicode = 0126;
userData = {
com.typemytype.robofont.layerData = {
b = {
anchors = (
);
components = (
);
contours = (
);
lib = {
};
name = Hbar;
unicodes = (
);
width = 1464;
};
};
};
},
{
color = 4;
glyphname = I;
lastChange = "2019-11-14 11:52:21 +0000";
layers = (
{
anchors = (
{
name = bottom;
position = "{118, 0}";
},
{
name = ogonek;
position = "{139, 0}";
},
{
name = top;
position = "{118, 705}";
},
{
name = topleft;
position = "{26, 705}";
}
);
background = {
anchors = (
{
name = bottom;
position = "{118, 0}";
},
{
name = ogonek;
position = "{138, 10}";
},
{
name = top;
position = "{118, 712}";
},
{
name = topleft;
position = "{27, 712}";
}
);
paths = (
{
closed = 1;
nodes = (
"138 0 LINE",
"138 712 LINE",
"97 712 LINE",
"97 0 LINE"
);
}
);
};
layerId = "2567DF27-EA2D-46C8-A1A0-FA57AF1B0F16";
paths = (
{
closed = 1;
nodes = (
"139 0 LINE",
"139 705 LINE",
"97 705 LINE",
"97 0 LINE"
);
}
);
width = 236;
},
{
anchors = (
{
name = bottom;
position = "{166, 0}";
},
{
name = ogonek;
position = "{219, 0}";
},
{
name = top;
position = "{166, 705}";
},
{
name = topleft;
position = "{17, 705}";
}
);
background = {
anchors = (
{
name = bottom;
position = "{164, 0}";
},
{
name = ogonek;
position = "{230, 10}";
},
{
name = top;
position = "{164, 712}";
},
{
name = topleft;
position = "{19, 712}";
}
);
paths = (
{
closed = 1;
nodes = (
"274 0 LINE",
"274 712 LINE",
"58 712 LINE",
"58 0 LINE"
);
}
);
};
layerId = "FFBF88B9-CE65-4AF8-A771-12A489880E49";
paths = (
{
closed = 1;
nodes = (
"274 0 LINE",
"274 705 LINE",
"58 705 LINE",
"58 0 LINE"
);
}
);
width = 332;
},
{
anchors = (
{
name = bottom;
position = "{78, 0}";
},
{
name = ogonek;
position = "{99, 0}";
},
{
name = top;
position = "{190, 705}";
},
{
name = topleft;
position = "{98, 705}";
}
);
background = {
anchors = (
{
name = bottom;
position = "{100, 0}";
},
{
name = ogonek;
position = "{122, 10}";
},
{
name = top;
position = "{212, 712}";
},
{
name = topleft;
position = "{121, 712}";
}
);
paths = (
{
closed = 1;
nodes = (
"120 0 LINE",
"232 712 LINE",
"190 712 LINE",
"79 0 LINE"
);
}
);
};
layerId = "5EBC8607-93CF-4E15-8CE6-F0DFD39C8AE8";
paths = (
{
closed = 1;
nodes = (
"99 0 LINE",
"211 705 LINE",
"169 705 LINE",
"57 0 LINE"
);
}
);
width = 236;
},
{
anchors = (
{
name = bottom;
position = "{125, 0}";
},
{
name = ogonek;
position = "{176, 0}";
},
{
name = top;
position = "{236, 705}";
},
{
name = topleft;
position = "{89, 705}";
}
);
background = {
anchors = (
{
name = bottom;
position = "{146, 0}";
},
{
name = ogonek;
position = "{213, 10}";
},
{
name = top;
position = "{258, 712}";
},
{
name = topleft;
position = "{111, 712}";
}
);
paths = (
{
closed = 1;
nodes = (
"254 0 LINE",
"366 712 LINE",
"150 712 LINE",
"39 0 LINE"
);
}
);
};
layerId = "7E8CE273-6C2A-436A-BEF2-D90EC4D0BD66";
paths = (
{
closed = 1;
nodes = (
"233 0 LINE",
"345 705 LINE",
"130 705 LINE",
"18 0 LINE"
);
}
);
width = 332;
},
{
anchors = (
{
name = bottom;
position = "{164, 0}";
},
{
name = ogonek;
position = "{216, 0}";
},
{
name = top;
position = "{164, 705}";
},
{
name = topleft;
position = "{17, 705}";
}
);
associatedMasterId = "2567DF27-EA2D-46C8-A1A0-FA57AF1B0F16";
layerId = "B8FA56BD-7EDE-4576-AB47-8A7B7BD1DCF7";
paths = (
{
closed = 1;
nodes = (
"269 0 LINE",
"269 705 LINE",
"60 705 LINE",
"60 0 LINE"
);
}
);
width = 328.11561;
}
);
leftKerningGroup = H;
rightKerningGroup = H;
unicode = 0049;
userData = {
anchors = (
);
b = {
};
com.typemytype.robofont.layerData = {
b = {
anchors = (
);
components = (
);
contours = (
);
lib = {
};
name = I;
unicodes = (
);
width = 592;
};
};
components = (
);
contours = (
);
lib = {
};
name = I;
unicodes = (
);
width = 637;
};
},
{
color = 4;
glyphname = Iogonek;
lastChange = "2019-11-14 11:52:21 +0000";
layers = (
{
background = {
paths = (
{
closed = 1;
nodes = (
"142 -192 OFFCURVE",
"170 -182 OFFCURVE",
"188 -169 CURVE",
"172 -134 LINE",
"151 -146 OFFCURVE",
"127 -153 OFFCURVE",
"111 -153 CURVE SMOOTH",
"71 -153 OFFCURVE",
"43 -129 OFFCURVE",
"43 -85 CURVE SMOOTH",
"43 -39 OFFCURVE",
"76 0 OFFCURVE",
"135 0 CURVE SMOOTH",
"138 0 LINE",
"138 712 LINE",
"97 712 LINE",
"97 0 LINE",
"111 0 LINE",
"131 38 LINE",
"44 26 OFFCURVE",
"-3 -26 OFFCURVE",
"-3 -89 CURVE SMOOTH",
"-3 -148 OFFCURVE",
"41 -192 OFFCURVE",
"109 -192 CURVE SMOOTH"
);
}
);
};
components = (
{
name = I;
},
{
name = ogonekcomb;
transform = "{1, 0, 0, 1, -111, 0}";
}
);
layerId = "2567DF27-EA2D-46C8-A1A0-FA57AF1B0F16";
width = 236;
},
{
background = {
paths = (
{
closed = 1;
nodes = (
"224 -202 OFFCURVE",
"262 -196 OFFCURVE",
"299 -183 CURVE",
"280 -94 LINE",
"262 -100 OFFCURVE",
"247 -103 OFFCURVE",
"229 -103 CURVE SMOOTH",
"192 -103 OFFCURVE",
"173 -87 OFFCURVE",
"173 -56 CURVE SMOOTH",
"173 -22 OFFCURVE",
"206 0 OFFCURVE",
"253 0 CURVE SMOOTH",
"274 0 LINE",
"274 712 LINE",
"58 712 LINE",
"58 0 LINE",
"117 0 LINE",
"127 37 LINE",
"73 5 OFFCURVE",
"49 -39 OFFCURVE",
"49 -85 CURVE SMOOTH",
"49 -159 OFFCURVE",
"112 -202 OFFCURVE",
"187 -202 CURVE SMOOTH"
);
}
);
};
components = (
{
name = I;
},
{
name = ogonekcomb;
transform = "{1, 0, 0, 1, -31, 0}";
}
);
layerId = "FFBF88B9-CE65-4AF8-A771-12A489880E49";
width = 332;
},
{
background = {
paths = (
{
closed = 1;
nodes = (
"94 -192 OFFCURVE",
"126 -180 OFFCURVE",
"142 -169 CURVE",
"131 -133 LINE",
"108 -146 OFFCURVE",
"84 -153 OFFCURVE",
"68 -153 CURVE SMOOTH",
"31 -153 OFFCURVE",
"9 -134 OFFCURVE",
"9 -96 CURVE SMOOTH",
"9 -43 OFFCURVE",
"43 0 OFFCURVE",
"116 0 CURVE SMOOTH",
"119 0 LINE",
"231 712 LINE",
"189 712 LINE",
"78 0 LINE",
"92 0 LINE",
"119 41 LINE",
"22 32 OFFCURVE",
"-37 -24 OFFCURVE",
"-37 -103 CURVE SMOOTH",
"-37 -158 OFFCURVE",
"0 -192 OFFCURVE",
"62 -192 CURVE SMOOTH"
);
}
);
};
components = (
{
name = I;
},
{
name = ogonekcomb;
transform = "{1, 0, 0, 1, -112, 0}";
}
);
layerId = "5EBC8607-93CF-4E15-8CE6-F0DFD39C8AE8";
width = 236;
},
{
background = {
paths = (
{
closed = 1;
nodes = (
"179 -202 OFFCURVE",
"212 -197 OFFCURVE",
"250 -183 CURVE",
"248 -94 LINE",
"225 -100 OFFCURVE",
"210 -103 OFFCURVE",
"192 -103 CURVE SMOOTH",
"165 -103 OFFCURVE",
"145 -88 OFFCURVE",
"145 -64 CURVE SMOOTH",
"145 -25 OFFCURVE",
"179 0 OFFCURVE",
"234 0 CURVE SMOOTH",
"255 0 LINE",
"367 712 LINE",
"150 712 LINE",
"39 0 LINE",
"98 0 LINE",
"113 35 LINE",
"65 6 OFFCURVE",
"16 -27 OFFCURVE",
"16 -98 CURVE SMOOTH",
"16 -159 OFFCURVE",
"66 -202 OFFCURVE",
"145 -202 CURVE SMOOTH"
);
}
);
};
components = (
{
name = I;
},
{
name = ogonekcomb;
transform = "{1, 0, 0, 1, -35, 0}";
}
);
layerId = "7E8CE273-6C2A-436A-BEF2-D90EC4D0BD66";
width = 332;
},
{
associatedMasterId = "2567DF27-EA2D-46C8-A1A0-FA57AF1B0F16";
components = (
{
name = I;
},
{
name = ogonekcomb;
transform = "{1, 0, 0, 1, -34, 0}";
}
);
layerId = "B8FA56BD-7EDE-4576-AB47-8A7B7BD1DCF7";
width = 328;
}
);
leftKerningGroup = H;
rightKerningGroup = H;
unicode = 012E;
},
{
color = 4;
glyphname = J;
lastChange = "2019-11-14 11:52:21 +0000";
layers = (
{
anchors = (
{
name = bottom;
position = "{181, 0}";
},
{
name = top;
position = "{181, 705}";
}
);
background = {
anchors = (
{
name = bottom;
position = "{183, 0}";
},
{
name = top;
position = "{183, 712}";
}
);
paths = (
{
closed = 1;
nodes = (
"142 -205 OFFCURVE",
"203 -164 OFFCURVE",
"203 -7 CURVE SMOOTH",
"203 712 LINE",
"162 712 LINE",
"162 -5 LINE SMOOTH",
"162 -137 OFFCURVE",
"116 -163 OFFCURVE",
"-8 -137 CURVE",
"-8 -178 LINE"
);
}
);
};
layerId = "2567DF27-EA2D-46C8-A1A0-FA57AF1B0F16";
paths = (
{
closed = 1;
nodes = (
"158 -186 OFFCURVE",
"203 -127 OFFCURVE",
"203 -26 CURVE SMOOTH",
"203 705 LINE",
"161 705 LINE",
"161 -24 LINE SMOOTH",
"161 -110 OFFCURVE",
"125 -148 OFFCURVE",
"64 -148 CURVE SMOOTH",
"45 -148 OFFCURVE",
"25 -145 OFFCURVE",
"0 -139 CURVE",
"0 -178 LINE",
"25 -184 OFFCURVE",
"49 -186 OFFCURVE",
"70 -186 CURVE SMOOTH"
);
}
);
width = 300;
},
{
anchors = (
{
name = bottom;
position = "{260, 0}";
},
{
name = top;
position = "{260, 705}";
}
);
background = {
anchors = (
{
name = bottom;
position = "{255, 0}";
},
{
name = top;
position = "{255, 712}";
}
);
paths = (
{
closed = 1;
nodes = (
"284 -218 OFFCURVE",
"365 -131 OFFCURVE",
"365 68 CURVE SMOOTH",
"365 712 LINE",
"148 712 LINE",
"148 64 LINE SMOOTH",
"148 -14 OFFCURVE",
"130 -20 OFFCURVE",
"3 -8 CURVE",
"3 -179 LINE"
);
}
);
};
layerId = "FFBF88B9-CE65-4AF8-A771-12A489880E49";
paths = (
{
closed = 1;
nodes = (
"297 -187 OFFCURVE",
"365 -102 OFFCURVE",
"365 83 CURVE SMOOTH",
"365 705 LINE",
"149 705 LINE",
"149 82 LINE SMOOTH",
"149 10 OFFCURVE",
"132 -20 OFFCURVE",
"72 -20 CURVE SMOOTH",
"58 -20 OFFCURVE",
"29 -18 OFFCURVE",
"3 -13 CURVE",
"3 -177 LINE",
"42 -185 OFFCURVE",
"84 -187 OFFCURVE",
"109 -187 CURVE SMOOTH"
);
}
);
width = 423;
},
{
anchors = (
{
name = bottom;
position = "{143, 0}";
},
{
name = top;
position = "{254, 705}";
}
);
background = {
anchors = (
{
name = bottom;
position = "{163, 0}";
},
{
name = top;
position = "{274, 712}";
}
);
paths = (
{
closed = 1;
nodes = (
"85 -206 OFFCURVE",
"158 -158 OFFCURVE",
"182 -7 CURVE SMOOTH",
"296 712 LINE",
"254 712 LINE",
"140 -5 LINE SMOOTH",
"122 -121 OFFCURVE",
"75 -167 OFFCURVE",
"-50 -137 CURVE",
"-56 -178 LINE"
);
}
);
};
layerId = "5EBC8607-93CF-4E15-8CE6-F0DFD39C8AE8";
paths = (
{
closed = 1;
nodes = (
"92 -186 OFFCURVE",
"142 -134 OFFCURVE",
"159 -26 CURVE SMOOTH",
"275 705 LINE",
"233 705 LINE",
"117 -24 LINE SMOOTH",
"103 -110 OFFCURVE",
"62 -148 OFFCURVE",
"1 -148 CURVE SMOOTH",
"-18 -148 OFFCURVE",
"-37 -145 OFFCURVE",
"-62 -139 CURVE",
"-68 -178 LINE",
"-43 -184 OFFCURVE",
"-20 -186 OFFCURVE",
"1 -186 CURVE SMOOTH"
);
}
);
width = 300;
},
{
anchors = (
{
name = bottom;
position = "{217, 0}";
},
{
name = top;
position = "{328, 705}";
}
);
background = {
anchors = (
{
name = bottom;
position = "{222, 0}";
},
{
name = top;
position = "{333, 705}";
}
);
paths = (
{
closed = 1;
nodes = (
"97 -6 LINE SMOOTH",
"280 4 OFFCURVE",
"342 74 OFFCURVE",
"364 215 CURVE SMOOTH",
"442 705 LINE",
"227 705 LINE",
"151 227 LINE SMOOTH",
"144 182 OFFCURVE",
"124 166 OFFCURVE",
"80 164 CURVE SMOOTH",
"-12 159 LINE",
"-18 -12 LINE"
);
}
);
};
layerId = "7E8CE273-6C2A-436A-BEF2-D90EC4D0BD66";
paths = (
{
closed = 1;
nodes = (
"241 -186 OFFCURVE",
"311 -88 OFFCURVE",
"336 70 CURVE SMOOTH",
"435 705 LINE",
"219 705 LINE",
"118 66 LINE SMOOTH",
"109 10 OFFCURVE",
"96 -10 OFFCURVE",
"30 -10 CURVE SMOOTH",
"12 -10 OFFCURVE",
"-10 -9 OFFCURVE",
"-37 -6 CURVE",
"-63 -177 LINE",
"-22 -183 OFFCURVE",
"15 -186 OFFCURVE",
"49 -186 CURVE SMOOTH"
);
}
);
width = 423;
},
{
anchors = (
{
name = bottom;
position = "{257, 0}";
},
{
name = top;
position = "{257, 705}";
}
);
associatedMasterId = "2567DF27-EA2D-46C8-A1A0-FA57AF1B0F16";
layerId = "B8FA56BD-7EDE-4576-AB47-8A7B7BD1DCF7";
paths = (
{
closed = 1;
nodes = (
"291 -187 OFFCURVE",
"358 -103 OFFCURVE",
"358 79 CURVE SMOOTH",
"358 705 LINE",
"149 705 LINE",
"149 78 LINE SMOOTH",
"149 5 OFFCURVE",
"132 -25 OFFCURVE",
"72 -25 CURVE SMOOTH",
"57 -25 OFFCURVE",
"29 -23 OFFCURVE",
"3 -18 CURVE",
"3 -177 LINE",
"41 -185 OFFCURVE",
"83 -187 OFFCURVE",
"107 -187 CURVE SMOOTH"
);
}
);
width = 418.02312;
}
);
leftKerningGroup = J;
rightKerningGroup = J;
unicode = 004A;
userData = {
anchors = (
);
b = {
};
com.typemytype.robofont.layerData = {
b = {
anchors = (
);
components = (
);
contours = (
);
lib = {
};
name = J;
unicodes = (
);
width = 1003;
};
};
components = (
);
contours = (
);
lib = {
};
name = J;
unicodes = (
);
width = 1126;
};
},
{
color = 4;
glyphname = K;
lastChange = "2019-11-14 11:52:21 +0000";
layers = (
{
anchors = (
{
name = bottom;
position = "{309, 0}";
},
{
name = top;
position = "{308, 705}";
},
{
name = topleft;
position = "{25, 705}";
}
);
background = {
anchors = (
{
name = bottom;
position = "{305, 0}";
},
{
name = top;
position = "{304, 712}";
}
);
paths = (
{
closed = 1;
nodes = (
"599 0 LINE",
"160 380 LINE",
"160 344 LINE",
"576 712 LINE",
"516 712 LINE",
"118 361 LINE",
"537 0 LINE"
);
},
{
closed = 1;
nodes = (
"138 0 LINE",
"138 712 LINE",
"97 712 LINE",
"97 0 LINE"
);
}
);
};
layerId = "2567DF27-EA2D-46C8-A1A0-FA57AF1B0F16";
paths = (
{
closed = 1;
nodes = (
"139 0 LINE",
"139 338 LINE",
"141 338 LINE",
"536 0 LINE",
"599 0 LINE",
"161 373 LINE",
"160 343 LINE",
"568 705 LINE",
"507 705 LINE",
"141 377 LINE",
"139 377 LINE",
"139 705 LINE",
"97 705 LINE",
"97 0 LINE"
);
}
);
width = 605;
},
{
anchors = (
{
name = bottom;
position = "{369, 0}";
},
{
name = top;
position = "{369, 705}";
},
{
name = topleft;
position = "{17, 705}";
}
);
background = {
anchors = (
{
name = bottom;
position = "{364, 0}";
},
{
name = top;
position = "{365, 712}";
}
);
paths = (
{
closed = 1;
nodes = (
"791 0 LINE",
"446 422 LINE",
"427 315 LINE",
"782 712 LINE",
"532 712 LINE",
"234 365 LINE",
"537 0 LINE"
);
},
{
closed = 1;
nodes = (
"274 0 LINE",
"274 712 LINE",
"58 712 LINE",
"58 0 LINE"
);
}
);
};
layerId = "FFBF88B9-CE65-4AF8-A771-12A489880E49";
paths = (
{
closed = 1;
nodes = (
"274 0 LINE",
"274 314 LINE",
"276 314 LINE",
"534 0 LINE",
"792 0 LINE",
"448 414 LINE",
"448 332 LINE",
"775 705 LINE",
"525 705 LINE",
"276 408 LINE",
"274 408 LINE",
"274 705 LINE",
"58 705 LINE",
"58 0 LINE"
);
}
);
width = 726;
},
{
anchors = (
{
name = bottom;
position = "{282, 0}";
},
{
name = top;
position = "{380, 705}";
},
{
name = topleft;
position = "{97, 705}";
}
);
background = {
anchors = (
{
name = bottom;
position = "{287, 0}";
},
{
name = top;
position = "{396, 712}";
}
);
paths = (
{
closed = 1;
nodes = (
"581 0 LINE",
"204 377 LINE",
"190 344 LINE",
"669 712 LINE",
"605 712 LINE",
"157 364 LINE",
"524 0 LINE"
);
},
{
closed = 1;
nodes = (
"120 0 LINE",
"232 712 LINE",
"190 712 LINE",
"79 0 LINE"
);
}
);
};
layerId = "5EBC8607-93CF-4E15-8CE6-F0DFD39C8AE8";
paths = (
{
closed = 1;
nodes = (
"99 0 LINE",
"153 338 LINE",
"155 338 LINE",
"503 0 LINE",
"561 0 LINE",
"182 368 LINE",
"178 340 LINE",
"639 705 LINE",
"575 705 LINE",
"161 377 LINE",
"159 377 LINE",
"211 705 LINE",
"169 705 LINE",
"57 0 LINE"
);
}
);
width = 605;
},
{
anchors = (
{
name = bottom;
position = "{325, 0}";
},
{
name = top;
position = "{433, 705}";
},
{
name = topleft;
position = "{88, 705}";
}
);
background = {
anchors = (
{
name = bottom;
position = "{346, 0}";
},
{
name = top;
position = "{459, 712}";
}
);
paths = (
{
closed = 1;
nodes = (
"773 0 LINE",
"486 423 LINE",
"474 314 LINE",
"875 712 LINE",
"618 712 LINE",
"272 361 LINE",
"524 0 LINE"
);
},
{
closed = 1;
nodes = (
"256 0 LINE",
"368 712 LINE",
"151 712 LINE",
"40 0 LINE"
);
}
);
};
guideLines = (
{
angle = -55.165;
position = "{588, 232}";
}
);
layerId = "7E8CE273-6C2A-436A-BEF2-D90EC4D0BD66";
paths = (
{
closed = 1;
nodes = (
"233 0 LINE",
"284 319 LINE",
"286 319 LINE",
"510 0 LINE",
"749 0 LINE",
"460 416 LINE",
"474 329 LINE",
"850 705 LINE",
"587 705 LINE",
"300 409 LINE",
"298 409 LINE",
"345 705 LINE",
"130 705 LINE",
"18 0 LINE"
);
}
);
width = 726;
},
{
anchors = (
{
name = bottom;
position = "{367, 0}";
},
{
name = top;
position = "{367, 705}";
},
{
name = topleft;
position = "{17, 705}";
}
);
associatedMasterId = "2567DF27-EA2D-46C8-A1A0-FA57AF1B0F16";
layerId = "B8FA56BD-7EDE-4576-AB47-8A7B7BD1DCF7";
paths = (
{
closed = 1;
nodes = (
"269 0 LINE",
"269 315 LINE",
"271 315 LINE",
"534 0 LINE",
"784 0 LINE",
"436 412 LINE",
"436 332 LINE",
"767 705 LINE",
"524 705 LINE",
"271 407 LINE",
"269 407 LINE",
"269 705 LINE",
"60 705 LINE",
"60 0 LINE"
);
}
);
width = 721.10405;
}
);
leftKerningGroup = H;
rightKerningGroup = K;
unicode = 004B;
userData = {
anchors = (
);
b = {
};
com.typemytype.robofont.layerData = {
b = {
anchors = (
);
components = (
);
contours = (
);
lib = {
};
name = K;
unicodes = (
);
width = 1210;
};
};
components = (
);
contours = (
);
lib = {
};
name = K;
unicodes = (
);
width = 1329;
};
},
{
color = 4;
glyphname = L;
lastChange = "2019-11-14 11:52:21 +0000";
layers = (
{
anchors = (
{
name = bottom;
position = "{303, 0}";
},
{
name = center;
position = "{164, 387}";
},
{
name = dot;
position = "{384, 386}";
},
{
name = top;
position = "{118, 705}";
},
{
name = topright;
position = "{256, 705}";
}
);
background = {
anchors = (
{
name = bottom;
position = "{309, 0}";
},
{
name = center;
position = "{330, 357}";
},
{
name = top;
position = "{118, 712}";
},
{
name = topright;
position = "{229, 712}";
}
);
paths = (
{
closed = 1;
nodes = (
"517 0 LINE",
"517 38 LINE",
"138 38 LINE",
"138 712 LINE",
"97 712 LINE",
"97 0 LINE"
);
}
);
};
layerId = "2567DF27-EA2D-46C8-A1A0-FA57AF1B0F16";
paths = (
{
closed = 1;
nodes = (
"517 0 LINE",
"517 39 LINE",
"139 39 LINE",
"139 705 LINE",
"97 705 LINE",
"97 0 LINE"
);
}
);
width = 532;
},
{
anchors = (
{
name = bottom;
position = "{322, 0}";
},
{
name = center;
position = "{214, 387}";
},
{
name = dot;
position = "{474, 402}";
},
{
name = top;
position = "{166, 705}";
},
{
name = topright;
position = "{367, 705}";
}
);
background = {
anchors = (
{
name = bottom;
position = "{319, 0}";
},
{
name = center;
position = "{428, 357}";
},
{
name = top;
position = "{164, 712}";
},
{
name = topright;
position = "{365, 712}";
}
);
paths = (
{
closed = 1;
nodes = (
"560 0 LINE",
"560 174 LINE",
"274 174 LINE",
"274 712 LINE",
"58 712 LINE",
"58 0 LINE"
);
}
);
};
layerId = "FFBF88B9-CE65-4AF8-A771-12A489880E49";
paths = (
{
closed = 1;
nodes = (
"560 0 LINE",
"560 178 LINE",
"274 178 LINE",
"274 705 LINE",
"58 705 LINE",
"58 0 LINE"
);
}
);
width = 588;
},
{
anchors = (
{
name = bottom;
position = "{273, 0}";
},
{
name = center;
position = "{183, 387}";
},
{
name = dot;
position = "{416, 386}";
},
{
name = top;
position = "{190, 705}";
},
{
name = topright;
position = "{338, 705}";
}
);
background = {
anchors = (
{
name = bottom;
position = "{291, 0}";
},
{
name = center;
position = "{368, 357}";
},
{
name = top;
position = "{212, 712}";
},
{
name = topright;
position = "{323, 712}";
}
);
paths = (
{
closed = 1;
nodes = (
"499 0 LINE",
"505 38 LINE",
"127 38 LINE",
"232 712 LINE",
"190 712 LINE",
"79 0 LINE"
);
}
);
};
layerId = "5EBC8607-93CF-4E15-8CE6-F0DFD39C8AE8";
paths = (
{
closed = 1;
nodes = (
"479 0 LINE",
"485 39 LINE",
"106 39 LINE",
"211 705 LINE",
"169 705 LINE",
"57 0 LINE"
);
}
);
width = 532;
},
{
anchors = (
{
name = bottom;
position = "{278, 0}";
},
{
name = center;
position = "{233, 387}";
},
{
name = dot;
position = "{491, 402}";
},
{
name = top;
position = "{235, 705}";
},
{
name = topright;
position = "{435, 705}";
}
);
background = {
anchors = (
{
name = bottom;
position = "{299, 0}";
},
{
name = center;
position = "{465, 357}";
},
{
name = top;
position = "{257, 712}";
},
{
name = topright;
position = "{457, 712}";
}
);
paths = (
{
closed = 1;
nodes = (
"541 0 LINE",
"568 174 LINE",
"281 174 LINE",
"368 712 LINE",
"151 712 LINE",
"39 0 LINE"
);
}
);
};
layerId = "7E8CE273-6C2A-436A-BEF2-D90EC4D0BD66";
paths = (
{
closed = 1;
nodes = (
"520 0 LINE",
"548 178 LINE",
"262 178 LINE",
"345 705 LINE",
"130 705 LINE",
"18 0 LINE"
);
}
);
width = 588;
},
{
anchors = (
{
name = bottom;
position = "{321, 0}";
},
{
name = center;
position = "{212, 387}";
},
{
name = dot;
position = "{470, 401}";
},
{
name = top;
position = "{164, 705}";
},
{
name = topright;
position = "{363, 705}";
}
);
associatedMasterId = "2567DF27-EA2D-46C8-A1A0-FA57AF1B0F16";
layerId = "B8FA56BD-7EDE-4576-AB47-8A7B7BD1DCF7";
paths = (
{
closed = 1;
nodes = (
"558 0 LINE",
"558 172 LINE",
"269 172 LINE",
"269 705 LINE",
"60 705 LINE",
"60 0 LINE"
);
}
);
width = 585.7341;
}
);
leftKerningGroup = H;
rightKerningGroup = L;
unicode = 004C;
userData = {
anchors = (
);
b = {
};
com.typemytype.robofont.layerData = {
b = {
anchors = (
);
components = (
);
contours = (
{
points = (
{
segmentType = curve;
smooth = 1;
x = 266;
y = 0;
},
{
segmentType = line;
smooth = 1;
x = 1035;
y = 0;
},
{
smooth = 0;
x = 1084;
y = 0;
},
{
smooth = 0;
x = 1108;
y = 34;
},
{
segmentType = curve;
smooth = 1;
x = 1108;
y = 71;
},
{
smooth = 0;
x = 1108;
y = 107;
},
{
smooth = 0;
x = 1084;
y = 141;
},
{
segmentType = curve;
smooth = 1;
x = 1035;
y = 141;
},
{
segmentType = line;
smooth = 0;
x = 356;
y = 141;
},
{
segmentType = line;
smooth = 0;
x = 356;
y = 665;
},
{
segmentType = line;
smooth = 1;
x = 975;
y = 665;
},
{
smooth = 0;
x = 1024;
y = 665;
},
{
smooth = 0;
x = 1049;
y = 698;
},
{
segmentType = curve;
smooth = 1;
x = 1049;
y = 734;
},
{
smooth = 0;
x = 1049;
y = 770;
},
{
smooth = 0;
x = 1026;
y = 803;
},
{
segmentType = curve;
smooth = 1;
x = 975;
y = 803;
},
{
segmentType = line;
smooth = 0;
x = 356;
y = 803;
},
{
segmentType = line;
smooth = 0;
x = 356;
y = 1285;
},
{
segmentType = line;
smooth = 1;
x = 1007;
y = 1285;
},
{
smooth = 0;
x = 1056;
y = 1285;
},
{
smooth = 0;
x = 1080;
y = 1319;
},
{
segmentType = curve;
smooth = 1;
x = 1080;
y = 1356;
},
{
smooth = 0;
x = 1080;
y = 1392;
},
{
smooth = 0;
x = 1056;
y = 1426;
},
{
segmentType = curve;
smooth = 1;
x = 1007;
y = 1426;
},
{
segmentType = line;
smooth = 1;
x = 261;
y = 1426;
},
{
smooth = 0;
x = 213;
y = 1426;
},
{
smooth = 0;
x = 178;
y = 1383;
},
{
segmentType = curve;
smooth = 1;
x = 178;
y = 1340;
},
{
segmentType = line;
smooth = 1;
x = 178;
y = 86;
},
{
smooth = 0;
x = 178;
y = 41;
},
{
smooth = 0;
x = 222;
y = 0;
}
);
}
);
lib = {
};
name = L;
unicodes = (
);
width = 1095;
};
};
components = (
);
contours = (
);
lib = {
};
name = L;
unicodes = (
);
width = 1169;
};
},
{
color = 4;
glyphname = Lslash;
lastChange = "2019-11-14 11:52:21 +0000";
layers = (
{
background = {
paths = (
{
closed = 1;
nodes = (
"334 461 LINE",
"334 506 LINE",
"8 318 LINE",
"8 273 LINE"
);
},
{
closed = 1;
nodes = (
"521 0 LINE",
"521 38 LINE",
"143 38 LINE",
"143 712 LINE",
"101 712 LINE",
"101 0 LINE"
);
}
);
};
components = (
{
name = L;
},
{
name = slashshortcomb.case;
transform = "{1, 0, 0, 1, -86, 2}";
}
);
layerId = "2567DF27-EA2D-46C8-A1A0-FA57AF1B0F16";
width = 532;
},
{
background = {
paths = (
{
closed = 1;
nodes = (
"499 435 LINE",
"499 616 LINE",
"11 334 LINE",
"11 155 LINE"
);
},
{
closed = 1;
nodes = (
"605 0 LINE",
"605 174 LINE",
"317 174 LINE",
"317 712 LINE",
"101 712 LINE",
"101 0 LINE"
);
}
);
};
components = (
{
name = L;
},
{
name = slashshortcomb.case;
transform = "{1, 0, 0, 1, -36, 5}";
}
);
layerId = "FFBF88B9-CE65-4AF8-A771-12A489880E49";
width = 588;
},
{
background = {
paths = (
{
closed = 1;
nodes = (
"502 0 LINE",
"508 38 LINE",
"130 38 LINE",
"235 712 LINE",
"193 712 LINE",
"82 0 LINE"
);
},
{
closed = 1;
nodes = (
"388 461 LINE",
"394 506 LINE",
"39 318 LINE",
"31 273 LINE"
);
}
);
};
components = (
{
name = L;
},
{
name = slashshortcomb.case;
transform = "{1, 0, 0, 1, -88, 4}";
}
);
layerId = "5EBC8607-93CF-4E15-8CE6-F0DFD39C8AE8";
width = 532;
},
{
background = {
paths = (
{
closed = 1;
nodes = (
"586 0 LINE",
"612 174 LINE",
"325 174 LINE",
"411 712 LINE",
"194 712 LINE",
"82 0 LINE"
);
},
{
closed = 1;
nodes = (
"549 435 LINE",
"577 616 LINE",
"44 334 LINE",
"16 155 LINE"
);
}
);
};
components = (
{
name = L;
},
{
name = slashshortcomb.case;
transform = "{1, 0, 0, 1, -38, 5}";
}
);
layerId = "7E8CE273-6C2A-436A-BEF2-D90EC4D0BD66";
width = 588;
},
{
associatedMasterId = "2567DF27-EA2D-46C8-A1A0-FA57AF1B0F16";
components = (
{
name = L;
},
{
name = slashshortcomb.case;
transform = "{1, 0, 0, 1, -38, 5}";
}
);
layerId = "B8FA56BD-7EDE-4576-AB47-8A7B7BD1DCF7";
width = 586;
}
);
leftKerningGroup = L;
rightKerningGroup = L;
unicode = 0141;
},
{
color = 4;
glyphname = M;
lastChange = "2019-11-14 11:52:21 +0000";
layers = (
{
anchors = (
{
name = bottom;
position = "{424, 0}";
},
{
name = top;
position = "{424, 705}";
}
);
background = {
anchors = (
{
name = bottom;
position = "{424, 0}";
},
{
name = top;
position = "{424, 712}";
}
);
paths = (
{
closed = 1;
nodes = (
"138 0 LINE",
"137 673 LINE",
"107 672 LINE",
"408 0 LINE",
"442 0 LINE",
"738 671 LINE",
"711 673 LINE",
"710 0 LINE",
"751 0 LINE",
"751 712 LINE",
"715 712 LINE",
"411 16 LINE",
"440 16 LINE",
"133.009 712 LINE",
"97 712 LINE",
"97 0 LINE"
);
}
);
};
layerId = "2567DF27-EA2D-46C8-A1A0-FA57AF1B0F16";
paths = (
{
closed = 1;
nodes = (
"136 0 LINE",
"136 665 LINE",
"112 665 LINE",
"407 0 LINE",
"442 0 LINE",
"736 664 LINE",
"712 664 LINE",
"712 0 LINE",
"751 0 LINE",
"751 705 LINE",
"715 705 LINE",
"410 17 LINE",
"438 17 LINE",
"134 705 LINE",
"97 705 LINE",
"97 0 LINE"
);
}
);
width = 848;
},
{
anchors = (
{
name = bottom;
position = "{426, 0}";
},
{
name = top;
position = "{426, 705}";
}
);
background = {
anchors = (
{
name = bottom;
position = "{425, 0}";
},
{
name = top;
position = "{425, 712}";
}
);
paths = (
{
closed = 1;
nodes = (
"248 0 LINE",
"248 380 LINE",
"207 367 LINE",
"358 0 LINE",
"494 0 LINE",
"643 368 LINE",
"603 380 LINE",
"603 0 LINE",
"791 0 LINE",
"791 712 LINE",
"624 712 LINE",
"394 182 LINE",
"461 182 LINE",
"230 712 LINE",
"61 712 LINE",
"61 0 LINE"
);
}
);
};
layerId = "FFBF88B9-CE65-4AF8-A771-12A489880E49";
paths = (
{
closed = 1;
nodes = (
"256 0 LINE",
"256 411 LINE",
"242 411 LINE",
"359 0 LINE",
"493 0 LINE",
"607 411 LINE",
"596 411 LINE",
"597 0 LINE",
"791 0 LINE",
"791 705 LINE",
"563 705 LINE",
"410 166 LINE",
"446 166 LINE",
"289 705 LINE",
"61 705 LINE",
"61 0 LINE"
);
}
);
width = 852;
},
{
anchors = (
{
name = bottom;
position = "{389, 0}";
},
{
name = top;
position = "{497, 705}";
}
);
background = {
anchors = (
{
name = bottom;
position = "{406, 0}";
},
{
name = top;
position = "{518, 712}";
}
);
paths = (
{
closed = 1;
nodes = (
"120 0 LINE",
"226 673 LINE",
"196 672 LINE",
"390 0 LINE",
"424 0 LINE",
"827 671 LINE",
"797 673 LINE",
"691 0 LINE",
"732 0 LINE",
"844 712 LINE",
"807 712 LINE",
"394 16 LINE",
"423 16 LINE",
"228 712 LINE",
"190 712 LINE",
"79 0 LINE"
);
}
);
};
layerId = "5EBC8607-93CF-4E15-8CE6-F0DFD39C8AE8";
paths = (
{
closed = 1;
nodes = (
"96 0 LINE",
"202 666 LINE",
"182 666 LINE",
"371 0 LINE",
"406 0 LINE",
"802 665 LINE",
"777 665 LINE",
"672 0 LINE",
"711 0 LINE",
"823 705 LINE",
"785 705 LINE",
"375 17 LINE",
"402 17 LINE",
"206 705 LINE",
"169 705 LINE",
"57 0 LINE"
);
}
);
width = 848;
},
{
anchors = (
{
name = bottom;
position = "{386, 0}";
},
{
name = top;
position = "{498, 705}";
}
);
background = {
anchors = (
{
name = bottom;
position = "{418, 0}";
},
{
name = top;
position = "{520, 705}";
}
);
paths = (
{
closed = 1;
nodes = (
"215 0 LINE",
"273 364 LINE",
"251 364 LINE",
"371 103 LINE",
"485 103 LINE",
"683 372 LINE",
"661 372 LINE",
"602 0 LINE",
"796 0 LINE",
"908 705 LINE",
"724 705 LINE",
"433 301 LINE",
"464 301 LINE",
"302 705 LINE",
"133 705 LINE",
"21 0 LINE"
);
}
);
};
layerId = "7E8CE273-6C2A-436A-BEF2-D90EC4D0BD66";
paths = (
{
closed = 1;
nodes = (
"216 0 LINE",
"281 411 LINE",
"267 411 LINE",
"319 0 LINE",
"453 0 LINE",
"632 411 LINE",
"621 411 LINE",
"557 0 LINE",
"751 0 LINE",
"863 705 LINE",
"629 705 LINE",
"390 166 LINE",
"426 166 LINE",
"355 705 LINE",
"133 705 LINE",
"21 0 LINE"
);
}
);
width = 852;
},
{
anchors = (
{
name = bottom;
position = "{426, 0}";
},
{
name = top;
position = "{426, 705}";
}
);
associatedMasterId = "2567DF27-EA2D-46C8-A1A0-FA57AF1B0F16";
layerId = "B8FA56BD-7EDE-4576-AB47-8A7B7BD1DCF7";
paths = (
{
closed = 1;
nodes = (
"251 0 LINE",
"251 421 LINE",
"237 421 LINE",
"361 0 LINE",
"491 0 LINE",
"612 421 LINE",
"601 421 LINE",
"602 0 LINE",
"789 0 LINE",
"789 705 LINE",
"569 705 LINE",
"410 160 LINE",
"446 160 LINE",
"283 705 LINE",
"62 705 LINE",
"62 0 LINE"
);
}
);
width = 851.83815;
}
);
leftKerningGroup = H;
rightKerningGroup = H;
unicode = 004D;
userData = {
anchors = (
);
b = {
};
com.typemytype.robofont.layerData = {
b = {
anchors = (
);
components = (
);
contours = (
);
lib = {
};
name = M;
unicodes = (
);
width = 1899;
};
};
components = (
);
contours = (
);
lib = {
};
name = M;
unicodes = (
);
width = 1984;
};
},
{
color = 4;
glyphname = N;
lastChange = "2019-11-14 11:52:21 +0000";
layers = (
{
anchors = (
{
name = bottom;
position = "{370, 0}";
},
{
name = top;
position = "{370, 705}";
}
);
background = {
anchors = (
{
name = bottom;
position = "{370, 0}";
},
{
name = top;
position = "{370, 712}";
}
);
paths = (
{
closed = 1;
nodes = (
"136 0 LINE",
"136 667 LINE",
"115 669 LINE",
"608 0 LINE",
"642 0 LINE",
"642 712 LINE",
"603 712 LINE",
"603 45 LINE",
"625 43 LINE",
"132 712 LINE",
"97 712 LINE",
"97 0 LINE"
);
}
);
};
layerId = "2567DF27-EA2D-46C8-A1A0-FA57AF1B0F16";
paths = (
{
closed = 1;
nodes = (
"136 0 LINE",
"136 663 LINE",
"116 663 LINE",
"607 0 LINE",
"642 0 LINE",
"642 705 LINE",
"603 705 LINE",
"603 42 LINE",
"624 42 LINE",
"133 705 LINE",
"97 705 LINE",
"97 0 LINE"
);
}
);
width = 739;
},
{
anchors = (
{
name = bottom;
position = "{391, 0}";
},
{
name = top;
position = "{390, 705}";
}
);
background = {
anchors = (
{
name = bottom;
position = "{386, 0}";
},
{
name = top;
position = "{384, 712}";
}
);
paths = (
{
closed = 1;
nodes = (
"259 0 LINE",
"259 426 LINE",
"229 395 LINE",
"553 0 LINE",
"713 0 LINE",
"713 712 LINE",
"509 712 LINE",
"509 286 LINE",
"541 316 LINE",
"214 712 LINE",
"58 712 LINE",
"58 0 LINE"
);
}
);
};
layerId = "FFBF88B9-CE65-4AF8-A771-12A489880E49";
paths = (
{
closed = 1;
nodes = (
"260 0 LINE",
"260 395 LINE",
"229 395 LINE",
"555 0 LINE",
"713 0 LINE",
"713 705 LINE",
"512 705 LINE",
"512 310 LINE",
"543 310 LINE",
"216 705 LINE",
"58 705 LINE",
"58 0 LINE"
);
}
);
width = 771;
},
{
anchors = (
{
name = bottom;
position = "{342, 0}";
},
{
name = top;
position = "{444, 705}";
}
);
background = {
anchors = (
{
name = bottom;
position = "{351, 0}";
},
{
name = top;
position = "{463, 712}";
}
);
paths = (
{
closed = 1;
nodes = (
"118 0 LINE",
"224 667 LINE",
"205 669 LINE",
"589 0 LINE",
"623 0 LINE",
"735 712 LINE",
"695 712 LINE",
"590 45 LINE",
"611 43 LINE",
"226 712 LINE",
"190 712 LINE",
"79 0 LINE"
);
}
);
};
layerId = "5EBC8607-93CF-4E15-8CE6-F0DFD39C8AE8";
paths = (
{
closed = 1;
nodes = (
"96 0 LINE",
"201 663 LINE",
"185 663 LINE",
"567 0 LINE",
"602 0 LINE",
"714 705 LINE",
"675 705 LINE",
"570 42 LINE",
"587 42 LINE",
"205 705 LINE",
"169 705 LINE",
"57 0 LINE"
);
}
);
width = 739;
},
{
anchors = (
{
name = bottom;
position = "{353, 0}";
},
{
name = top;
position = "{449, 705}";
}
);
background = {
anchors = (
{
name = bottom;
position = "{367, 0}";
},
{
name = top;
position = "{476, 712}";
}
);
paths = (
{
closed = 1;
nodes = (
"239 0 LINE",
"307 426 LINE",
"265 395 LINE",
"531 0 LINE",
"692 0 LINE",
"804 712 LINE",
"603 712 LINE",
"535 286 LINE",
"577 316 LINE",
"307 712 LINE",
"151 712 LINE",
"39 0 LINE"
);
}
);
};
layerId = "7E8CE273-6C2A-436A-BEF2-D90EC4D0BD66";
paths = (
{
closed = 1;
nodes = (
"218 0 LINE",
"284 415 LINE",
"251 415 LINE",
"515 0 LINE",
"672 0 LINE",
"784 705 LINE",
"584 705 LINE",
"518 290 LINE",
"551 290 LINE",
"287 705 LINE",
"130 705 LINE",
"18 0 LINE"
);
}
);
width = 771;
},
{
anchors = (
{
name = bottom;
position = "{390, 0}";
},
{
name = top;
position = "{389, 705}";
}
);
associatedMasterId = "2567DF27-EA2D-46C8-A1A0-FA57AF1B0F16";
layerId = "B8FA56BD-7EDE-4576-AB47-8A7B7BD1DCF7";
paths = (
{
closed = 1;
nodes = (
"255 0 LINE",
"255 406 LINE",
"224 406 LINE",
"557 0 LINE",
"710 0 LINE",
"710 705 LINE",
"516 705 LINE",
"516 299 LINE",
"546 299 LINE",
"213 705 LINE",
"60 705 LINE",
"60 0 LINE"
);
}
);
width = 769.7052;
}
);
leftKerningGroup = H;
rightKerningGroup = H;
unicode = 004E;
userData = {
anchors = (
);
b = {
};
com.typemytype.robofont.layerData = {
b = {
anchors = (
);
components = (
);
contours = (
);
lib = {
};
name = N;
unicodes = (
);
width = 1499;
};
};
components = (
);
contours = (
);
lib = {
};
name = N;
unicodes = (
);
width = 1557;
};
},
{
color = 4;
glyphname = Eng;
lastChange = "2019-11-14 11:52:21 +0000";
layers = (
{
anchors = (
{
name = bottom;
position = "{370, 0}";
},
{
name = top;
position = "{370, 705}";
}
);
background = {
paths = (
{
closed = 1;
nodes = (
"603 45 LINE",
"625 43 LINE",
"132 712 LINE",
"97 712 LINE",
"97 0 LINE",
"136 0 LINE",
"136 667 LINE",
"115 669 LINE",
"609 -1 LINE",
"603 32 LINE",
"603 -17 LINE SMOOTH",
"603 -98 OFFCURVE",
"559 -138 OFFCURVE",
"480 -145 CURVE SMOOTH",
"429 -148 LINE",
"432 -188 LINE",
"484 -184 LINE SMOOTH",
"598 -176 OFFCURVE",
"642 -109 OFFCURVE",
"642 -14 CURVE SMOOTH",
"642 712 LINE",
"603 712 LINE"
);
}
);
};
layerId = "2567DF27-EA2D-46C8-A1A0-FA57AF1B0F16";
paths = (
{
closed = 1;
nodes = (
"496 -190 LINE SMOOTH",
"588 -184 OFFCURVE",
"642 -124 OFFCURVE",
"642 -21 CURVE SMOOTH",
"642 705 LINE",
"603 705 LINE",
"603 42 LINE",
"624 42 LINE",
"133 705 LINE",
"97 705 LINE",
"97 0 LINE",
"136 0 LINE",
"136 663 LINE",
"116 663 LINE",
"607 0 LINE",
"603 26 LINE",
"603 -22 LINE SMOOTH",
"603 -102 OFFCURVE",
"563 -147 OFFCURVE",
"491 -152 CURVE SMOOTH",
"448 -155 LINE",
"451 -193 LINE"
);
}
);
width = 739;
},
{
anchors = (
{
name = bottom;
position = "{391, 0}";
},
{
name = top;
position = "{390, 705}";
}
);
background = {
paths = (
{
closed = 1;
nodes = (
"509 286 LINE",
"541 316 LINE",
"214 712 LINE",
"58 712 LINE",
"58 0 LINE",
"259 0 LINE",
"259 426 LINE",
"229 395 LINE",
"546 10 LINE",
"508 119 LINE",
"508 42 LINE SMOOTH",
"508 5 OFFCURVE",
"481 -25 OFFCURVE",
"435 -27 CURVE SMOOTH",
"347 -32 LINE",
"360 -191 LINE",
"474 -185 LINE SMOOTH",
"628 -177 OFFCURVE",
"713 -103 OFFCURVE",
"713 49 CURVE SMOOTH",
"713 712 LINE",
"509 712 LINE"
);
}
);
};
layerId = "FFBF88B9-CE65-4AF8-A771-12A489880E49";
paths = (
{
closed = 1;
nodes = (
"462 -190 LINE SMOOTH",
"655 -177 OFFCURVE",
"713 -118 OFFCURVE",
"713 40 CURVE SMOOTH",
"713 705 LINE",
"512 705 LINE",
"512 310 LINE",
"543 310 LINE",
"216 705 LINE",
"58 705 LINE",
"58 0 LINE",
"260 0 LINE",
"260 395 LINE",
"229 395 LINE",
"555 0 LINE",
"513 76 LINE",
"513 9 LINE SMOOTH",
"513 -24 OFFCURVE",
"495 -38 OFFCURVE",
"458 -42 CURVE SMOOTH",
"402 -48 LINE",
"416 -193 LINE"
);
}
);
width = 771;
},
{
anchors = (
{
name = bottom;
position = "{331, 0}";
},
{
name = top;
position = "{443, 705}";
}
);
background = {
paths = (
{
closed = 1;
nodes = (
"590 45 LINE",
"611 43 LINE",
"226 712 LINE",
"190 712 LINE",
"79 0 LINE",
"118 0 LINE",
"224 667 LINE",
"205 669 LINE",
"589 0 LINE",
"589 32 LINE",
"581 -18 LINE SMOOTH",
"568 -98 OFFCURVE",
"519 -138 OFFCURVE",
"438 -144 CURVE SMOOTH",
"387 -148 LINE",
"383 -188 LINE",
"437 -184 LINE SMOOTH",
"550 -176 OFFCURVE",
"606 -109 OFFCURVE",
"621 -15 CURVE SMOOTH",
"735 712 LINE",
"695 712 LINE"
);
}
);
};
layerId = "5EBC8607-93CF-4E15-8CE6-F0DFD39C8AE8";
paths = (
{
closed = 1;
nodes = (
"431 -190 LINE SMOOTH",
"520 -184 OFFCURVE",
"582 -129 OFFCURVE",
"598 -26 CURVE SMOOTH",
"714 705 LINE",
"675 705 LINE",
"570 42 LINE",
"586 42 LINE",
"205 705 LINE",
"169 705 LINE",
"57 0 LINE",
"96 0 LINE",
"201 663 LINE",
"185 663 LINE",
"567 0 LINE",
"567 23 LINE",
"560 -22 LINE",
"547 -102 OFFCURVE",
"502 -147 OFFCURVE",
"427 -152 CURVE SMOOTH",
"384 -155 LINE",
"386 -193 LINE"
);
}
);
width = 739;
},
{
anchors = (
{
name = bottom;
position = "{343, 0}";
},
{
name = top;
position = "{453, 705}";
}
);
background = {
paths = (
{
closed = 1;
nodes = (
"535 286 LINE",
"577 316 LINE",
"307 712 LINE",
"151 712 LINE",
"39 0 LINE",
"239 0 LINE",
"307 426 LINE",
"265 395 LINE",
"531 0 LINE",
"507 119 LINE",
"496 48 LINE SMOOTH",
"489 5 OFFCURVE",
"458 -25 OFFCURVE",
"405 -28 CURVE SMOOTH",
"315 -32 LINE",
"315 -191 LINE",
"410 -186 LINE SMOOTH",
"590 -177 OFFCURVE",
"678 -95 OFFCURVE",
"702 64 CURVE SMOOTH",
"804 712 LINE",
"603 712 LINE"
);
}
);
};
layerId = "7E8CE273-6C2A-436A-BEF2-D90EC4D0BD66";
paths = (
{
closed = 1;
nodes = (
"417 -190 LINE SMOOTH",
"599 -178 OFFCURVE",
"653 -120 OFFCURVE",
"678 39 CURVE SMOOTH",
"784 705 LINE",
"584 705 LINE",
"518 290 LINE",
"551 290 LINE",
"287 705 LINE",
"130 705 LINE",
"18 0 LINE",
"218 0 LINE",
"284 415 LINE",
"251 415 LINE",
"515 0 LINE",
"485 76 LINE",
"474 8 LINE SMOOTH",
"469 -24 OFFCURVE",
"456 -37 OFFCURVE",
"409 -42 CURVE SMOOTH",
"356 -48 LINE",
"370 -193 LINE"
);
}
);
width = 771;
},
{
anchors = (
{
name = bottom;
position = "{390, 0}";
},
{
name = top;
position = "{389, 705}";
}
);
associatedMasterId = "2567DF27-EA2D-46C8-A1A0-FA57AF1B0F16";
layerId = "B8FA56BD-7EDE-4576-AB47-8A7B7BD1DCF7";
paths = (
{
closed = 1;
nodes = (
"463 -190 LINE SMOOTH",
"652 -177 OFFCURVE",
"710 -118 OFFCURVE",
"710 38 CURVE SMOOTH",
"710 705 LINE",
"516 705 LINE",
"516 299 LINE",
"546 299 LINE",
"213 705 LINE",
"60 705 LINE",
"60 0 LINE",
"255 0 LINE",
"255 406 LINE",
"224 406 LINE",
"557 0 LINE",
"517 74 LINE",
"517 8 LINE SMOOTH",
"517 -27 OFFCURVE",
"498 -42 OFFCURVE",
"459 -46 CURVE SMOOTH",
"404 -52 LINE",
"417 -193 LINE"
);
}
);
width = 769.7052;
}
);
leftKerningGroup = H;
rightKerningGroup = H;
unicode = 014A;
userData = {
com.typemytype.robofont.layerData = {
b = {
anchors = (
);
components = (
);
contours = (
);
lib = {
};
name = Eng;
unicodes = (
);
width = 1495;
};
};
};
},
{
color = 4;
glyphname = O;
lastChange = "2019-11-14 11:52:21 +0000";
layers = (
{
anchors = (
{
name = Qtail;
position = "{379, -8}";
},
{
name = bottom;
position = "{379, 0}";
},
{
name = center;
position = "{387, 353}";
},
{
name = ogonek;
position = "{436, 0}";
},
{
name = top;
position = "{379, 705}";
},
{
name = topleft;
position = "{25, 705}";
},
{
name = topright;
position = "{454, 705}";
}
);
background = {
anchors = (
{
name = bottom;
position = "{379, 0}";
},
{
name = center;
position = "{380, 357}";
},
{
name = ogonek;
position = "{483, 10}";
},
{
name = top;
position = "{379, 712}";
},
{
name = topleft;
position = "{26, 712}";
},
{
name = topright;
position = "{409, 712}";
}
);
paths = (
{
closed = 1;
nodes = (
"572 -8 OFFCURVE",
"691 131 OFFCURVE",
"691 357 CURVE SMOOTH",
"691 582 OFFCURVE",
"573 720 OFFCURVE",
"379 720 CURVE SMOOTH",
"185 720 OFFCURVE",
"68 582 OFFCURVE",
"68 356 CURVE SMOOTH",
"68 131 OFFCURVE",
"187 -8 OFFCURVE",
"379 -8 CURVE SMOOTH"
);
},
{
closed = 1;
nodes = (
"210 33 OFFCURVE",
"113 153 OFFCURVE",
"113 357 CURVE SMOOTH",
"113 561 OFFCURVE",
"210 679 OFFCURVE",
"379 679 CURVE SMOOTH",
"549 679 OFFCURVE",
"645 562 OFFCURVE",
"645 357 CURVE SMOOTH",
"645 152 OFFCURVE",
"547 33 OFFCURVE",
"379 33 CURVE SMOOTH"
);
}
);
};
layerId = "2567DF27-EA2D-46C8-A1A0-FA57AF1B0F16";
paths = (
{
closed = 1;
nodes = (
"569 -8 OFFCURVE",
"691 130 OFFCURVE",
"691 354 CURVE SMOOTH",
"691 576 OFFCURVE",
"570 713 OFFCURVE",
"379 713 CURVE SMOOTH",
"181 713 OFFCURVE",
"68 576 OFFCURVE",
"68 353 CURVE SMOOTH",
"68 130 OFFCURVE",
"183 -8 OFFCURVE",
"379 -8 CURVE SMOOTH"
);
},
{
closed = 1;
nodes = (
"206 33 OFFCURVE",
"113 151 OFFCURVE",
"113 353 CURVE SMOOTH",
"113 555 OFFCURVE",
"206 672 OFFCURVE",
"379 672 CURVE SMOOTH",
"547 672 OFFCURVE",
"646 556 OFFCURVE",
"646 353 CURVE SMOOTH",
"646 150 OFFCURVE",
"546 33 OFFCURVE",
"379 33 CURVE SMOOTH"
);
}
);
width = 759;
},
{
anchors = (
{
name = Qtail;
position = "{407, -12}";
},
{
name = bottom;
position = "{407, 0}";
},
{
name = center;
position = "{418, 353}";
},
{
name = ogonek;
position = "{483, 0}";
},
{
name = top;
position = "{407, 705}";
},
{
name = topleft;
position = "{25, 705}";
},
{
name = topright;
position = "{485, 705}";
}
);
background = {
anchors = (
{
name = bottom;
position = "{408, 0}";
},
{
name = center;
position = "{407, 357}";
},
{
name = ogonek;
position = "{533, 10}";
},
{
name = top;
position = "{406, 712}";
},
{
name = topleft;
position = "{20, 712}";
},
{
name = topright;
position = "{438, 712}";
}
);
paths = (
{
closed = 1;
nodes = (
"633 -9 OFFCURVE",
"772 134 OFFCURVE",
"772 357 CURVE SMOOTH",
"772 579 OFFCURVE",
"632 721 OFFCURVE",
"408 721 CURVE SMOOTH",
"184 721 OFFCURVE",
"41 579 OFFCURVE",
"41 357 CURVE SMOOTH",
"41 134 OFFCURVE",
"183 -9 OFFCURVE",
"408 -9 CURVE SMOOTH"
);
},
{
closed = 1;
nodes = (
"317 154 OFFCURVE",
"256 218 OFFCURVE",
"256 357 CURVE SMOOTH",
"256 495 OFFCURVE",
"317 558 OFFCURVE",
"408 558 CURVE SMOOTH",
"499 558 OFFCURVE",
"560 493 OFFCURVE",
"560 357 CURVE SMOOTH",
"560 220 OFFCURVE",
"499 154 OFFCURVE",
"408 154 CURVE SMOOTH"
);
}
);
};
layerId = "FFBF88B9-CE65-4AF8-A771-12A489880E49";
paths = (
{
closed = 1;
nodes = (
"631 -12 OFFCURVE",
"773 135 OFFCURVE",
"773 353 CURVE SMOOTH",
"773 571 OFFCURVE",
"631 717 OFFCURVE",
"406 717 CURVE SMOOTH",
"182 717 OFFCURVE",
"41 571 OFFCURVE",
"41 353 CURVE SMOOTH",
"41 136 OFFCURVE",
"182 -12 OFFCURVE",
"406 -12 CURVE SMOOTH"
);
},
{
closed = 1;
nodes = (
"310 167 OFFCURVE",
"267 236 OFFCURVE",
"267 353 CURVE SMOOTH",
"267 470 OFFCURVE",
"310 538 OFFCURVE",
"406 538 CURVE SMOOTH",
"502 538 OFFCURVE",
"547 469 OFFCURVE",
"547 353 CURVE SMOOTH",
"547 237 OFFCURVE",
"502 167 OFFCURVE",
"406 167 CURVE SMOOTH"
);
}
);
width = 814;
},
{
anchors = (
{
name = Qtail;
position = "{341, -8}";
},
{
name = bottom;
position = "{344, 0}";
},
{
name = center;
position = "{404, 353}";
},
{
name = ogonek;
position = "{397, 0}";
},
{
name = top;
position = "{434, 705}";
},
{
name = topleft;
position = "{98, 705}";
},
{
name = topright;
position = "{484, 705}";
}
);
background = {
anchors = (
{
name = bottom;
position = "{360, 0}";
},
{
name = center;
position = "{417, 357}";
},
{
name = ogonek;
position = "{466, 10}";
},
{
name = top;
position = "{471, 712}";
},
{
name = topleft;
position = "{119, 712}";
},
{
name = topright;
position = "{501, 712}";
}
);
paths = (
{
closed = 1;
nodes = (
"585 -8 OFFCURVE",
"732 173 OFFCURVE",
"732 429 CURVE SMOOTH",
"732 611 OFFCURVE",
"630 720 OFFCURVE",
"453 720 CURVE SMOOTH",
"247 720 OFFCURVE",
"100 538 OFFCURVE",
"100 282 CURVE SMOOTH",
"100 101 OFFCURVE",
"203 -8 OFFCURVE",
"379 -8 CURVE SMOOTH"
);
},
{
closed = 1;
nodes = (
"229 34 OFFCURVE",
"145 123 OFFCURVE",
"145 282 CURVE SMOOTH",
"145 518 OFFCURVE",
"269 678 OFFCURVE",
"450 678 CURVE SMOOTH",
"604 678 OFFCURVE",
"686 589 OFFCURVE",
"686 430 CURVE SMOOTH",
"686 194 OFFCURVE",
"563 34 OFFCURVE",
"383 34 CURVE SMOOTH"
);
}
);
};
layerId = "5EBC8607-93CF-4E15-8CE6-F0DFD39C8AE8";
paths = (
{
closed = 1;
nodes = (
"594 -8 OFFCURVE",
"709 179 OFFCURVE",
"709 416 CURVE SMOOTH",
"709 609 OFFCURVE",
"606 713 OFFCURVE",
"432 713 CURVE SMOOTH",
"198 713 OFFCURVE",
"83 526 OFFCURVE",
"83 289 CURVE SMOOTH",
"83 96 OFFCURVE",
"186 -8 OFFCURVE",
"360 -8 CURVE SMOOTH"
);
},
{
closed = 1;
nodes = (
"211 33 OFFCURVE",
"128 116 OFFCURVE",
"128 289 CURVE SMOOTH",
"128 507 OFFCURVE",
"229 672 OFFCURVE",
"429 672 CURVE SMOOTH",
"581 672 OFFCURVE",
"664 589 OFFCURVE",
"664 416 CURVE SMOOTH",
"664 199 OFFCURVE",
"563 33 OFFCURVE",
"362 33 CURVE SMOOTH"
);
}
);
width = 759;
},
{
anchors = (
{
name = Qtail;
position = "{385, -12}";
},
{
name = bottom;
position = "{373, 0}";
},
{
name = center;
position = "{422, 353}";
},
{
name = ogonek;
position = "{452, 0}";
},
{
name = top;
position = "{458, 705}";
},
{
name = topleft;
position = "{96, 705}";
},
{
name = topright;
position = "{528, 705}";
}
);
background = {
anchors = (
{
name = bottom;
position = "{387, 0}";
},
{
name = center;
position = "{442, 357}";
},
{
name = ogonek;
position = "{514, 10}";
},
{
name = top;
position = "{496, 712}";
},
{
name = topleft;
position = "{111, 712}";
},
{
name = topright;
position = "{529, 712}";
}
);
paths = (
{
closed = 1;
nodes = (
"643 -11 OFFCURVE",
"810 166 OFFCURVE",
"810 413 CURVE SMOOTH",
"810 606 OFFCURVE",
"680 723 OFFCURVE",
"474 723 CURVE SMOOTH",
"240 723 OFFCURVE",
"73 547 OFFCURVE",
"73 299 CURVE SMOOTH",
"73 107 OFFCURVE",
"201 -11 OFFCURVE",
"409 -11 CURVE SMOOTH"
);
},
{
closed = 1;
nodes = (
"335 154 OFFCURVE",
"287 209 OFFCURVE",
"287 308 CURVE SMOOTH",
"287 457 OFFCURVE",
"359 558 OFFCURVE",
"464 558 CURVE SMOOTH",
"546 558 OFFCURVE",
"596 502 OFFCURVE",
"596 402 CURVE SMOOTH",
"596 256 OFFCURVE",
"524 154 OFFCURVE",
"420 154 CURVE SMOOTH"
);
}
);
};
layerId = "7E8CE273-6C2A-436A-BEF2-D90EC4D0BD66";
paths = (
{
closed = 1;
nodes = (
"631 -12 OFFCURVE",
"789 151 OFFCURVE",
"789 397 CURVE SMOOTH",
"789 597 OFFCURVE",
"654 717 OFFCURVE",
"445 717 CURVE SMOOTH",
"215 717 OFFCURVE",
"56 554 OFFCURVE",
"56 308 CURVE SMOOTH",
"56 108 OFFCURVE",
"192 -12 OFFCURVE",
"400 -12 CURVE SMOOTH"
);
},
{
closed = 1;
nodes = (
"325 167 OFFCURVE",
"279 214 OFFCURVE",
"279 312 CURVE SMOOTH",
"279 448 OFFCURVE",
"339 538 OFFCURVE",
"442 538 CURVE SMOOTH",
"520 538 OFFCURVE",
"566 491 OFFCURVE",
"566 393 CURVE SMOOTH",
"566 257 OFFCURVE",
"506 167 OFFCURVE",
"403 167 CURVE SMOOTH"
);
}
);
width = 814;
},
{
anchors = (
{
name = Qtail;
position = "{406, -12}";
},
{
name = bottom;
position = "{406, 0}";
},
{
name = center;
position = "{417, 353}";
},
{
name = ogonek;
position = "{481, 0}";
},
{
name = top;
position = "{406, 705}";
},
{
name = topleft;
position = "{25, 705}";
},
{
name = topright;
position = "{484, 705}";
}
);
associatedMasterId = "2567DF27-EA2D-46C8-A1A0-FA57AF1B0F16";
layerId = "B8FA56BD-7EDE-4576-AB47-8A7B7BD1DCF7";
paths = (
{
closed = 1;
nodes = (
"628 -12 OFFCURVE",
"770 135 OFFCURVE",
"770 353 CURVE SMOOTH",
"770 571 OFFCURVE",
"629 717 OFFCURVE",
"405 717 CURVE SMOOTH",
"182 717 OFFCURVE",
"42 571 OFFCURVE",
"42 353 CURVE SMOOTH",
"42 136 OFFCURVE",
"182 -12 OFFCURVE",
"405 -12 CURVE SMOOTH"
);
},
{
closed = 1;
nodes = (
"306 162 OFFCURVE",
"261 233 OFFCURVE",
"261 353 CURVE SMOOTH",
"261 473 OFFCURVE",
"306 543 OFFCURVE",
"405 543 CURVE SMOOTH",
"504 543 OFFCURVE",
"551 473 OFFCURVE",
"551.006 353 CURVE SMOOTH",
"551 233 OFFCURVE",
"504 162 OFFCURVE",
"405 162 CURVE SMOOTH"
);
}
);
width = 811.77457;
}
);
leftKerningGroup = O;
rightKerningGroup = O;
unicode = 004F;
userData = {
anchors = (
);
b = {
};
com.typemytype.robofont.guides = (
);
com.typemytype.robofont.layerData = {
b = {
anchors = (
);
components = (
);
contours = (
);
lib = {
};
name = O;
unicodes = (
);
width = 1597;
};
};
components = (
);
contours = (
);
lib = {
};
name = O;
unicodes = (
);
width = 1604;
};
},
{
color = 4;
glyphname = Oslash;
lastChange = "2019-11-14 11:52:21 +0000";
layers = (
{
background = {
anchors = (
{
name = bottom;
position = "{379, 0}";
},
{
name = top;
position = "{379, 712}";
}
);
paths = (
{
closed = 1;
nodes = (
"572 -8 OFFCURVE",
"691 131 OFFCURVE",
"691 357 CURVE SMOOTH",
"691 582 OFFCURVE",
"573 720 OFFCURVE",
"379 720 CURVE SMOOTH",
"185 720 OFFCURVE",
"68 582 OFFCURVE",
"68 356 CURVE SMOOTH",
"68 131 OFFCURVE",
"187 -8 OFFCURVE",
"379 -8 CURVE SMOOTH"
);
},
{
closed = 1;
nodes = (
"619 729 LINE",
"586 747 LINE",
"139 -17 LINE",
"173 -35 LINE"
);
},
{
closed = 1;
nodes = (
"210 33 OFFCURVE",
"113 153 OFFCURVE",
"113 357 CURVE SMOOTH",
"113 561 OFFCURVE",
"210 679 OFFCURVE",
"379 679 CURVE SMOOTH",
"549 679 OFFCURVE",
"645 562 OFFCURVE",
"645 357 CURVE SMOOTH",
"645 152 OFFCURVE",
"547 33 OFFCURVE",
"379 33 CURVE SMOOTH"
);
}
);
};
components = (
{
name = O;
},
{
name = slashlongcomb.case;
transform = "{1, 0, 0, 1, 137, 0}";
}
);
layerId = "2567DF27-EA2D-46C8-A1A0-FA57AF1B0F16";
width = 759;
},
{
background = {
anchors = (
{
name = bottom;
position = "{408, 0}";
},
{
name = top;
position = "{406, 712}";
}
);
paths = (
{
closed = 1;
nodes = (
"633 -9 OFFCURVE",
"772 134 OFFCURVE",
"772 357 CURVE SMOOTH",
"772 579 OFFCURVE",
"632 721 OFFCURVE",
"408 721 CURVE SMOOTH",
"184 721 OFFCURVE",
"41 579 OFFCURVE",
"41 357 CURVE SMOOTH",
"41 134 OFFCURVE",
"183 -9 OFFCURVE",
"408 -9 CURVE SMOOTH"
);
},
{
closed = 1;
nodes = (
"707 716 LINE",
"573 797 LINE",
"107 -4 LINE",
"241 -85 LINE"
);
},
{
closed = 1;
nodes = (
"317 154 OFFCURVE",
"256 218 OFFCURVE",
"256 357 CURVE SMOOTH",
"256 495 OFFCURVE",
"317 558 OFFCURVE",
"408 558 CURVE SMOOTH",
"499 558 OFFCURVE",
"560 493 OFFCURVE",
"560 357 CURVE SMOOTH",
"560 220 OFFCURVE",
"499 154 OFFCURVE",
"408 154 CURVE SMOOTH"
);
}
);
};
components = (
{
name = O;
},
{
name = slashlongcomb.case;
transform = "{1, 0, 0, 1, 168, 0}";
}
);
layerId = "FFBF88B9-CE65-4AF8-A771-12A489880E49";
width = 814;
},
{
background = {
anchors = (
{
name = bottom;
position = "{360, 0}";
},
{
name = top;
position = "{471, 712}";
}
);
paths = (
{
closed = 1;
nodes = (
"585 -8 OFFCURVE",
"732 173 OFFCURVE",
"732 429 CURVE SMOOTH",
"732 611 OFFCURVE",
"630 720 OFFCURVE",
"453 720 CURVE SMOOTH",
"247 720 OFFCURVE",
"100 538 OFFCURVE",
"100 282 CURVE SMOOTH",
"100 101 OFFCURVE",
"203 -8 OFFCURVE",
"379 -8 CURVE SMOOTH"
);
},
{
closed = 1;
nodes = (
"229 34 OFFCURVE",
"145 123 OFFCURVE",
"145 282 CURVE SMOOTH",
"145 518 OFFCURVE",
"269 678 OFFCURVE",
"450 678 CURVE SMOOTH",
"604 678 OFFCURVE",
"686 589 OFFCURVE",
"686 430 CURVE SMOOTH",
"686 194 OFFCURVE",
"563 34 OFFCURVE",
"383 34 CURVE SMOOTH"
);
},
{
closed = 1;
nodes = (
"716 726 LINE",
"685 747 LINE",
"117 -14 LINE",
"148 -35 LINE"
);
}
);
};
components = (
{
name = O;
},
{
name = slashlongcomb.case;
transform = "{1, 0, 0, 1, 137, 0}";
}
);
layerId = "5EBC8607-93CF-4E15-8CE6-F0DFD39C8AE8";
width = 759;
},
{
background = {
anchors = (
{
name = bottom;
position = "{389, 0}";
},
{
name = top;
position = "{498, 712}";
}
);
paths = (
{
closed = 1;
nodes = (
"645 -11 OFFCURVE",
"812 166 OFFCURVE",
"812 413 CURVE SMOOTH",
"812 606 OFFCURVE",
"682 723 OFFCURVE",
"476 723 CURVE SMOOTH",
"242 723 OFFCURVE",
"75 547 OFFCURVE",
"75 299 CURVE SMOOTH",
"75 107 OFFCURVE",
"203 -11 OFFCURVE",
"411 -11 CURVE SMOOTH"
);
},
{
closed = 1;
nodes = (
"337 154 OFFCURVE",
"289 209 OFFCURVE",
"289 308 CURVE SMOOTH",
"289 457 OFFCURVE",
"361 558 OFFCURVE",
"466 558 CURVE SMOOTH",
"548 558 OFFCURVE",
"598 502 OFFCURVE",
"598 402 CURVE SMOOTH",
"598 256 OFFCURVE",
"526 154 OFFCURVE",
"422 154 CURVE SMOOTH"
);
},
{
closed = 1;
nodes = (
"800 718 LINE",
"679 797 LINE",
"88 -6 LINE",
"209 -85 LINE"
);
}
);
};
components = (
{
name = O;
},
{
name = slashlongcomb.case;
transform = "{1, 0, 0, 1, 155, 0}";
}
);
layerId = "7E8CE273-6C2A-436A-BEF2-D90EC4D0BD66";
width = 814;
},
{
associatedMasterId = "2567DF27-EA2D-46C8-A1A0-FA57AF1B0F16";
components = (
{
name = O;
},
{
name = slashlongcomb.case;
transform = "{1, 0, 0, 1, 167, 0}";
}
);
layerId = "B8FA56BD-7EDE-4576-AB47-8A7B7BD1DCF7";
width = 812;
}
);
leftKerningGroup = O;
rightKerningGroup = O;
unicode = 00D8;
userData = {
com.typemytype.robofont.layerData = {
b = {
anchors = (
);
components = (
);
contours = (
);
lib = {
};
name = Oslash;
unicodes = (
);
width = 1597;
};
};
};
},
{
color = 4;
glyphname = Ohorn;
lastChange = "2019-11-14 11:52:21 +0000";
layers = (
{
anchors = (
{
name = bottom;
position = "{388, 0}";
},
{
name = top;
position = "{387, 705}";
}
);
background = {
anchors = (
{
name = bottom;
position = "{380, 0}";
},
{
name = top;
position = "{379, 712}";
}
);
paths = (
{
closed = 1;
nodes = (
"570 -8 OFFCURVE",
"691 131 OFFCURVE",
"691 357 CURVE SMOOTH",
"691 515 OFFCURVE",
"632 631 OFFCURVE",
"525 686 CURVE",
"534 674 LINE",
"634 674 OFFCURVE",
"691 727 OFFCURVE",
"691 820 CURVE SMOOTH",
"691 840 LINE",
"650 840 LINE",
"650 827 LINE SMOOTH",
"650 745 OFFCURVE",
"617 713 OFFCURVE",
"527 712 CURVE SMOOTH",
"488 712 OFFCURVE",
"431 720 OFFCURVE",
"383 720 CURVE SMOOTH",
"185 720 OFFCURVE",
"68 582 OFFCURVE",
"68 356 CURVE SMOOTH",
"68 131 OFFCURVE",
"188 -8 OFFCURVE",
"379 -8 CURVE SMOOTH"
);
},
{
closed = 1;
nodes = (
"210 33 OFFCURVE",
"113 153 OFFCURVE",
"113 357 CURVE SMOOTH",
"113 561 OFFCURVE",
"210 679 OFFCURVE",
"379 679 CURVE SMOOTH",
"549 679 OFFCURVE",
"645 562 OFFCURVE",
"645 357 CURVE SMOOTH",
"645 152 OFFCURVE",
"547 33 OFFCURVE",
"379 33 CURVE SMOOTH"
);
}
);
};
components = (
{
name = O;
},
{
name = horncomb.O.case;
transform = "{1, 0, 0, 1, 204, 0}";
}
);
layerId = "2567DF27-EA2D-46C8-A1A0-FA57AF1B0F16";
width = 759;
},
{
anchors = (
{
name = bottom;
position = "{416, 0}";
},
{
name = top;
position = "{414, 705}";
}
);
background = {
anchors = (
{
name = bottom;
position = "{407, 0}";
},
{
name = top;
position = "{406, 712}";
}
);
paths = (
{
closed = 1;
nodes = (
"633 -9 OFFCURVE",
"772 134 OFFCURVE",
"772 357 CURVE SMOOTH",
"772 482 OFFCURVE",
"732 581 OFFCURVE",
"648 646 CURVE",
"621 619 LINE",
"706 619 OFFCURVE",
"772 691 OFFCURVE",
"772 784 CURVE SMOOTH",
"772 832 LINE",
"595 832 LINE",
"595 808 LINE SMOOTH",
"595 737 OFFCURVE",
"577 712 OFFCURVE",
"524 712 CURVE SMOOTH",
"478 712 OFFCURVE",
"457 721 OFFCURVE",
"409 721 CURVE SMOOTH",
"184 721 OFFCURVE",
"41 579 OFFCURVE",
"41 357 CURVE SMOOTH",
"41 134 OFFCURVE",
"182 -9 OFFCURVE",
"408 -9 CURVE SMOOTH"
);
},
{
closed = 1;
nodes = (
"317 154 OFFCURVE",
"256 218 OFFCURVE",
"256 357 CURVE SMOOTH",
"256 495 OFFCURVE",
"317 558 OFFCURVE",
"408 558 CURVE SMOOTH",
"499 558 OFFCURVE",
"560 493 OFFCURVE",
"560 357 CURVE SMOOTH",
"560 220 OFFCURVE",
"499 154 OFFCURVE",
"408 154 CURVE SMOOTH"
);
}
);
};
components = (
{
name = O;
},
{
name = horncomb.O.case;
transform = "{1, 0, 0, 1, 235, 0}";
}
);
layerId = "FFBF88B9-CE65-4AF8-A771-12A489880E49";
width = 814;
},
{
anchors = (
{
name = bottom;
position = "{362, 0}";
},
{
name = top;
position = "{452, 705}";
}
);
background = {
anchors = (
{
name = bottom;
position = "{361, 0}";
},
{
name = top;
position = "{471, 712}";
}
);
paths = (
{
closed = 1;
nodes = (
"585 -8 OFFCURVE",
"732 173 OFFCURVE",
"732 428 CURVE SMOOTH",
"732 560 OFFCURVE",
"678 644 OFFCURVE",
"611 683 CURVE",
"615 674 LINE",
"744 674 OFFCURVE",
"788 739 OFFCURVE",
"800 820 CURVE SMOOTH",
"803 840 LINE",
"763 840 LINE",
"761 827 LINE SMOOTH",
"748 745 OFFCURVE",
"710 712 OFFCURVE",
"620 712 CURVE SMOOTH",
"557 712 OFFCURVE",
"511 720 OFFCURVE",
"463 720 CURVE SMOOTH",
"247 720 OFFCURVE",
"100 541 OFFCURVE",
"100 282 CURVE SMOOTH",
"100 101 OFFCURVE",
"203 -8 OFFCURVE",
"379 -8 CURVE SMOOTH"
);
},
{
closed = 1;
nodes = (
"229 34 OFFCURVE",
"145 123 OFFCURVE",
"145 282 CURVE SMOOTH",
"145 518 OFFCURVE",
"269 678 OFFCURVE",
"450 678 CURVE SMOOTH",
"604 678 OFFCURVE",
"686 589 OFFCURVE",
"686 430 CURVE SMOOTH",
"686 194 OFFCURVE",
"563 34 OFFCURVE",
"383 34 CURVE SMOOTH"
);
}
);
};
components = (
{
name = O;
},
{
name = horncomb.O.case;
transform = "{1, 0, 0, 1, 161, 0}";
}
);
layerId = "5EBC8607-93CF-4E15-8CE6-F0DFD39C8AE8";
width = 759;
},
{
anchors = (
{
name = bottom;
position = "{388, 0}";
},
{
name = top;
position = "{456, 705}";
}
);
background = {
anchors = (
{
name = bottom;
position = "{388, 0}";
},
{
name = top;
position = "{498, 712}";
}
);
paths = (
{
closed = 1;
nodes = (
"646 -11 OFFCURVE",
"812 166 OFFCURVE",
"812 416 CURVE SMOOTH",
"812 513 OFFCURVE",
"781 593 OFFCURVE",
"716 647 CURVE",
"705 619 LINE",
"786 619 OFFCURVE",
"861 690 OFFCURVE",
"877 784 CURVE SMOOTH",
"885 832 LINE",
"708 832 LINE",
"704 808 LINE SMOOTH",
"692 737 OFFCURVE",
"674 712 OFFCURVE",
"617 712 CURVE SMOOTH",
"580 712 OFFCURVE",
"550 723 OFFCURVE",
"486 723 CURVE SMOOTH",
"244 723 OFFCURVE",
"75 548 OFFCURVE",
"75 299 CURVE SMOOTH",
"75 107 OFFCURVE",
"203 -11 OFFCURVE",
"411 -11 CURVE SMOOTH"
);
},
{
closed = 1;
nodes = (
"337 154 OFFCURVE",
"289 209 OFFCURVE",
"289 308 CURVE SMOOTH",
"289 457 OFFCURVE",
"361 558 OFFCURVE",
"466 558 CURVE SMOOTH",
"548 558 OFFCURVE",
"598 502 OFFCURVE",
"598 402 CURVE SMOOTH",
"598 256 OFFCURVE",
"526 154 OFFCURVE",
"422 154 CURVE SMOOTH"
);
}
);
};
components = (
{
name = O;
},
{
name = horncomb.O.case;
transform = "{1, 0, 0, 1, 205, 0}";
}
);
layerId = "7E8CE273-6C2A-436A-BEF2-D90EC4D0BD66";
width = 814;
},
{
anchors = (
{
name = bottom;
position = "{415, 0}";
},
{
name = top;
position = "{413, 705}";
}
);
associatedMasterId = "2567DF27-EA2D-46C8-A1A0-FA57AF1B0F16";
components = (
{
name = O;
},
{
name = horncomb.O.case;
transform = "{1, 0, 0, 1, 234, 0}";
}
);
layerId = "B8FA56BD-7EDE-4576-AB47-8A7B7BD1DCF7";
width = 812;
}
);
leftKerningGroup = O;
rightKerningGroup = O;
unicode = 01A0;
},
{
color = 4;
glyphname = Oogonek;
lastChange = "2019-11-14 11:52:21 +0000";
layers = (
{
anchors = (
{
name = top;
position = "{387, 705}";
}
);
background = {
anchors = (
{
name = top;
position = "{379, 712}";
}
);
paths = (
{
closed = 1;
nodes = (
"610 42 OFFCURVE",
"691 169 OFFCURVE",
"691 357 CURVE SMOOTH",
"691 582 OFFCURVE",
"572 720 OFFCURVE",
"379 720 CURVE SMOOTH",
"186 720 OFFCURVE",
"68 582 OFFCURVE",
"68 356 CURVE SMOOTH",
"68 119 OFFCURVE",
"201 -22 OFFCURVE",
"407 -7 CURVE",
"400 11 LINE",
"365 -11 OFFCURVE",
"342 -48 OFFCURVE",
"342 -89 CURVE SMOOTH",
"342 -150 OFFCURVE",
"389 -192 OFFCURVE",
"456 -192 CURVE SMOOTH",
"486 -192 OFFCURVE",
"513 -184 OFFCURVE",
"533 -169 CURVE",
"517 -134 LINE",
"496 -145 OFFCURVE",
"475 -153 OFFCURVE",
"458 -153 CURVE SMOOTH",
"414 -153 OFFCURVE",
"388 -127 OFFCURVE",
"388 -85 CURVE SMOOTH",
"388 -41 OFFCURVE",
"414 -11 OFFCURVE",
"466 3 CURVE SMOOTH"
);
},
{
closed = 1;
nodes = (
"113 561 OFFCURVE",
"210 679 OFFCURVE",
"379 679 CURVE SMOOTH",
"549 679 OFFCURVE",
"645 562 OFFCURVE",
"645 357 CURVE SMOOTH",
"645 152 OFFCURVE",
"547 33 OFFCURVE",
"379 33 CURVE SMOOTH",
"210 33 OFFCURVE",
"113 153 OFFCURVE",
"113 357 CURVE SMOOTH"
);
}
);
};
components = (
{
name = O;
},
{
name = ogonekcomb;
transform = "{1, 0, 0, 1, 186, 0}";
}
);
layerId = "2567DF27-EA2D-46C8-A1A0-FA57AF1B0F16";
width = 759;
},
{
anchors = (
{
name = top;
position = "{415, 705}";
}
);
background = {
anchors = (
{
name = top;
position = "{406, 712}";
}
);
paths = (
{
closed = 1;
nodes = (
"685 52 OFFCURVE",
"772 180 OFFCURVE",
"772 357 CURVE SMOOTH",
"772 579 OFFCURVE",
"633 721 OFFCURVE",
"408 721 CURVE SMOOTH",
"183 721 OFFCURVE",
"41 579 OFFCURVE",
"41 357 CURVE SMOOTH",
"41 129 OFFCURVE",
"188 -14 OFFCURVE",
"418 -10 CURVE",
"403 12 LINE",
"369 -11 OFFCURVE",
"350 -48 OFFCURVE",
"350 -88 CURVE SMOOTH",
"350 -154 OFFCURVE",
"408 -202 OFFCURVE",
"488 -202 CURVE SMOOTH",
"526 -202 OFFCURVE",
"565 -195 OFFCURVE",
"601 -183 CURVE",
"583 -94 LINE",
"564 -100 OFFCURVE",
"547 -103 OFFCURVE",
"530 -103 CURVE SMOOTH",
"495 -103 OFFCURVE",
"475 -88 OFFCURVE",
"475 -56 CURVE SMOOTH",
"475 -27 OFFCURVE",
"495 -7 OFFCURVE",
"532 6 CURVE SMOOTH"
);
},
{
closed = 1;
nodes = (
"256 495 OFFCURVE",
"317 558 OFFCURVE",
"408 558 CURVE SMOOTH",
"499 558 OFFCURVE",
"560 493 OFFCURVE",
"560 357 CURVE SMOOTH",
"560 220 OFFCURVE",
"499 154 OFFCURVE",
"408 154 CURVE SMOOTH",
"317 154 OFFCURVE",
"256 218 OFFCURVE",
"256 357 CURVE SMOOTH"
);
}
);
};
components = (
{
name = O;
},
{
name = ogonekcomb;
transform = "{1, 0, 0, 1, 233, 0}";
}
);
layerId = "FFBF88B9-CE65-4AF8-A771-12A489880E49";
width = 814;
},
{
anchors = (
{
name = top;
position = "{462, 705}";
}
);
background = {
anchors = (
{
name = top;
position = "{471, 712}";
}
);
paths = (
{
closed = 1;
nodes = (
"615 36 OFFCURVE",
"732 200 OFFCURVE",
"732 429 CURVE SMOOTH",
"732 611 OFFCURVE",
"630 720 OFFCURVE",
"453 720 CURVE SMOOTH",
"247 720 OFFCURVE",
"100 538 OFFCURVE",
"100 282 CURVE SMOOTH",
"100 101 OFFCURVE",
"202 -7 OFFCURVE",
"372 -7 CURVE",
"383 10 LINE",
"339 -10 OFFCURVE",
"308 -52 OFFCURVE",
"308 -104 CURVE SMOOTH",
"308 -158 OFFCURVE",
"346 -192 OFFCURVE",
"407 -192 CURVE SMOOTH",
"439 -192 OFFCURVE",
"471 -181 OFFCURVE",
"488 -169 CURVE",
"478 -133 LINE",
"455 -146 OFFCURVE",
"429 -153 OFFCURVE",
"414 -153 CURVE SMOOTH",
"378 -153 OFFCURVE",
"356 -134 OFFCURVE",
"356 -97 CURVE SMOOTH",
"356 -49 OFFCURVE",
"386 -14 OFFCURVE",
"450 0 CURVE SMOOTH"
);
},
{
closed = 1;
nodes = (
"229 34 OFFCURVE",
"145 123 OFFCURVE",
"145 282 CURVE SMOOTH",
"145 518 OFFCURVE",
"269 678 OFFCURVE",
"450 678 CURVE SMOOTH",
"604 678 OFFCURVE",
"686 589 OFFCURVE",
"686 430 CURVE SMOOTH",
"686 194 OFFCURVE",
"563 34 OFFCURVE",
"383 34 CURVE SMOOTH"
);
}
);
};
components = (
{
name = O;
},
{
name = ogonekcomb;
transform = "{1, 0, 0, 1, 186, 0}";
}
);
layerId = "5EBC8607-93CF-4E15-8CE6-F0DFD39C8AE8";
width = 759;
},
{
anchors = (
{
name = top;
position = "{449, 705}";
}
);
background = {
anchors = (
{
name = top;
position = "{498, 712}";
}
);
paths = (
{
closed = 1;
nodes = (
"692 39 OFFCURVE",
"812 207 OFFCURVE",
"812 414 CURVE SMOOTH",
"812 606 OFFCURVE",
"688 723 OFFCURVE",
"476 723 CURVE SMOOTH",
"242 723 OFFCURVE",
"75 547 OFFCURVE",
"75 299 CURVE SMOOTH",
"75 106 OFFCURVE",
"203 -11 OFFCURVE",
"404 -10 CURVE",
"386 13 LINE",
"340 -15 OFFCURVE",
"317 -55 OFFCURVE",
"317 -100 CURVE SMOOTH",
"317 -159 OFFCURVE",
"366 -202 OFFCURVE",
"446 -202 CURVE SMOOTH",
"483 -202 OFFCURVE",
"515 -196 OFFCURVE",
"552 -183 CURVE",
"549 -94 LINE",
"526 -100 OFFCURVE",
"511 -103 OFFCURVE",
"493 -103 CURVE SMOOTH",
"465 -103 OFFCURVE",
"446 -88 OFFCURVE",
"446 -63 CURVE SMOOTH",
"446 -30 OFFCURVE",
"474 -8 OFFCURVE",
"517 1 CURVE SMOOTH"
);
},
{
closed = 1;
nodes = (
"337 154 OFFCURVE",
"289 209 OFFCURVE",
"289 308 CURVE SMOOTH",
"289 457 OFFCURVE",
"361 558 OFFCURVE",
"466 558 CURVE SMOOTH",
"548 558 OFFCURVE",
"598 502 OFFCURVE",
"598 402 CURVE SMOOTH",
"598 256 OFFCURVE",
"526 154 OFFCURVE",
"422 154 CURVE SMOOTH"
);
}
);
};
components = (
{
name = O;
},
{
name = ogonekcomb;
transform = "{1, 0, 0, 1, 241, 0}";
}
);
layerId = "7E8CE273-6C2A-436A-BEF2-D90EC4D0BD66";
width = 814;
},
{
anchors = (
{
name = top;
position = "{414, 705}";
}
);
associatedMasterId = "2567DF27-EA2D-46C8-A1A0-FA57AF1B0F16";
components = (
{
name = O;
},
{
name = ogonekcomb;
transform = "{1, 0, 0, 1, 231, 0}";
}
);
layerId = "B8FA56BD-7EDE-4576-AB47-8A7B7BD1DCF7";
width = 812;
}
);
leftKerningGroup = O;
rightKerningGroup = O;
unicode = 01EA;
},
{
color = 4;
glyphname = OE;
lastChange = "2019-11-14 11:52:21 +0000";
layers = (
{
anchors = (
{
name = bottom;
position = "{603, 0}";
},
{
name = top;
position = "{603, 705}";
}
);
background = {
anchors = (
{
name = bottom;
position = "{537, 0}";
},
{
name = top;
position = "{536, 712}";
}
);
paths = (
{
closed = 1;
nodes = (
"1000 0 LINE",
"1000 39 LINE",
"614 39 LINE",
"614 341 LINE",
"980 341 LINE",
"980 381 LINE",
"614 381 LINE",
"614 673 LINE",
"1000 673 LINE",
"1000 712 LINE",
"572 712 LINE",
"572 647 LINE",
"572 631 LINE",
"572 83 LINE",
"572 66 LINE",
"572 0 LINE"
);
},
{
closed = 1;
nodes = (
"587 651 LINE",
"531 697 OFFCURVE",
"462 720 OFFCURVE",
"381 720 CURVE SMOOTH",
"185 720 OFFCURVE",
"68 583 OFFCURVE",
"68 356 CURVE SMOOTH",
"68 130 OFFCURVE",
"187 -8 OFFCURVE",
"381 -8 CURVE SMOOTH",
"463 -8 OFFCURVE",
"531 15 OFFCURVE",
"587 62 CURVE",
"587 118 LINE",
"539 63 OFFCURVE",
"469 33 OFFCURVE",
"379 33 CURVE SMOOTH",
"211 33 OFFCURVE",
"113 153 OFFCURVE",
"113 357 CURVE SMOOTH",
"113 559 OFFCURVE",
"210 679 OFFCURVE",
"379 679 CURVE SMOOTH",
"469 679 OFFCURVE",
"539 649 OFFCURVE",
"587 595 CURVE"
);
}
);
};
layerId = "2567DF27-EA2D-46C8-A1A0-FA57AF1B0F16";
paths = (
{
closed = 1;
nodes = (
"1000 0 LINE",
"1000 39 LINE",
"614 39 LINE",
"614 338 LINE",
"980 338 LINE",
"980 377 LINE",
"614 377 LINE",
"614 666 LINE",
"1000 666 LINE",
"1000 705 LINE",
"572 705 LINE",
"572 0 LINE"
);
},
{
closed = 1;
nodes = (
"467 -8 OFFCURVE",
"540 18 OFFCURVE",
"594 68 CURVE",
"594 135 LINE",
"548 64 OFFCURVE",
"475 33 OFFCURVE",
"379 33 CURVE SMOOTH",
"206 33 OFFCURVE",
"113 151 OFFCURVE",
"113 353 CURVE SMOOTH",
"113 555 OFFCURVE",
"206 672 OFFCURVE",
"379 672 CURVE SMOOTH",
"472 672 OFFCURVE",
"544 651 OFFCURVE",
"589 585 CURVE",
"589 648 LINE",
"537 696 OFFCURVE",
"465 713 OFFCURVE",
"379 713 CURVE SMOOTH",
"181 713 OFFCURVE",
"68 576 OFFCURVE",
"68 353 CURVE SMOOTH",
"68 130 OFFCURVE",
"183 -8 OFFCURVE",
"379 -8 CURVE SMOOTH"
);
}
);
width = 1057;
},
{
anchors = (
{
name = bottom;
position = "{626, 0}";
},
{
name = top;
position = "{626, 705}";
}
);
background = {
anchors = (
{
name = bottom;
position = "{533, 0}";
},
{
name = top;
position = "{533.01, 712}";
}
);
paths = (
{
closed = 1;
nodes = (
"1026 0 LINE",
"1026 165 LINE",
"714 165 LINE",
"714 280 LINE",
"1006 280 LINE",
"1006 444 LINE",
"714 444 LINE",
"714 547 LINE",
"1026 547 LINE",
"1026 712 LINE",
"517 712 LINE",
"517 626 LINE",
"503 605 LINE",
"503 123 LINE",
"517 82 LINE",
"517 0 LINE"
);
},
{
closed = 1;
nodes = (
"547 655 LINE",
"520 698 OFFCURVE",
"461 721 OFFCURVE",
"378 721 CURVE SMOOTH",
"185 721 OFFCURVE",
"41 566 OFFCURVE",
"41 357 CURVE SMOOTH",
"41 146 OFFCURVE",
"184 -9 OFFCURVE",
"378 -9 CURVE SMOOTH",
"462 -9 OFFCURVE",
"520 15 OFFCURVE",
"547 61 CURVE",
"547 215 LINE",
"523 174 OFFCURVE",
"475 154 OFFCURVE",
"408 154 CURVE SMOOTH",
"311 154 OFFCURVE",
"256 225 OFFCURVE",
"256 357 CURVE SMOOTH",
"256 487 OFFCURVE",
"310 558 OFFCURVE",
"408 558 CURVE SMOOTH",
"475 558 OFFCURVE",
"523 538 OFFCURVE",
"547 497 CURVE"
);
}
);
};
layerId = "FFBF88B9-CE65-4AF8-A771-12A489880E49";
paths = (
{
closed = 1;
nodes = (
"1026 0 LINE",
"1026 164 LINE",
"723 164 LINE",
"723 276 LINE",
"1002 276 LINE",
"1002 440 LINE",
"723 440 LINE",
"723 541 LINE",
"1026 541 LINE",
"1026 705 LINE",
"517 705 LINE",
"517 0 LINE"
);
},
{
closed = 1;
nodes = (
"430 -12 OFFCURVE",
"495 4 OFFCURVE",
"527 34 CURVE",
"527 221 LINE",
"505 184 OFFCURVE",
"465 167 OFFCURVE",
"406 167 CURVE SMOOTH",
"310 167 OFFCURVE",
"267 236 OFFCURVE",
"267 353 CURVE SMOOTH",
"267 470 OFFCURVE",
"310 538 OFFCURVE",
"406 538 CURVE SMOOTH",
"465 538 OFFCURVE",
"505 512 OFFCURVE",
"527 474 CURVE",
"527 677 LINE",
"490 707 OFFCURVE",
"430 717 OFFCURVE",
"386 717 CURVE SMOOTH",
"172 717 OFFCURVE",
"41 571 OFFCURVE",
"41 353 CURVE SMOOTH",
"41 136 OFFCURVE",
"172 -12 OFFCURVE",
"386 -12 CURVE SMOOTH"
);
}
);
width = 1053;
},
{
anchors = (
{
name = bottom;
position = "{566, 0}";
},
{
name = top;
position = "{678, 705}";
}
);
background = {
anchors = (
{
name = bottom;
position = "{518, 0}";
},
{
name = top;
position = "{629, 712}";
}
);
paths = (
{
closed = 1;
nodes = (
"457 -8 OFFCURVE",
"521 14 OFFCURVE",
"578 55 CURVE",
"588 118 LINE",
"531 63 OFFCURVE",
"454 34 OFFCURVE",
"383 34 CURVE SMOOTH",
"229 34 OFFCURVE",
"145 123 OFFCURVE",
"145 282 CURVE SMOOTH",
"145 520 OFFCURVE",
"270 678 OFFCURVE",
"459 678 CURVE SMOOTH",
"545 678 OFFCURVE",
"623 649 OFFCURVE",
"661 595 CURVE",
"670 653 LINE",
"605 704 OFFCURVE",
"534 720 OFFCURVE",
"465 720 CURVE SMOOTH",
"249 720 OFFCURVE",
"100 542 OFFCURVE",
"100 282 CURVE SMOOTH",
"100 101 OFFCURVE",
"203 -8 OFFCURVE",
"382 -8 CURVE SMOOTH"
);
},
{
closed = 1;
nodes = (
"981 0 LINE",
"988 39 LINE",
"601 39 LINE",
"701 673 LINE",
"1087 673 LINE",
"1092 712 LINE",
"664 712 LINE",
"654 647 LINE",
"652 631 LINE",
"566 83 LINE",
"562 66 LINE",
"552 0 LINE"
);
},
{
closed = 1;
nodes = (
"1015 341 LINE",
"1021 381 LINE",
"643 381 LINE",
"637 341 LINE"
);
}
);
};
layerId = "5EBC8607-93CF-4E15-8CE6-F0DFD39C8AE8";
paths = (
{
closed = 1;
nodes = (
"962 0 LINE",
"968 39 LINE",
"593 39 LINE",
"641 338 LINE",
"996 338 LINE",
"1002 377 LINE",
"647 377 LINE",
"694 666 LINE",
"1066 666 LINE",
"1072 705 LINE",
"657 705 LINE",
"546 0 LINE"
);
},
{
closed = 1;
nodes = (
"445 -8 OFFCURVE",
"514 20 OFFCURVE",
"568 62 CURVE",
"577 121 LINE",
"526 70 OFFCURVE",
"455 33 OFFCURVE",
"363 33 CURVE SMOOTH",
"212 33 OFFCURVE",
"128 116 OFFCURVE",
"128 289 CURVE SMOOTH",
"128 507 OFFCURVE",
"230 672 OFFCURVE",
"430 672 CURVE SMOOTH",
"536 672 OFFCURVE",
"610 638 OFFCURVE",
"645 570 CURVE",
"656 626 LINE",
"608 682 OFFCURVE",
"531 713 OFFCURVE",
"433 713 CURVE SMOOTH",
"199 713 OFFCURVE",
"83 526 OFFCURVE",
"83 289 CURVE SMOOTH",
"83 96 OFFCURVE",
"187 -8 OFFCURVE",
"361 -8 CURVE SMOOTH"
);
}
);
width = 1057;
},
{
anchors = (
{
name = bottom;
position = "{568, 0}";
},
{
name = top;
position = "{679, 705}";
}
);
background = {
anchors = (
{
name = bottom;
position = "{511, 0}";
},
{
name = top;
position = "{623, 712}";
}
);
paths = (
{
closed = 1;
nodes = (
"434 -11 OFFCURVE",
"497 15 OFFCURVE",
"533 63 CURVE",
"556 215 LINE",
"529 174 OFFCURVE",
"476 154 OFFCURVE",
"419 154 CURVE SMOOTH",
"334 154 OFFCURVE",
"286 209 OFFCURVE",
"286 308 CURVE SMOOTH",
"286 465 OFFCURVE",
"362 558 OFFCURVE",
"488 558 CURVE SMOOTH",
"545 558 OFFCURVE",
"585 538 OFFCURVE",
"602 497 CURVE",
"628 663 LINE",
"615 701 OFFCURVE",
"535 723 OFFCURVE",
"468 723 CURVE SMOOTH",
"238 723 OFFCURVE",
"72 545 OFFCURVE",
"72 299 CURVE SMOOTH",
"72 106 OFFCURVE",
"198 -11 OFFCURVE",
"364 -11 CURVE SMOOTH"
);
},
{
closed = 1;
nodes = (
"1002 0 LINE",
"1028 165 LINE",
"716 165 LINE",
"776 547 LINE",
"1088 547 LINE",
"1113 712 LINE",
"606 712 LINE",
"593 626 LINE",
"575 605 LINE",
"500 123 LINE",
"507 82 LINE",
"494 0 LINE"
);
},
{
closed = 1;
nodes = (
"1026 280 LINE",
"1052 444 LINE",
"742 444 LINE",
"716 280 LINE"
);
}
);
};
layerId = "7E8CE273-6C2A-436A-BEF2-D90EC4D0BD66";
paths = (
{
closed = 1;
nodes = (
"976 0 LINE",
"1002 164 LINE",
"711 164 LINE",
"729 276 LINE",
"997 276 LINE",
"1023 440 LINE",
"755 440 LINE",
"771 541 LINE",
"1062 541 LINE",
"1088 705 LINE",
"592 705 LINE",
"480 0 LINE"
);
},
{
closed = 1;
nodes = (
"433 -12 OFFCURVE",
"496 20 OFFCURVE",
"520 69 CURVE",
"543 241 LINE",
"513 198 OFFCURVE",
"487 167 OFFCURVE",
"413 167 CURVE SMOOTH",
"335 167 OFFCURVE",
"279 214 OFFCURVE",
"279 312 CURVE SMOOTH",
"279 448 OFFCURVE",
"339 538 OFFCURVE",
"442 538 CURVE SMOOTH",
"496 538 OFFCURVE",
"532 529 OFFCURVE",
"573 489 CURVE",
"596 650 LINE",
"582 679 OFFCURVE",
"519 717 OFFCURVE",
"425 717 CURVE SMOOTH",
"215 717 OFFCURVE",
"56 554 OFFCURVE",
"56 308 CURVE SMOOTH",
"56 108 OFFCURVE",
"182 -12 OFFCURVE",
"360 -12 CURVE SMOOTH"
);
}
);
width = 1053;
},
{
anchors = (
{
name = bottom;
position = "{625, 0}";
},
{
name = top;
position = "{625, 705}";
}
);
associatedMasterId = "2567DF27-EA2D-46C8-A1A0-FA57AF1B0F16";
layerId = "B8FA56BD-7EDE-4576-AB47-8A7B7BD1DCF7";
paths = (
{
closed = 1;
nodes = (
"1025 0 LINE",
"1025 159 LINE",
"719 159 LINE",
"719 279 LINE",
"1001 279 LINE",
"1001 437 LINE",
"719 437 LINE",
"719 546 LINE",
"1025 546 LINE",
"1025 705 LINE",
"519 705 LINE",
"519 0 LINE"
);
},
{
closed = 1;
nodes = (
"431 -12 OFFCURVE",
"497 5 OFFCURVE",
"530 35 CURVE",
"530 218 LINE",
"507 179 OFFCURVE",
"465 162 OFFCURVE",
"405 162 CURVE SMOOTH",
"306 162 OFFCURVE",
"261 233 OFFCURVE",
"261 353 CURVE SMOOTH",
"261 473 OFFCURVE",
"306 543 OFFCURVE",
"405 543 CURVE SMOOTH",
"465 543 OFFCURVE",
"507 518 OFFCURVE",
"530 478 CURVE",
"530 676 LINE",
"492 707 OFFCURVE",
"431 717 OFFCURVE",
"386 717 CURVE SMOOTH",
"172 717 OFFCURVE",
"42 571 OFFCURVE",
"42 353 CURVE SMOOTH",
"42 136 OFFCURVE",
"172 -12 OFFCURVE",
"386 -12 CURVE SMOOTH"
);
}
);
width = 1053.16185;
}
);
leftKerningGroup = O;
rightKerningGroup = E;
unicode = 0152;
},
{
color = 4;
glyphname = P;
lastChange = "2019-11-14 11:52:21 +0000";
layers = (
{
anchors = (
{
name = bottom;
position = "{314, 0}";
},
{
name = top;
position = "{314, 705}";
}
);
background = {
anchors = (
{
name = bottom;
position = "{319, 0}";
},
{
name = top;
position = "{319, 712}";
}
);
paths = (
{
closed = 1;
nodes = (
"138 0 LINE",
"138 326 LINE",
"360 326 LINE SMOOTH",
"499 326 OFFCURVE",
"585 400 OFFCURVE",
"585 520 CURVE SMOOTH",
"585 640 OFFCURVE",
"500 712 OFFCURVE",
"360 712 CURVE SMOOTH",
"97 712 LINE",
"97 0 LINE"
);
},
{
closed = 1;
nodes = (
"138 673 LINE",
"359 673 LINE SMOOTH",
"478 673 OFFCURVE",
"540 617 OFFCURVE",
"540 520 CURVE SMOOTH",
"540 423 OFFCURVE",
"478 367 OFFCURVE",
"359 367 CURVE SMOOTH",
"138 367 LINE"
);
}
);
};
layerId = "2567DF27-EA2D-46C8-A1A0-FA57AF1B0F16";
paths = (
{
closed = 1;
nodes = (
"139 0 LINE",
"139 297 LINE",
"350 297 LINE SMOOTH",
"502 297 OFFCURVE",
"585 369 OFFCURVE",
"585 501 CURVE SMOOTH",
"585 633 OFFCURVE",
"502 705 OFFCURVE",
"350 705 CURVE SMOOTH",
"97 705 LINE",
"97 0 LINE"
);
},
{
closed = 1;
nodes = (
"139 666 LINE",
"349 666 LINE SMOOTH",
"477 666 OFFCURVE",
"540 610 OFFCURVE",
"540 501 CURVE SMOOTH",
"540 392 OFFCURVE",
"477 336 OFFCURVE",
"349 336 CURVE SMOOTH",
"139 336 LINE"
);
}
);
width = 638;
},
{
anchors = (
{
name = bottom;
position = "{345, 0}";
},
{
name = top;
position = "{344, 705}";
}
);
background = {
anchors = (
{
name = bottom;
position = "{351, 0}";
},
{
name = top;
position = "{349, 712}";
}
);
paths = (
{
closed = 1;
nodes = (
"274 0 LINE",
"274 268 LINE",
"412 268 LINE SMOOTH",
"578 268 OFFCURVE",
"673 357 OFFCURVE",
"673 490 CURVE SMOOTH",
"673 624 OFFCURVE",
"581 712 OFFCURVE",
"412 712 CURVE SMOOTH",
"58 712 LINE",
"58 0 LINE"
);
},
{
closed = 1;
nodes = (
"274 550 LINE",
"382 550 LINE SMOOTH",
"448 550 OFFCURVE",
"474 529 OFFCURVE",
"474 488 CURVE SMOOTH",
"474 449 OFFCURVE",
"446 428 OFFCURVE",
"382 428 CURVE SMOOTH",
"274 428 LINE"
);
}
);
};
layerId = "FFBF88B9-CE65-4AF8-A771-12A489880E49";
paths = (
{
closed = 1;
nodes = (
"274 0 LINE",
"274 231 LINE",
"412 231 LINE SMOOTH",
"578 231 OFFCURVE",
"673 320 OFFCURVE",
"673 468 CURVE SMOOTH",
"673 616 OFFCURVE",
"578 705 OFFCURVE",
"412 705 CURVE SMOOTH",
"58 705 LINE",
"58 0 LINE"
);
},
{
closed = 1;
nodes = (
"274 541 LINE",
"373 541 LINE SMOOTH",
"434 541 OFFCURVE",
"467 518 OFFCURVE",
"467 468 CURVE SMOOTH",
"467 418 OFFCURVE",
"434 395 OFFCURVE",
"373 395 CURVE SMOOTH",
"274 395 LINE"
);
}
);
width = 694;
},
{
anchors = (
{
name = bottom;
position = "{284, 0}";
},
{
name = top;
position = "{396, 705}";
}
);
background = {
anchors = (
{
name = bottom;
position = "{301, 0}";
},
{
name = top;
position = "{413, 712}";
}
);
paths = (
{
closed = 1;
nodes = (
"226 673 LINE",
"440 673 LINE SMOOTH",
"554 673 OFFCURVE",
"605 621 OFFCURVE",
"605 546 CURVE SMOOTH",
"605 431 OFFCURVE",
"528 367 OFFCURVE",
"390 367 CURVE SMOOTH",
"166 367 LINE",
"159 326 LINE",
"385 326 LINE SMOOTH",
"547 326 OFFCURVE",
"650 412 OFFCURVE",
"650 549 CURVE SMOOTH",
"650 645 OFFCURVE",
"579 712 OFFCURVE",
"442 712 CURVE SMOOTH",
"190 712 LINE",
"79 0 LINE",
"120 0 LINE"
);
}
);
};
layerId = "5EBC8607-93CF-4E15-8CE6-F0DFD39C8AE8";
paths = (
{
closed = 1;
nodes = (
"99 0 LINE",
"146 297 LINE",
"373 297 LINE SMOOTH",
"540 297 OFFCURVE",
"630 385 OFFCURVE",
"630 521 CURVE SMOOTH",
"630 646 OFFCURVE",
"547 705 OFFCURVE",
"410 705 CURVE SMOOTH",
"169 705 LINE",
"57 0 LINE"
);
},
{
closed = 1;
nodes = (
"205 666 LINE",
"410 666 LINE SMOOTH",
"525 666 OFFCURVE",
"585 622 OFFCURVE",
"585 520 CURVE SMOOTH",
"585 399 OFFCURVE",
"513 336 OFFCURVE",
"377 336 CURVE SMOOTH",
"153 336 LINE"
);
}
);
width = 638;
},
{
anchors = (
{
name = bottom;
position = "{307, 0}";
},
{
name = top;
position = "{418, 705}";
}
);
background = {
anchors = (
{
name = bottom;
position = "{331, 0}";
},
{
name = top;
position = "{442, 712}";
}
);
paths = (
{
closed = 1;
nodes = (
"342 550 LINE",
"456 550 LINE SMOOTH",
"501 550 OFFCURVE",
"530 538 OFFCURVE",
"530 499 CURVE SMOOTH",
"530 455 OFFCURVE",
"498 428 OFFCURVE",
"437 428 CURVE SMOOTH",
"298 428 LINE",
"277 268 LINE",
"446 268 LINE SMOOTH",
"622 268 OFFCURVE",
"732 366 OFFCURVE",
"732 523 CURVE SMOOTH",
"732 635 OFFCURVE",
"648 712 OFFCURVE",
"500 712 CURVE SMOOTH",
"151 712 LINE",
"39 0 LINE",
"254 0 LINE"
);
}
);
};
guideLines = (
{
angle = 261.0524;
position = "{286, 335}";
}
);
layerId = "7E8CE273-6C2A-436A-BEF2-D90EC4D0BD66";
paths = (
{
closed = 1;
nodes = (
"233 0 LINE",
"270 231 LINE",
"403 231 LINE SMOOTH",
"601 231 OFFCURVE",
"707 324 OFFCURVE",
"707 497 CURVE SMOOTH",
"707 624 OFFCURVE",
"622 705 OFFCURVE",
"443 705 CURVE SMOOTH",
"130 705 LINE",
"18 0 LINE"
);
},
{
closed = 1;
nodes = (
"319 541 LINE",
"413 541 LINE SMOOTH",
"476 541 OFFCURVE",
"503 521 OFFCURVE",
"503 477 CURVE SMOOTH",
"503 423 OFFCURVE",
"472 395 OFFCURVE",
"411 395 CURVE SMOOTH",
"296 395 LINE"
);
}
);
width = 694;
},
{
anchors = (
{
name = bottom;
position = "{344, 0}";
},
{
name = top;
position = "{343, 705}";
}
);
associatedMasterId = "2567DF27-EA2D-46C8-A1A0-FA57AF1B0F16";
layerId = "B8FA56BD-7EDE-4576-AB47-8A7B7BD1DCF7";
paths = (
{
closed = 1;
nodes = (
"269 0 LINE",
"269 234 LINE",
"409 234 LINE SMOOTH",
"575 234 OFFCURVE",
"669 322 OFFCURVE",
"669 469 CURVE SMOOTH",
"669 617 OFFCURVE",
"575 705 OFFCURVE",
"409 705 CURVE SMOOTH",
"60 705 LINE",
"60 0 LINE"
);
},
{
closed = 1;
nodes = (
"269 546 LINE",
"372 546 LINE SMOOTH",
"436 546 OFFCURVE",
"470 522 OFFCURVE",
"470 469 CURVE SMOOTH",
"470 417 OFFCURVE",
"436 393 OFFCURVE",
"372 393 CURVE SMOOTH",
"269 393 LINE"
);
}
);
width = 691.7341;
}
);
leftKerningGroup = H;
rightKerningGroup = P;
unicode = 0050;
userData = {
anchors = (
);
b = {
};
com.typemytype.robofont.layerData = {
b = {
anchors = (
);
components = (
);
contours = (
{
points = (
{
segmentType = curve;
smooth = 1;
x = 266;
y = 0;
},
{
segmentType = line;
smooth = 1;
x = 1035;
y = 0;
},
{
smooth = 0;
x = 1084;
y = 0;
},
{
smooth = 0;
x = 1108;
y = 34;
},
{
segmentType = curve;
smooth = 1;
x = 1108;
y = 71;
},
{
smooth = 0;
x = 1108;
y = 107;
},
{
smooth = 0;
x = 1084;
y = 141;
},
{
segmentType = curve;
smooth = 1;
x = 1035;
y = 141;
},
{
segmentType = line;
smooth = 0;
x = 356;
y = 141;
},
{
segmentType = line;
smooth = 0;
x = 356;
y = 665;
},
{
segmentType = line;
smooth = 1;
x = 975;
y = 665;
},
{
smooth = 0;
x = 1024;
y = 665;
},
{
smooth = 0;
x = 1049;
y = 698;
},
{
segmentType = curve;
smooth = 1;
x = 1049;
y = 734;
},
{
smooth = 0;
x = 1049;
y = 770;
},
{
smooth = 0;
x = 1026;
y = 803;
},
{
segmentType = curve;
smooth = 1;
x = 975;
y = 803;
},
{
segmentType = line;
smooth = 0;
x = 356;
y = 803;
},
{
segmentType = line;
smooth = 0;
x = 356;
y = 1285;
},
{
segmentType = line;
smooth = 1;
x = 1007;
y = 1285;
},
{
smooth = 0;
x = 1056;
y = 1285;
},
{
smooth = 0;
x = 1080;
y = 1319;
},
{
segmentType = curve;
smooth = 1;
x = 1080;
y = 1356;
},
{
smooth = 0;
x = 1080;
y = 1392;
},
{
smooth = 0;
x = 1056;
y = 1426;
},
{
segmentType = curve;
smooth = 1;
x = 1007;
y = 1426;
},
{
segmentType = line;
smooth = 1;
x = 261;
y = 1426;
},
{
smooth = 0;
x = 213;
y = 1426;
},
{
smooth = 0;
x = 178;
y = 1383;
},
{
segmentType = curve;
smooth = 1;
x = 178;
y = 1340;
},
{
segmentType = line;
smooth = 1;
x = 178;
y = 86;
},
{
smooth = 0;
x = 178;
y = 41;
},
{
smooth = 0;
x = 222;
y = 0;
}
);
}
);
lib = {
};
name = P;
unicodes = (
);
width = 1201;
};
};
components = (
);
contours = (
);
lib = {
};
name = P;
unicodes = (
);
width = 1319;
};
},
{
color = 4;
glyphname = Thorn;
lastChange = "2019-11-14 11:52:21 +0000";
layers = (
{
anchors = (
{
name = bottom;
position = "{314, 0}";
},
{
name = top;
position = "{314, 705}";
}
);
background = {
anchors = (
{
name = bottom;
position = "{319, 0}";
},
{
name = top;
position = "{319, 712}";
}
);
paths = (
{
closed = 1;
nodes = (
"365 176 LINE SMOOTH",
"504 176 OFFCURVE",
"585 244 OFFCURVE",
"585 364 CURVE SMOOTH",
"585 482 OFFCURVE",
"506 548 OFFCURVE",
"365 548 CURVE SMOOTH",
"129 548 LINE",
"129 509 LINE",
"365 509 LINE SMOOTH",
"484 509 OFFCURVE",
"540 462 OFFCURVE",
"540 364 CURVE SMOOTH",
"540 265 OFFCURVE",
"483 215 OFFCURVE",
"365 215 CURVE SMOOTH",
"129 215 LINE",
"129 176 LINE"
);
},
{
closed = 1;
nodes = (
"139 0 LINE",
"139 712 LINE",
"97 712 LINE",
"97 0 LINE"
);
}
);
};
layerId = "2567DF27-EA2D-46C8-A1A0-FA57AF1B0F16";
paths = (
{
closed = 1;
nodes = (
"139 0 LINE",
"139 161 LINE",
"350 161 LINE SMOOTH",
"502 161 OFFCURVE",
"585 233 OFFCURVE",
"585 365 CURVE SMOOTH",
"585 497 OFFCURVE",
"502 569 OFFCURVE",
"350 569 CURVE SMOOTH",
"139 569 LINE",
"139 705 LINE",
"97 705 LINE",
"97 0 LINE"
);
},
{
closed = 1;
nodes = (
"139 530 LINE",
"349 530 LINE SMOOTH",
"477 530 OFFCURVE",
"540 474 OFFCURVE",
"540 365 CURVE SMOOTH",
"540 256 OFFCURVE",
"477 200 OFFCURVE",
"349 200 CURVE SMOOTH",
"139 200 LINE"
);
}
);
width = 638;
},
{
anchors = (
{
name = bottom;
position = "{359, 0}";
},
{
name = top;
position = "{358, 705}";
}
);
background = {
anchors = (
{
name = bottom;
position = "{351, 0}";
},
{
name = top;
position = "{349, 712}";
}
);
paths = (
{
closed = 1;
nodes = (
"417 144 LINE SMOOTH",
"575 144 OFFCURVE",
"673 227 OFFCURVE",
"673 361 CURVE SMOOTH",
"673 496 OFFCURVE",
"578 580 OFFCURVE",
"417 580 CURVE SMOOTH",
"245 580 LINE",
"245 417 LINE",
"378 417 LINE SMOOTH",
"445 417 OFFCURVE",
"474 401 OFFCURVE",
"474 361 CURVE SMOOTH",
"474 320 OFFCURVE",
"446 306 OFFCURVE",
"378 306 CURVE SMOOTH",
"245 306 LINE",
"245 144 LINE"
);
},
{
closed = 1;
nodes = (
"269 0 LINE",
"269 712 LINE",
"58 712 LINE",
"58 0 LINE"
);
}
);
};
layerId = "FFBF88B9-CE65-4AF8-A771-12A489880E49";
paths = (
{
closed = 1;
nodes = (
"274 0 LINE",
"274 131 LINE",
"413 131 LINE SMOOTH",
"578 131 OFFCURVE",
"673 220 OFFCURVE",
"673 368 CURVE SMOOTH",
"673 516 OFFCURVE",
"578 605 OFFCURVE",
"413 605 CURVE SMOOTH",
"274 605 LINE",
"274 705 LINE",
"58 705 LINE",
"58 0 LINE"
);
},
{
closed = 1;
nodes = (
"274 441 LINE",
"374 441 LINE SMOOTH",
"435 441 OFFCURVE",
"468 418 OFFCURVE",
"468 368 CURVE SMOOTH",
"468 318 OFFCURVE",
"434 295 OFFCURVE",
"374 295 CURVE SMOOTH",
"274 295 LINE"
);
}
);
width = 696;
},
{
anchors = (
{
name = bottom;
position = "{283, 0}";
},
{
name = top;
position = "{395, 705}";
}
);
background = {
anchors = (
{
name = bottom;
position = "{300, 0}";
},
{
name = top;
position = "{412, 712}";
}
);
paths = (
{
closed = 1;
nodes = (
"375 176 LINE SMOOTH",
"531 176 OFFCURVE",
"625 257 OFFCURVE",
"625 392 CURVE SMOOTH",
"625 496 OFFCURVE",
"553 548 OFFCURVE",
"426 548 CURVE SMOOTH",
"202 548 LINE",
"195 509 LINE",
"423 509 LINE SMOOTH",
"524 509 OFFCURVE",
"580 474 OFFCURVE",
"580 390 CURVE SMOOTH",
"580 276 OFFCURVE",
"511 216 OFFCURVE",
"377 216 CURVE SMOOTH",
"148 216 LINE",
"142 176 LINE"
);
},
{
closed = 1;
nodes = (
"121 0 LINE",
"233 712 LINE",
"190 712 LINE",
"79 0 LINE"
);
}
);
};
layerId = "5EBC8607-93CF-4E15-8CE6-F0DFD39C8AE8";
paths = (
{
closed = 1;
nodes = (
"99 0 LINE",
"125 162 LINE",
"347 162 LINE SMOOTH",
"514 162 OFFCURVE",
"604 250 OFFCURVE",
"604 386 CURVE SMOOTH",
"604 511 OFFCURVE",
"521 570 OFFCURVE",
"384 570 CURVE SMOOTH",
"190 570 LINE",
"211 705 LINE",
"169 705 LINE",
"57 0 LINE"
);
},
{
closed = 1;
nodes = (
"183 531 LINE",
"384 531 LINE SMOOTH",
"499 531 OFFCURVE",
"559 487 OFFCURVE",
"559 385 CURVE SMOOTH",
"559 264 OFFCURVE",
"487 201 OFFCURVE",
"351 201 CURVE SMOOTH",
"131 201 LINE"
);
}
);
width = 638;
},
{
anchors = (
{
name = bottom;
position = "{313, 0}";
},
{
name = top;
position = "{423, 705}";
}
);
background = {
anchors = (
{
name = bottom;
position = "{332, 0}";
},
{
name = top;
position = "{442, 712}";
}
);
paths = (
{
closed = 1;
nodes = (
"447 144 LINE SMOOTH",
"613 144 OFFCURVE",
"712 238 OFFCURVE",
"712 396 CURVE SMOOTH",
"712 508 OFFCURVE",
"634 580 OFFCURVE",
"500 580 CURVE SMOOTH",
"258 580 LINE",
"247 417 LINE",
"459 417 LINE SMOOTH",
"492 417 OFFCURVE",
"513 405 OFFCURVE",
"513 371 CURVE SMOOTH",
"513 328 OFFCURVE",
"487 304 OFFCURVE",
"442 304 CURVE SMOOTH",
"224 304 LINE",
"213 144 LINE"
);
},
{
closed = 1;
nodes = (
"250 0 LINE",
"363 712 LINE",
"151 712 LINE",
"39 0 LINE"
);
}
);
};
layerId = "7E8CE273-6C2A-436A-BEF2-D90EC4D0BD66";
paths = (
{
closed = 1;
nodes = (
"233 0 LINE",
"254 131 LINE",
"389 131 LINE SMOOTH",
"587 131 OFFCURVE",
"693 224 OFFCURVE",
"693 397 CURVE SMOOTH",
"693 524 OFFCURVE",
"608 605 OFFCURVE",
"429 605 CURVE SMOOTH",
"329 605 LINE",
"345 705 LINE",
"130 705 LINE",
"18 0 LINE"
);
},
{
closed = 1;
nodes = (
"303 441 LINE",
"399 441 LINE SMOOTH",
"462 441 OFFCURVE",
"489 421 OFFCURVE",
"489 377 CURVE SMOOTH",
"489 323 OFFCURVE",
"458 295 OFFCURVE",
"397 295 CURVE SMOOTH",
"280 295 LINE"
);
}
);
width = 696;
},
{
anchors = (
{
name = bottom;
position = "{357, 0}";
},
{
name = top;
position = "{356, 705}";
}
);
associatedMasterId = "2567DF27-EA2D-46C8-A1A0-FA57AF1B0F16";
layerId = "B8FA56BD-7EDE-4576-AB47-8A7B7BD1DCF7";
paths = (
{
closed = 1;
nodes = (
"269 0 LINE",
"269 132 LINE",
"410 132 LINE SMOOTH",
"575 132 OFFCURVE",
"669 221 OFFCURVE",
"669 368 CURVE SMOOTH",
"669 515 OFFCURVE",
"575 604 OFFCURVE",
"410 604 CURVE SMOOTH",
"269 604 LINE",
"269 705 LINE",
"60 705 LINE",
"60 0 LINE"
);
},
{
closed = 1;
nodes = (
"269 445 LINE",
"373 445 LINE SMOOTH",
"437 445 OFFCURVE",
"471 420 OFFCURVE",
"471 368 CURVE SMOOTH",
"471 315 OFFCURVE",
"436 291 OFFCURVE",
"373 291 CURVE SMOOTH",
"269 291 LINE"
);
}
);
width = 693.65318;
}
);
leftKerningGroup = H;
rightKerningGroup = THORN;
unicode = 00DE;
},
{
color = 4;
glyphname = Q;
lastChange = "2019-11-14 11:52:21 +0000";
layers = (
{
anchors = (
{
name = bottom;
position = "{380, 0}";
},
{
name = top;
position = "{380, 705}";
}
);
background = {
anchors = (
{
name = bottom;
position = "{379, 0}";
},
{
name = center;
position = "{380, 357}";
},
{
name = ogonek;
position = "{483, 10}";
},
{
name = top;
position = "{379, 712}";
},
{
name = topleft;
position = "{26, 712}";
},
{
name = topright;
position = "{409, 712}";
}
);
paths = (
{
closed = 1;
nodes = (
"600 -154 LINE",
"550 -111 OFFCURVE",
"505 -60 OFFCURVE",
"468 7 CURVE",
"420 -4 LINE",
"461 -75 OFFCURVE",
"520 -151 OFFCURVE",
"571 -191 CURVE"
);
},
{
closed = 1;
nodes = (
"572 -8 OFFCURVE",
"691 131 OFFCURVE",
"691 357 CURVE SMOOTH",
"691 582 OFFCURVE",
"573 720 OFFCURVE",
"379 720 CURVE SMOOTH",
"185 720 OFFCURVE",
"68 582 OFFCURVE",
"68 356 CURVE SMOOTH",
"68 131 OFFCURVE",
"187 -8 OFFCURVE",
"379 -8 CURVE SMOOTH"
);
},
{
closed = 1;
nodes = (
"210 33 OFFCURVE",
"113 153 OFFCURVE",
"113 357 CURVE SMOOTH",
"113 561 OFFCURVE",
"210 679 OFFCURVE",
"379 679 CURVE SMOOTH",
"549 679 OFFCURVE",
"645 562 OFFCURVE",
"645 357 CURVE SMOOTH",
"645 152 OFFCURVE",
"547 33 OFFCURVE",
"379 33 CURVE SMOOTH"
);
}
);
};
components = (
{
alignment = -1;
name = O;
},
{
name = _part.Qtail;
transform = "{1, 0, 0, 1, -8, 0}";
}
);
layerId = "2567DF27-EA2D-46C8-A1A0-FA57AF1B0F16";
width = 759;
},
{
anchors = (
{
name = bottom;
position = "{407, 0}";
},
{
name = top;
position = "{407, 705}";
}
);
background = {
anchors = (
{
name = bottom;
position = "{408, 0}";
},
{
name = center;
position = "{407, 357}";
},
{
name = ogonek;
position = "{533, 10}";
},
{
name = top;
position = "{406, 712}";
},
{
name = topleft;
position = "{20, 712}";
},
{
name = topright;
position = "{438, 712}";
}
);
paths = (
{
closed = 1;
nodes = (
"747 -89 LINE",
"695 -46 OFFCURVE",
"632 6 OFFCURVE",
"602 73 CURVE",
"420 -4 LINE",
"461 -75 OFFCURVE",
"520 -138 OFFCURVE",
"603 -191 CURVE"
);
},
{
closed = 1;
nodes = (
"633 -9 OFFCURVE",
"772 134 OFFCURVE",
"772 357 CURVE SMOOTH",
"772 579 OFFCURVE",
"632 721 OFFCURVE",
"408 721 CURVE SMOOTH",
"184 721 OFFCURVE",
"41 579 OFFCURVE",
"41 357 CURVE SMOOTH",
"41 134 OFFCURVE",
"183 -9 OFFCURVE",
"408 -9 CURVE SMOOTH"
);
},
{
closed = 1;
nodes = (
"317 154 OFFCURVE",
"256 218 OFFCURVE",
"256 357 CURVE SMOOTH",
"256 495 OFFCURVE",
"317 558 OFFCURVE",
"408 558 CURVE SMOOTH",
"499 558 OFFCURVE",
"560 493 OFFCURVE",
"560 357 CURVE SMOOTH",
"560 220 OFFCURVE",
"499 154 OFFCURVE",
"408 154 CURVE SMOOTH"
);
}
);
};
components = (
{
alignment = -1;
name = O;
},
{
name = _part.Qtail;
transform = "{1, 0, 0, 1, -8, -2}";
}
);
layerId = "FFBF88B9-CE65-4AF8-A771-12A489880E49";
width = 814;
},
{
anchors = (
{
name = bottom;
position = "{314, 0}";
},
{
name = top;
position = "{424, 705}";
}
);
background = {
anchors = (
{
name = bottom;
position = "{360, 0}";
},
{
name = center;
position = "{417, 357}";
},
{
name = ogonek;
position = "{466, 10}";
},
{
name = top;
position = "{471, 712}";
},
{
name = topleft;
position = "{119, 712}";
},
{
name = topright;
position = "{501, 712}";
}
);
paths = (
{
closed = 1;
nodes = (
"557 -154 LINE",
"514 -112 OFFCURVE",
"478 -63 OFFCURVE",
"451 7 CURVE",
"401 -4 LINE",
"429 -75 OFFCURVE",
"479 -151 OFFCURVE",
"521 -191 CURVE"
);
},
{
closed = 1;
nodes = (
"585 -8 OFFCURVE",
"732 173 OFFCURVE",
"732 429 CURVE SMOOTH",
"732 611 OFFCURVE",
"630 720 OFFCURVE",
"453 720 CURVE SMOOTH",
"247 720 OFFCURVE",
"100 538 OFFCURVE",
"100 282 CURVE SMOOTH",
"100 101 OFFCURVE",
"203 -8 OFFCURVE",
"379 -8 CURVE SMOOTH"
);
},
{
closed = 1;
nodes = (
"229 34 OFFCURVE",
"145 123 OFFCURVE",
"145 282 CURVE SMOOTH",
"145 518 OFFCURVE",
"269 678 OFFCURVE",
"450 678 CURVE SMOOTH",
"604 678 OFFCURVE",
"686 589 OFFCURVE",
"686 430 CURVE SMOOTH",
"686 194 OFFCURVE",
"563 34 OFFCURVE",
"383 34 CURVE SMOOTH"
);
}
);
};
components = (
{
alignment = -1;
name = O;
},
{
name = _part.Qtail;
transform = "{1, 0, 0, 1, -37, 0}";
}
);
layerId = "5EBC8607-93CF-4E15-8CE6-F0DFD39C8AE8";
width = 759;
},
{
anchors = (
{
name = bottom;
position = "{319, 0}";
},
{
name = top;
position = "{424, 705}";
}
);
background = {
anchors = (
{
name = bottom;
position = "{389, 0}";
},
{
name = center;
position = "{444, 357}";
},
{
name = ogonek;
position = "{516, 10}";
},
{
name = top;
position = "{498, 712}";
},
{
name = topleft;
position = "{113, 712}";
},
{
name = topright;
position = "{531, 712}";
}
);
paths = (
{
closed = 1;
nodes = (
"715 -89 LINE",
"669 -46 OFFCURVE",
"615 7 OFFCURVE",
"593 73 CURVE",
"401 -4 LINE",
"429 -75 OFFCURVE",
"480 -138 OFFCURVE",
"554 -191 CURVE"
);
},
{
closed = 1;
nodes = (
"645 -11 OFFCURVE",
"812 166 OFFCURVE",
"812 413 CURVE SMOOTH",
"812 606 OFFCURVE",
"682 723 OFFCURVE",
"476 723 CURVE SMOOTH",
"242 723 OFFCURVE",
"75 547 OFFCURVE",
"75 299 CURVE SMOOTH",
"75 107 OFFCURVE",
"203 -11 OFFCURVE",
"411 -11 CURVE SMOOTH"
);
},
{
closed = 1;
nodes = (
"337 154 OFFCURVE",
"289 209 OFFCURVE",
"289 308 CURVE SMOOTH",
"289 457 OFFCURVE",
"361 558 OFFCURVE",
"466 558 CURVE SMOOTH",
"548 558 OFFCURVE",
"598 502 OFFCURVE",
"598 402 CURVE SMOOTH",
"598 256 OFFCURVE",
"526 154 OFFCURVE",
"422 154 CURVE SMOOTH"
);
}
);
};
components = (
{
alignment = -1;
name = O;
},
{
name = _part.Qtail;
transform = "{1, 0, 0, 1, 13, -2}";
}
);
layerId = "7E8CE273-6C2A-436A-BEF2-D90EC4D0BD66";
width = 814;
},
{
anchors = (
{
name = bottom;
position = "{406, 0}";
},
{
name = top;
position = "{406, 705}";
}
);
associatedMasterId = "2567DF27-EA2D-46C8-A1A0-FA57AF1B0F16";
components = (
{
alignment = -1;
name = O;
},
{
alignment = -1;
name = _part.Qtail;
transform = "{1, 0, 0, 1, -8, -2}";
}
);
layerId = "B8FA56BD-7EDE-4576-AB47-8A7B7BD1DCF7";
width = 811.77457;
}
);
leftKerningGroup = O;
rightKerningGroup = O;
unicode = 0051;
userData = {
anchors = (
);
b = {
};
com.typemytype.robofont.layerData = {
b = {
anchors = (
);
components = (
);
contours = (
);
lib = {
};
name = Q;
unicodes = (
);
width = 1597;
};
};
components = (
);
contours = (
);
lib = {
};
name = Q;
unicodes = (
);
width = 1604;
};
},
{
color = 4;
glyphname = R;
lastChange = "2019-11-14 11:52:21 +0000";
layers = (
{
anchors = (
{
name = bottom;
position = "{338, 0}";
},
{
name = top;
position = "{338, 705}";
}
);
background = {
anchors = (
{
name = bottom;
position = "{337, 0}";
},
{
name = top;
position = "{337, 712}";
}
);
paths = (
{
closed = 1;
nodes = (
"138 0 LINE",
"138 324 LINE",
"359 324 LINE SMOOTH",
"437 324 OFFCURVE",
"476 310 OFFCURVE",
"503 237 CURVE SMOOTH",
"590 0 LINE",
"633 0 LINE",
"541 252 LINE SMOOTH",
"518 317 OFFCURVE",
"483 343 OFFCURVE",
"429 343 CURVE",
"361 330 LINE",
"506 330 OFFCURVE",
"592 400 OFFCURVE",
"592 520 CURVE SMOOTH",
"592 645 OFFCURVE",
"507 712 OFFCURVE",
"362 712 CURVE SMOOTH",
"97 712 LINE",
"97 0 LINE"
);
},
{
closed = 1;
nodes = (
"139 673 LINE",
"363 673 LINE SMOOTH",
"488 673 OFFCURVE",
"547 621 OFFCURVE",
"547 521 CURVE SMOOTH",
"547 418 OFFCURVE",
"485 364 OFFCURVE",
"363 364 CURVE SMOOTH",
"139 364 LINE"
);
}
);
};
layerId = "2567DF27-EA2D-46C8-A1A0-FA57AF1B0F16";
paths = (
{
closed = 1;
nodes = (
"139 0 LINE",
"139 312 LINE",
"300 312 LINE SMOOTH",
"381 312 OFFCURVE",
"420 295 OFFCURVE",
"459 226 CURVE SMOOTH",
"586 0 LINE",
"633 0 LINE",
"496 242 LINE SMOOTH",
"462 302 OFFCURVE",
"427 327 OFFCURVE",
"374 327 CURVE SMOOTH",
"366 327 LINE",
"355 315 LINE",
"504 315 OFFCURVE",
"592 385 OFFCURVE",
"592 509 CURVE SMOOTH",
"592 635 OFFCURVE",
"509 705 OFFCURVE",
"357 705 CURVE SMOOTH",
"97 705 LINE",
"97 0 LINE"
);
},
{
closed = 1;
nodes = (
"139 666 LINE",
"353 666 LINE SMOOTH",
"483 666 OFFCURVE",
"547 612 OFFCURVE",
"547 509 CURVE SMOOTH",
"547 405 OFFCURVE",
"483 351 OFFCURVE",
"353 351 CURVE SMOOTH",
"139 351 LINE"
);
}
);
width = 684;
},
{
anchors = (
{
name = bottom;
position = "{371, 0}";
},
{
name = top;
position = "{370, 705}";
}
);
background = {
anchors = (
{
name = bottom;
position = "{367, 0}";
},
{
name = top;
position = "{366, 712}";
}
);
paths = (
{
closed = 1;
nodes = (
"271 0 LINE",
"271 268 LINE",
"309 268 LINE SMOOTH",
"332 268 OFFCURVE",
"362 258 OFFCURVE",
"370 237 CURVE SMOOTH",
"463 0 LINE",
"692 0 LINE",
"610 204 LINE SMOOTH",
"587 262 OFFCURVE",
"542 293 OFFCURVE",
"495 293 CURVE",
"406 274 LINE",
"569 274 OFFCURVE",
"666 364 OFFCURVE",
"666 494 CURVE SMOOTH",
"666 632 OFFCURVE",
"581 712 OFFCURVE",
"401 712 CURVE SMOOTH",
"58 712 LINE",
"58 0 LINE"
);
},
{
closed = 1;
nodes = (
"268 550 LINE",
"366 550 LINE SMOOTH",
"438 550 OFFCURVE",
"466 533 OFFCURVE",
"466 488 CURVE SMOOTH",
"466 445 OFFCURVE",
"439 427 OFFCURVE",
"366 427 CURVE SMOOTH",
"268 427 LINE"
);
}
);
};
layerId = "FFBF88B9-CE65-4AF8-A771-12A489880E49";
paths = (
{
closed = 1;
nodes = (
"274 0 LINE",
"274 261 LINE",
"294 261 LINE SMOOTH",
"319 261 OFFCURVE",
"341 252 OFFCURVE",
"352 232 CURVE SMOOTH",
"478 0 LINE",
"715 0 LINE",
"606 190 LINE SMOOTH",
"575 245 OFFCURVE",
"528 282 OFFCURVE",
"469 282 CURVE SMOOTH",
"410 282 LINE",
"403 253 LINE",
"571 253 OFFCURVE",
"666 339 OFFCURVE",
"666 479 CURVE SMOOTH",
"666 620 OFFCURVE",
"571 705 OFFCURVE",
"405 705 CURVE SMOOTH",
"58 705 LINE",
"58 0 LINE"
);
},
{
closed = 1;
nodes = (
"274 541 LINE",
"366 541 LINE SMOOTH",
"427 541 OFFCURVE",
"460 519 OFFCURVE",
"460 472 CURVE SMOOTH",
"460 424 OFFCURVE",
"427 401 OFFCURVE",
"366 401 CURVE SMOOTH",
"274 401 LINE"
);
}
);
width = 720;
},
{
anchors = (
{
name = bottom;
position = "{311, 0}";
},
{
name = top;
position = "{401, 705}";
}
);
background = {
anchors = (
{
name = bottom;
position = "{318, 0}";
},
{
name = top;
position = "{430, 712}";
}
);
paths = (
{
closed = 1;
nodes = (
"227 673 LINE",
"457 673 LINE SMOOTH",
"565 673 OFFCURVE",
"623 632 OFFCURVE",
"623 548 CURVE SMOOTH",
"623 428 OFFCURVE",
"548 364 OFFCURVE",
"408 364 CURVE SMOOTH",
"166 364 LINE",
"158 324 LINE",
"375 324 LINE SMOOTH",
"469 324 OFFCURVE",
"505 300 OFFCURVE",
"519 237 CURVE SMOOTH",
"571 0 LINE",
"614 0 LINE",
"565 233 LINE SMOOTH",
"549 308 OFFCURVE",
"517 343 OFFCURVE",
"447 343 CURVE",
"411 330 LINE",
"569 330 OFFCURVE",
"667 415 OFFCURVE",
"667 553 CURVE SMOOTH",
"667 657 OFFCURVE",
"591 712 OFFCURVE",
"458 712 CURVE SMOOTH",
"190 712 LINE",
"79 0 LINE",
"120 0 LINE"
);
}
);
};
layerId = "5EBC8607-93CF-4E15-8CE6-F0DFD39C8AE8";
paths = (
{
closed = 1;
nodes = (
"99 0 LINE",
"148 312 LINE",
"325 312 LINE SMOOTH",
"406 312 OFFCURVE",
"439 288 OFFCURVE",
"467 221 CURVE SMOOTH",
"555 0 LINE",
"597 0 LINE",
"503 234 LINE SMOOTH",
"479 294 OFFCURVE",
"443 327 OFFCURVE",
"388 327 CURVE SMOOTH",
"380 327 LINE",
"380 316 LINE",
"527 312 OFFCURVE",
"636 385 OFFCURVE",
"636 521 CURVE SMOOTH",
"636 634 OFFCURVE",
"562 705 OFFCURVE",
"410 705 CURVE SMOOTH",
"169 705 LINE",
"57 0 LINE"
);
},
{
closed = 1;
nodes = (
"205 666 LINE",
"410 666 LINE SMOOTH",
"536 666 OFFCURVE",
"591 616 OFFCURVE",
"591 519 CURVE SMOOTH",
"591 412 OFFCURVE",
"517 351 OFFCURVE",
"392 351 CURVE SMOOTH",
"155 351 LINE"
);
}
);
width = 684;
},
{
anchors = (
{
name = bottom;
position = "{326, 0}";
},
{
name = top;
position = "{420, 705}";
}
);
background = {
anchors = (
{
name = bottom;
position = "{348, 0}";
},
{
name = top;
position = "{459, 712}";
}
);
paths = (
{
closed = 1;
nodes = (
"337 550 LINE",
"470 550 LINE SMOOTH",
"513 550 OFFCURVE",
"537 536 OFFCURVE",
"537 498 CURVE SMOOTH",
"537 452 OFFCURVE",
"504 427 OFFCURVE",
"452 427 CURVE SMOOTH",
"298 427 LINE",
"275 268 LINE",
"339 268 LINE SMOOTH",
"363 268 OFFCURVE",
"385 258 OFFCURVE",
"390 237 CURVE SMOOTH",
"445 0 LINE",
"673 0 LINE",
"621 200 LINE SMOOTH",
"607 253 OFFCURVE",
"585 293 OFFCURVE",
"504 293 CURVE",
"440 274 LINE",
"634 274 OFFCURVE",
"739 361 OFFCURVE",
"739 521 CURVE SMOOTH",
"739 633 OFFCURVE",
"659 712 OFFCURVE",
"514 712 CURVE SMOOTH",
"151 712 LINE",
"40 0 LINE",
"253 0 LINE"
);
}
);
};
layerId = "7E8CE273-6C2A-436A-BEF2-D90EC4D0BD66";
paths = (
{
closed = 1;
nodes = (
"233 0 LINE",
"273 252 LINE",
"310 252 LINE SMOOTH",
"339 252 OFFCURVE",
"355 240 OFFCURVE",
"367 210 CURVE SMOOTH",
"454 0 LINE",
"675 0 LINE",
"603 166 LINE SMOOTH",
"575 231 OFFCURVE",
"535 273 OFFCURVE",
"463 273 CURVE SMOOTH",
"419 273 LINE",
"419 254 LINE",
"584 254 OFFCURVE",
"705 327 OFFCURVE",
"705 500 CURVE SMOOTH",
"705 628 OFFCURVE",
"612 705 OFFCURVE",
"449 705 CURVE SMOOTH",
"130 705 LINE",
"18 0 LINE"
);
},
{
closed = 1;
nodes = (
"319 541 LINE",
"411 541 LINE SMOOTH",
"473 541 OFFCURVE",
"501 521 OFFCURVE",
"501 480 CURVE SMOOTH",
"501 427 OFFCURVE",
"469 402 OFFCURVE",
"408 402 CURVE SMOOTH",
"297 402 LINE"
);
}
);
width = 720;
},
{
anchors = (
{
name = bottom;
position = "{370, 0}";
},
{
name = top;
position = "{369, 705}";
}
);
associatedMasterId = "2567DF27-EA2D-46C8-A1A0-FA57AF1B0F16";
layerId = "B8FA56BD-7EDE-4576-AB47-8A7B7BD1DCF7";
paths = (
{
closed = 1;
nodes = (
"269 0 LINE",
"269 263 LINE",
"294 263 LINE SMOOTH",
"322 263 OFFCURVE",
"344 254 OFFCURVE",
"356 232 CURVE SMOOTH",
"482 0 LINE",
"712 0 LINE",
"602 192 LINE SMOOTH",
"570 247 OFFCURVE",
"524 284 OFFCURVE",
"465 284 CURVE SMOOTH",
"408 284 LINE",
"401 256 LINE",
"568 256 OFFCURVE",
"663 341 OFFCURVE",
"663 480 CURVE SMOOTH",
"663 621 OFFCURVE",
"568 705 OFFCURVE",
"403 705 CURVE SMOOTH",
"60 705 LINE",
"60 0 LINE"
);
},
{
closed = 1;
nodes = (
"269 546 LINE",
"365 546 LINE SMOOTH",
"429 546 OFFCURVE",
"464 523 OFFCURVE",
"464 473 CURVE SMOOTH",
"464 423 OFFCURVE",
"429 399 OFFCURVE",
"365 399 CURVE SMOOTH",
"269 399 LINE"
);
}
);
width = 718.54335;
}
);
leftKerningGroup = H;
rightKerningGroup = R;
unicode = 0052;
userData = {
anchors = (
);
b = {
};
com.typemytype.robofont.guides = (
);
com.typemytype.robofont.layerData = {
b = {
anchors = (
);
components = (
);
contours = (
{
points = (
{
segmentType = curve;
smooth = 1;
x = 267;
y = 0;
},
{
smooth = 0;
x = 311;
y = 0;
},
{
smooth = 0;
x = 356;
y = 27;
},
{
segmentType = curve;
smooth = 1;
x = 356;
y = 84;
},
{
segmentType = line;
smooth = 0;
x = 356;
y = 628;
},
{
segmentType = line;
smooth = 1;
x = 669;
y = 628;
},
{
smooth = 0;
x = 962;
y = 628;
},
{
smooth = 0;
x = 1182;
y = 722;
},
{
segmentType = curve;
smooth = 1;
x = 1182;
y = 1026;
},
{
smooth = 0;
x = 1182;
y = 1324;
},
{
smooth = 0;
x = 993;
y = 1426;
},
{
segmentType = curve;
smooth = 1;
x = 684;
y = 1426;
},
{
segmentType = line;
smooth = 1;
x = 268;
y = 1426;
},
{
smooth = 0;
x = 217;
y = 1426;
},
{
smooth = 0;
x = 178;
y = 1387;
},
{
segmentType = curve;
smooth = 1;
x = 178;
y = 1339;
},
{
segmentType = line;
smooth = 1;
x = 178;
y = 84;
},
{
smooth = 0;
x = 178;
y = 28;
},
{
smooth = 0;
x = 222;
y = 0;
}
);
},
{
points = (
{
segmentType = line;
smooth = 0;
x = 356;
y = 764;
},
{
segmentType = line;
smooth = 0;
x = 356;
y = 1285;
},
{
segmentType = line;
smooth = 1;
x = 684;
y = 1285;
},
{
smooth = 0;
x = 914;
y = 1285;
},
{
smooth = 0;
x = 1008;
y = 1210;
},
{
segmentType = curve;
smooth = 1;
x = 1008;
y = 1026;
},
{
smooth = 0;
x = 1008;
y = 838;
},
{
smooth = 0;
x = 901;
y = 764;
},
{
segmentType = curve;
smooth = 1;
x = 670;
y = 764;
}
);
}
);
lib = {
};
name = R;
unicodes = (
);
width = 1363;
};
};
components = (
);
contours = (
);
lib = {
};
name = R;
unicodes = (
);
width = 1408;
};
},
{
color = 4;
glyphname = S;
lastChange = "2019-11-14 11:52:21 +0000";
layers = (
{
anchors = (
{
name = bottom;
position = "{319, 0}";
},
{
name = top;
position = "{313, 705}";
}
);
background = {
anchors = (
{
name = bottom;
position = "{308, 0}";
},
{
name = top;
position = "{302, 712}";
}
);
paths = (
{
closed = 1;
nodes = (
"459 -8 OFFCURVE",
"555 71 OFFCURVE",
"555 184 CURVE SMOOTH",
"555 329 OFFCURVE",
"401 344 OFFCURVE",
"284 374 CURVE SMOOTH",
"194 396 OFFCURVE",
"107 426 OFFCURVE",
"107 521 CURVE SMOOTH",
"107 620 OFFCURVE",
"181 679 OFFCURVE",
"310 679 CURVE SMOOTH",
"395 679 OFFCURVE",
"461 651 OFFCURVE",
"528 589 CURVE",
"549 624 LINE",
"488 688 OFFCURVE",
"406 720 OFFCURVE",
"310 720 CURVE SMOOTH",
"159 720 OFFCURVE",
"64 642 OFFCURVE",
"64 523 CURVE SMOOTH",
"64 378 OFFCURVE",
"206 351 OFFCURVE",
"318 324 CURVE SMOOTH",
"415 301 OFFCURVE",
"511 278 OFFCURVE",
"511 187 CURVE SMOOTH",
"511 89 OFFCURVE",
"438 33 OFFCURVE",
"311 33 CURVE SMOOTH",
"208 33 OFFCURVE",
"144 57 OFFCURVE",
"73 123 CURVE",
"52 88 LINE",
"119 21 OFFCURVE",
"199 -8 OFFCURVE",
"311 -8 CURVE SMOOTH"
);
}
);
};
layerId = "2567DF27-EA2D-46C8-A1A0-FA57AF1B0F16";
paths = (
{
closed = 1;
nodes = (
"463 -8 OFFCURVE",
"555 68 OFFCURVE",
"555 179 CURVE SMOOTH",
"555 277 OFFCURVE",
"495 325 OFFCURVE",
"356 353 CURVE SMOOTH",
"256 373 LINE SMOOTH",
"152 394 OFFCURVE",
"108 434 OFFCURVE",
"108 513 CURVE SMOOTH",
"108 610 OFFCURVE",
"186 672 OFFCURVE",
"309 672 CURVE SMOOTH",
"398 672 OFFCURVE",
"464 647 OFFCURVE",
"529 585 CURVE",
"549 621 LINE",
"490 682 OFFCURVE",
"408 713 OFFCURVE",
"309 713 CURVE SMOOTH",
"163 713 OFFCURVE",
"64 632 OFFCURVE",
"64 513 CURVE SMOOTH",
"64 412 OFFCURVE",
"126 357 OFFCURVE",
"255 331 CURVE SMOOTH",
"354 311 LINE SMOOTH",
"468 288 OFFCURVE",
"511 253 OFFCURVE",
"511 178 CURVE SMOOTH",
"511 90 OFFCURVE",
"443 33 OFFCURVE",
"312 33 CURVE SMOOTH",
"205 33 OFFCURVE",
"146 58 OFFCURVE",
"73 116 CURVE",
"52 80 LINE",
"119 22 OFFCURVE",
"200 -8 OFFCURVE",
"313 -8 CURVE SMOOTH"
);
}
);
width = 604;
},
{
anchors = (
{
name = bottom;
position = "{340, 0}";
},
{
name = top;
position = "{349, 705}";
}
);
background = {
anchors = (
{
name = bottom;
position = "{337, 0}";
},
{
name = top;
position = "{347, 712}";
}
);
paths = (
{
closed = 1;
nodes = (
"531 -9 OFFCURVE",
"646 77 OFFCURVE",
"646 220 CURVE SMOOTH",
"646 316 OFFCURVE",
"609 394 OFFCURVE",
"395 439 CURVE SMOOTH",
"268 465 OFFCURVE",
"260 482 OFFCURVE",
"260 504 CURVE SMOOTH",
"260 536 OFFCURVE",
"299 558 OFFCURVE",
"355 558 CURVE SMOOTH",
"421 558 OFFCURVE",
"493 537 OFFCURVE",
"555 495 CURVE",
"621 647 LINE",
"567 691 OFFCURVE",
"456 721 OFFCURVE",
"353 721 CURVE SMOOTH",
"172 721 OFFCURVE",
"50 619 OFFCURVE",
"50 486 CURVE SMOOTH",
"50 384 OFFCURVE",
"85 311 OFFCURVE",
"308 266 CURVE SMOOTH",
"423 243 OFFCURVE",
"436 222 OFFCURVE",
"436 198 CURVE SMOOTH",
"436 171 OFFCURVE",
"399 154 OFFCURVE",
"327 154 CURVE SMOOTH",
"253 154 OFFCURVE",
"170 177 OFFCURVE",
"100 217 CURVE",
"35 65 LINE",
"100 21 OFFCURVE",
"220 -9 OFFCURVE",
"324 -9 CURVE SMOOTH"
);
}
);
};
layerId = "FFBF88B9-CE65-4AF8-A771-12A489880E49";
paths = (
{
closed = 1;
nodes = (
"522 -12 OFFCURVE",
"646 80 OFFCURVE",
"646 223 CURVE SMOOTH",
"646 329 OFFCURVE",
"581 399 OFFCURVE",
"454 424 CURVE SMOOTH",
"329 449 LINE SMOOTH",
"276 460 OFFCURVE",
"261 476 OFFCURVE",
"261 495 CURVE SMOOTH",
"261 525 OFFCURVE",
"293 542 OFFCURVE",
"360 542 CURVE SMOOTH",
"440 542 OFFCURVE",
"506 521 OFFCURVE",
"557 487 CURVE",
"616 643 LINE",
"560 688 OFFCURVE",
"465 717 OFFCURVE",
"365 717 CURVE SMOOTH",
"175 717 OFFCURVE",
"50 623 OFFCURVE",
"50 480 CURVE SMOOTH",
"50 372 OFFCURVE",
"114 304 OFFCURVE",
"244 277 CURVE SMOOTH",
"371 251 LINE SMOOTH",
"423 240 OFFCURVE",
"435 228 OFFCURVE",
"435 206 CURVE SMOOTH",
"435 182 OFFCURVE",
"415 163 OFFCURVE",
"336 163 CURVE SMOOTH",
"252 163 OFFCURVE",
"160 190 OFFCURVE",
"96 228 CURVE",
"37 62 LINE",
"106 17 OFFCURVE",
"219 -12 OFFCURVE",
"334 -12 CURVE SMOOTH"
);
}
);
width = 685;
},
{
anchors = (
{
name = bottom;
position = "{287, 0}";
},
{
name = top;
position = "{362, 705}";
}
);
background = {
anchors = (
{
name = bottom;
position = "{289, 0}";
},
{
name = top;
position = "{394, 712}";
}
);
paths = (
{
closed = 1;
nodes = (
"460 -8 OFFCURVE",
"566 75 OFFCURVE",
"566 197 CURVE SMOOTH",
"566 412 OFFCURVE",
"171 323 OFFCURVE",
"171 514 CURVE SMOOTH",
"171 617 OFFCURVE",
"253 680 OFFCURVE",
"389 680 CURVE SMOOTH",
"471 680 OFFCURVE",
"541 649 OFFCURVE",
"602 589 CURVE",
"629 624 LINE",
"571 687 OFFCURVE",
"488 720 OFFCURVE",
"391 720 CURVE SMOOTH",
"233 720 OFFCURVE",
"128 636 OFFCURVE",
"128 510 CURVE SMOOTH",
"128 280 OFFCURVE",
"522 367 OFFCURVE",
"522 192 CURVE SMOOTH",
"522 93 OFFCURVE",
"439 32 OFFCURVE",
"305 32 CURVE SMOOTH",
"209 32 OFFCURVE",
"142 58 OFFCURVE",
"74 123 CURVE",
"46 88 LINE",
"114 21 OFFCURVE",
"189 -8 OFFCURVE",
"302 -8 CURVE SMOOTH"
);
}
);
};
layerId = "5EBC8607-93CF-4E15-8CE6-F0DFD39C8AE8";
paths = (
{
closed = 1;
nodes = (
"442 -8 OFFCURVE",
"543 61 OFFCURVE",
"543 185 CURVE SMOOTH",
"543 270 OFFCURVE",
"486 318 OFFCURVE",
"351 357 CURVE SMOOTH",
"267 381 LINE SMOOTH",
"189 403 OFFCURVE",
"149 428 OFFCURVE",
"149 512 CURVE SMOOTH",
"149 610 OFFCURVE",
"228 672 OFFCURVE",
"347 672 CURVE SMOOTH",
"433 672 OFFCURVE",
"511 648 OFFCURVE",
"572 584 CURVE",
"595 619 LINE",
"538 685 OFFCURVE",
"443 713 OFFCURVE",
"349 713 CURVE SMOOTH",
"205 713 OFFCURVE",
"105 632 OFFCURVE",
"105 512 CURVE SMOOTH",
"105 406 OFFCURVE",
"165 367 OFFCURVE",
"259 340 CURVE SMOOTH",
"342 316 LINE SMOOTH",
"459 282 OFFCURVE",
"499 247 OFFCURVE",
"499 181 CURVE SMOOTH",
"499 88 OFFCURVE",
"422 33 OFFCURVE",
"297 33 CURVE SMOOTH",
"195 33 OFFCURVE",
"122 50 OFFCURVE",
"49 113 CURVE",
"25 80 LINE",
"94 15 OFFCURVE",
"190 -8 OFFCURVE",
"296 -8 CURVE SMOOTH"
);
}
);
width = 604;
},
{
anchors = (
{
name = bottom;
position = "{313, 0}";
},
{
name = top;
position = "{393, 705}";
}
);
background = {
anchors = (
{
name = bottom;
position = "{315, 0}";
},
{
name = top;
position = "{437, 712}";
}
);
paths = (
{
closed = 1;
nodes = (
"532 -9 OFFCURVE",
"658 83 OFFCURVE",
"658 238 CURVE SMOOTH",
"658 455 OFFCURVE",
"316 416 OFFCURVE",
"316 506 CURVE SMOOTH",
"316 540 OFFCURVE",
"362 557 OFFCURVE",
"421 557 CURVE SMOOTH",
"482 557 OFFCURVE",
"556 535 OFFCURVE",
"611 495 CURVE",
"699 647 LINE",
"647 691 OFFCURVE",
"544 721 OFFCURVE",
"440 721 CURVE SMOOTH",
"236 721 OFFCURVE",
"101 620 OFFCURVE",
"101 470 CURVE SMOOTH",
"101 253 OFFCURVE",
"441 291 OFFCURVE",
"441 198 CURVE SMOOTH",
"441 169 OFFCURVE",
"408 155 OFFCURVE",
"338 155 CURVE SMOOTH",
"257 155 OFFCURVE",
"180 176 OFFCURVE",
"111 217 CURVE",
"22 65 LINE",
"91 22 OFFCURVE",
"203 -9 OFFCURVE",
"316 -9 CURVE SMOOTH"
);
}
);
};
guideLines = (
{
position = "{358, 163}";
},
{
angle = 90;
position = "{422, 222}";
},
{
angle = 270;
position = "{285, 510}";
}
);
layerId = "7E8CE273-6C2A-436A-BEF2-D90EC4D0BD66";
paths = (
{
closed = 1;
nodes = (
"481 -12 OFFCURVE",
"640 66 OFFCURVE",
"640 235 CURVE SMOOTH",
"640 327 OFFCURVE",
"576 399 OFFCURVE",
"472 422 CURVE SMOOTH",
"345 450 LINE SMOOTH",
"304 459 OFFCURVE",
"285 476 OFFCURVE",
"285 496 CURVE SMOOTH",
"285 522 OFFCURVE",
"320 542 OFFCURVE",
"384 542 CURVE SMOOTH",
"439 542 OFFCURVE",
"526 527 OFFCURVE",
"587 488 CURVE",
"659 641 LINE",
"579 693 OFFCURVE",
"472 717 OFFCURVE",
"385 717 CURVE SMOOTH",
"222 717 OFFCURVE",
"75 631 OFFCURVE",
"75 473 CURVE SMOOTH",
"75 381 OFFCURVE",
"139 309 OFFCURVE",
"243 286 CURVE SMOOTH",
"370 258 LINE SMOOTH",
"410 249 OFFCURVE",
"430 234 OFFCURVE",
"430 210 CURVE SMOOTH",
"430 184 OFFCURVE",
"397 163 OFFCURVE",
"331 163 CURVE SMOOTH",
"263 163 OFFCURVE",
"162 184 OFFCURVE",
"78 232 CURVE",
"10 70 LINE",
"90 16 OFFCURVE",
"206 -12 OFFCURVE",
"310 -12 CURVE SMOOTH"
);
}
);
width = 685;
},
{
anchors = (
{
name = bottom;
position = "{339, 0}";
},
{
name = top;
position = "{348, 705}";
}
);
associatedMasterId = "2567DF27-EA2D-46C8-A1A0-FA57AF1B0F16";
layerId = "B8FA56BD-7EDE-4576-AB47-8A7B7BD1DCF7";
paths = (
{
closed = 1;
nodes = (
"520 -12 OFFCURVE",
"642 80 OFFCURVE",
"642 221 CURVE SMOOTH",
"642 327 OFFCURVE",
"578 396 OFFCURVE",
"450 421 CURVE SMOOTH",
"326 446 LINE SMOOTH",
"271 457 OFFCURVE",
"255 474 OFFCURVE",
"255 496 CURVE SMOOTH",
"255 528 OFFCURVE",
"289 547 OFFCURVE",
"358 547 CURVE SMOOTH",
"438 547 OFFCURVE",
"504 526 OFFCURVE",
"556 491 CURVE",
"613 642 LINE",
"557 688 OFFCURVE",
"463 717 OFFCURVE",
"363 717 CURVE SMOOTH",
"175 717 OFFCURVE",
"51 623 OFFCURVE",
"51 481 CURVE SMOOTH",
"51 374 OFFCURVE",
"114 306 OFFCURVE",
"244 279 CURVE SMOOTH",
"370 253 LINE SMOOTH",
"425 242 OFFCURVE",
"438 229 OFFCURVE",
"438 205 CURVE SMOOTH",
"438 178 OFFCURVE",
"416 158 OFFCURVE",
"335 158 CURVE SMOOTH",
"250 158 OFFCURVE",
"159 185 OFFCURVE",
"95 223 CURVE",
"38 63 LINE",
"107 17 OFFCURVE",
"218 -12 OFFCURVE",
"333 -12 CURVE SMOOTH"
);
}
);
width = 681.72254;
}
);
leftKerningGroup = S;
rightKerningGroup = S;
unicode = 0053;
userData = {
anchors = (
);
b = {
};
com.typemytype.robofont.layerData = {
b = {
anchors = (
);
components = (
);
contours = (
);
lib = {
};
name = S;
unicodes = (
);
width = 1274;
};
};
components = (
);
contours = (
);
lib = {
};
name = S;
unicodes = (
);
width = 1317;
};
},
{
color = 4;
glyphname = Germandbls;
lastChange = "2019-11-14 11:52:21 +0000";
layers = (
{
background = {
paths = (
{
closed = 1;
nodes = (
"139 0 LINE",
"139 461 LINE SMOOTH",
"139 610 OFFCURVE",
"204 678 OFFCURVE",
"347 678 CURVE SMOOTH",
"457 678 OFFCURVE",
"522 624 OFFCURVE",
"522 534 CURVE SMOOTH",
"522 436 OFFCURVE",
"456 382 OFFCURVE",
"342 382 CURVE SMOOTH",
"237 382 LINE",
"237 342 LINE",
"380 342 LINE SMOOTH",
"501 342 OFFCURVE",
"568 291 OFFCURVE",
"568 194 CURVE SMOOTH",
"568 97 OFFCURVE",
"502 37 OFFCURVE",
"393 35 CURVE SMOOTH",
"338 34 OFFCURVE",
"290 53 OFFCURVE",
"234 99 CURVE",
"213 61 LINE",
"262 17 OFFCURVE",
"329 -7 OFFCURVE",
"396 -7 CURVE SMOOTH",
"526 -7 OFFCURVE",
"612 73 OFFCURVE",
"612 193 CURVE SMOOTH",
"612 293 OFFCURVE",
"553 357 OFFCURVE",
"444 374 CURVE",
"434 363 LINE",
"518 382 OFFCURVE",
"566 444 OFFCURVE",
"566 534 CURVE SMOOTH",
"566 648 OFFCURVE",
"482 719 OFFCURVE",
"346 719 CURVE SMOOTH",
"179 719 OFFCURVE",
"97 637 OFFCURVE",
"97 470 CURVE SMOOTH",
"97 0 LINE"
);
}
);
};
layerId = "2567DF27-EA2D-46C8-A1A0-FA57AF1B0F16";
paths = (
{
closed = 1;
nodes = (
"531 -8 OFFCURVE",
"612 61 OFFCURVE",
"612 186 CURVE SMOOTH",
"612 290 OFFCURVE",
"543 354 OFFCURVE",
"435 367 CURVE",
"435 353 LINE",
"518 370 OFFCURVE",
"572 439 OFFCURVE",
"572 529 CURVE SMOOTH",
"572 643 OFFCURVE",
"490 713 OFFCURVE",
"344 713 CURVE SMOOTH",
"175 713 OFFCURVE",
"97 630 OFFCURVE",
"97 470 CURVE SMOOTH",
"97 0 LINE",
"139 0 LINE",
"139 467 LINE SMOOTH",
"139 604 OFFCURVE",
"195 673 OFFCURVE",
"345 673 CURVE SMOOTH",
"470 673 OFFCURVE",
"528 621 OFFCURVE",
"528 524 CURVE SMOOTH",
"528 427 OFFCURVE",
"461 374 OFFCURVE",
"352 374 CURVE SMOOTH",
"237 374 LINE",
"237 335 LINE",
"380 335 LINE SMOOTH",
"506 335 OFFCURVE",
"567 282 OFFCURVE",
"567 186 CURVE SMOOTH",
"567 89 OFFCURVE",
"506 32 OFFCURVE",
"391 32 CURVE SMOOTH",
"319 32 OFFCURVE",
"274 49 OFFCURVE",
"220 97 CURVE",
"197 62 LINE",
"245 16 OFFCURVE",
"307 -8 OFFCURVE",
"391 -8 CURVE SMOOTH"
);
}
);
width = 683;
},
{
background = {
paths = (
{
closed = 1;
nodes = (
"269 0 LINE",
"269 442 LINE SMOOTH",
"269 512 OFFCURVE",
"312 555 OFFCURVE",
"379 555 CURVE SMOOTH",
"425 555 OFFCURVE",
"459 532 OFFCURVE",
"459 492 CURVE SMOOTH",
"459 459 OFFCURVE",
"439 441 OFFCURVE",
"395 441 CURVE SMOOTH",
"325 441 LINE",
"325 277 LINE",
"404 277 LINE SMOOTH",
"490 277 OFFCURVE",
"512 261 OFFCURVE",
"512 210 CURVE SMOOTH",
"512 171 OFFCURVE",
"496 148 OFFCURVE",
"471 149 CURVE SMOOTH",
"438 150 OFFCURVE",
"395 164 OFFCURVE",
"342 194 CURVE",
"291 47 LINE",
"346 9 OFFCURVE",
"401 -6 OFFCURVE",
"484 -6 CURVE SMOOTH",
"614 -6 OFFCURVE",
"715 84 OFFCURVE",
"715 201 CURVE SMOOTH",
"715 299 OFFCURVE",
"645 367 OFFCURVE",
"538 377 CURVE",
"542 362 LINE",
"612 385 OFFCURVE",
"657 443 OFFCURVE",
"657 513 CURVE SMOOTH",
"657 638 OFFCURVE",
"550 719 OFFCURVE",
"385 719 CURVE SMOOTH",
"182 719 OFFCURVE",
"58 611 OFFCURVE",
"58 434 CURVE SMOOTH",
"58 0 LINE"
);
}
);
};
layerId = "FFBF88B9-CE65-4AF8-A771-12A489880E49";
paths = (
{
closed = 1;
nodes = (
"623 -12 OFFCURVE",
"715 66 OFFCURVE",
"715 194 CURVE SMOOTH",
"715 293 OFFCURVE",
"651 365 OFFCURVE",
"553 375 CURVE",
"553 354 LINE",
"634 384 OFFCURVE",
"678 444 OFFCURVE",
"678 520 CURVE SMOOTH",
"678 642 OFFCURVE",
"588 717 OFFCURVE",
"407 717 CURVE SMOOTH",
"173 717 OFFCURVE",
"58 617 OFFCURVE",
"58 430 CURVE SMOOTH",
"58 0 LINE",
"264 0 LINE",
"264 430 LINE SMOOTH",
"264 512 OFFCURVE",
"295 549 OFFCURVE",
"386 549 CURVE SMOOTH",
"444 549 OFFCURVE",
"474 529 OFFCURVE",
"474 490 CURVE SMOOTH",
"474 452 OFFCURVE",
"446 432 OFFCURVE",
"390 432 CURVE SMOOTH",
"340 432 LINE",
"340 271 LINE",
"403 271 LINE SMOOTH",
"479 271 OFFCURVE",
"512 253 OFFCURVE",
"512 211 CURVE SMOOTH",
"512 177 OFFCURVE",
"485 154 OFFCURVE",
"443 154 CURVE SMOOTH",
"413 154 OFFCURVE",
"388 159 OFFCURVE",
"359 178 CURVE",
"303 28 LINE",
"362 -6 OFFCURVE",
"414 -12 OFFCURVE",
"467 -12 CURVE SMOOTH"
);
}
);
width = 735;
},
{
background = {
paths = (
{
closed = 1;
nodes = (
"120 0 LINE",
"193 460 LINE SMOOTH",
"216 607 OFFCURVE",
"284 678 OFFCURVE",
"434 678 CURVE SMOOTH",
"529 678 OFFCURVE",
"590 634 OFFCURVE",
"590 559 CURVE SMOOTH",
"590 450 OFFCURVE",
"510 382 OFFCURVE",
"385 382 CURVE SMOOTH",
"278 382 LINE",
"271 342 LINE",
"415 342 LINE SMOOTH",
"524 342 OFFCURVE",
"583 301 OFFCURVE",
"583 222 CURVE SMOOTH",
"583 109 OFFCURVE",
"502 35 OFFCURVE",
"380 35 CURVE SMOOTH",
"327 35 OFFCURVE",
"280 55 OFFCURVE",
"231 99 CURVE",
"205 61 LINE",
"246 18 OFFCURVE",
"311 -7 OFFCURVE",
"381 -7 CURVE SMOOTH",
"524 -7 OFFCURVE",
"627 91 OFFCURVE",
"627 226 CURVE SMOOTH",
"627 308 OFFCURVE",
"579 360 OFFCURVE",
"485 374 CURVE",
"473 363 LINE",
"573 384 OFFCURVE",
"635 462 OFFCURVE",
"635 563 CURVE SMOOTH",
"635 660 OFFCURVE",
"558 719 OFFCURVE",
"438 719 CURVE SMOOTH",
"273 719 OFFCURVE",
"178 639 OFFCURVE",
"152 473 CURVE SMOOTH",
"78 0 LINE"
);
}
);
};
layerId = "5EBC8607-93CF-4E15-8CE6-F0DFD39C8AE8";
paths = (
{
closed = 1;
nodes = (
"519 -8 OFFCURVE",
"606 73 OFFCURVE",
"606 200 CURVE SMOOTH",
"606 283 OFFCURVE",
"546 349 OFFCURVE",
"455 363 CURVE",
"455 349 LINE",
"548 363 OFFCURVE",
"622 429 OFFCURVE",
"622 537 CURVE SMOOTH",
"622 639 OFFCURVE",
"551 713 OFFCURVE",
"407 713 CURVE SMOOTH",
"233 713 OFFCURVE",
"157 634 OFFCURVE",
"132 472 CURVE SMOOTH",
"57 0 LINE",
"99 0 LINE",
"173 467 LINE SMOOTH",
"195 605 OFFCURVE",
"255 672 OFFCURVE",
"404 672 CURVE SMOOTH",
"523 672 OFFCURVE",
"578 618 OFFCURVE",
"578 536 CURVE SMOOTH",
"578 431 OFFCURVE",
"501 374 OFFCURVE",
"387 374 CURVE SMOOTH",
"281 374 LINE",
"274 335 LINE",
"390 335 LINE SMOOTH",
"499 335 OFFCURVE",
"561 286 OFFCURVE",
"561 199 CURVE SMOOTH",
"561 98 OFFCURVE",
"493 33 OFFCURVE",
"371 33 CURVE SMOOTH",
"304 33 OFFCURVE",
"264 54 OFFCURVE",
"212 96 CURVE",
"188 62 LINE",
"230 22 OFFCURVE",
"286 -8 OFFCURVE",
"368 -8 CURVE SMOOTH"
);
}
);
width = 683;
},
{
background = {
paths = (
{
closed = 1;
nodes = (
"250 0 LINE",
"323 463 LINE SMOOTH",
"332 521 OFFCURVE",
"377 555 OFFCURVE",
"441 555 CURVE SMOOTH",
"486 555 OFFCURVE",
"516 534 OFFCURVE",
"516 500 CURVE SMOOTH",
"516 463 OFFCURVE",
"494 441 OFFCURVE",
"459 441 CURVE SMOOTH",
"375 441 LINE",
"350 277 LINE",
"429 277 LINE SMOOTH",
"492 277 OFFCURVE",
"525 268 OFFCURVE",
"525 219 CURVE SMOOTH",
"525 171 OFFCURVE",
"508 149 OFFCURVE",
"476 149 CURVE SMOOTH",
"443 149 OFFCURVE",
"397 165 OFFCURVE",
"354 194 CURVE",
"278 47 LINE",
"344 7 OFFCURVE",
"391 -6 OFFCURVE",
"466 -6 CURVE SMOOTH",
"614 -6 OFFCURVE",
"730 93 OFFCURVE",
"730 219 CURVE SMOOTH",
"730 308 OFFCURVE",
"668 366 OFFCURVE",
"577 377 CURVE",
"579 362 LINE",
"673 387 OFFCURVE",
"719 450 OFFCURVE",
"719 534 CURVE SMOOTH",
"719 642 OFFCURVE",
"628 719 OFFCURVE",
"465 719 CURVE SMOOTH",
"269 719 OFFCURVE",
"138 618 OFFCURVE",
"111 449 CURVE SMOOTH",
"39 0 LINE"
);
}
);
};
guideLines = (
{
position = "{463, 154}";
},
{
angle = 90;
position = "{519, 231}";
},
{
angle = 270;
position = "{717, 253}";
}
);
layerId = "7E8CE273-6C2A-436A-BEF2-D90EC4D0BD66";
paths = (
{
closed = 1;
nodes = (
"617 -12 OFFCURVE",
"705 91 OFFCURVE",
"705 207 CURVE SMOOTH",
"705 274 OFFCURVE",
"671 352 OFFCURVE",
"576 370 CURVE",
"576 353 LINE",
"669 377 OFFCURVE",
"716 451 OFFCURVE",
"716 528 CURVE SMOOTH",
"716 625 OFFCURVE",
"632 717 OFFCURVE",
"448 717 CURVE SMOOTH",
"247 717 OFFCURVE",
"122 653 OFFCURVE",
"89 450 CURVE SMOOTH",
"18 0 LINE",
"233 0 LINE",
"301 430 LINE SMOOTH",
"314 511 OFFCURVE",
"341 548 OFFCURVE",
"426 548 CURVE SMOOTH",
"489 548 OFFCURVE",
"513 524 OFFCURVE",
"513 491 CURVE SMOOTH",
"513 449 OFFCURVE",
"486 432 OFFCURVE",
"434 432 CURVE SMOOTH",
"383 432 LINE",
"358 271 LINE",
"412 271 LINE SMOOTH",
"475 271 OFFCURVE",
"502 242 OFFCURVE",
"502 213 CURVE SMOOTH",
"502 172 OFFCURVE",
"478 154 OFFCURVE",
"438 154 CURVE SMOOTH",
"408 154 OFFCURVE",
"374 166 OFFCURVE",
"344 190 CURVE",
"275 46 LINE",
"336 8 OFFCURVE",
"383 -12 OFFCURVE",
"466 -12 CURVE SMOOTH"
);
}
);
width = 735;
},
{
associatedMasterId = "2567DF27-EA2D-46C8-A1A0-FA57AF1B0F16";
layerId = "B8FA56BD-7EDE-4576-AB47-8A7B7BD1DCF7";
paths = (
{
closed = 1;
nodes = (
"619 -12 OFFCURVE",
"711 66 OFFCURVE",
"711 194 CURVE SMOOTH",
"711 293 OFFCURVE",
"647 365 OFFCURVE",
"548 375 CURVE",
"548 354 LINE",
"629 383 OFFCURVE",
"674 444 OFFCURVE",
"674 520 CURVE SMOOTH",
"674 642 OFFCURVE",
"584 717 OFFCURVE",
"404 717 CURVE SMOOTH",
"173 717 OFFCURVE",
"60 618 OFFCURVE",
"60 432 CURVE SMOOTH",
"60 0 LINE",
"259 0 LINE",
"259 431 LINE SMOOTH",
"259 516 OFFCURVE",
"291 554 OFFCURVE",
"384 554 CURVE SMOOTH",
"445 554 OFFCURVE",
"476 533 OFFCURVE",
"476 491 CURVE SMOOTH",
"476 451 OFFCURVE",
"447 430 OFFCURVE",
"388 430 CURVE SMOOTH",
"336 430 LINE",
"336 274 LINE",
"402 274 LINE SMOOTH",
"480 274 OFFCURVE",
"514 254 OFFCURVE",
"514 210 CURVE SMOOTH",
"514 173 OFFCURVE",
"486 149 OFFCURVE",
"441 149 CURVE SMOOTH",
"409 149 OFFCURVE",
"383 155 OFFCURVE",
"353 175 CURVE",
"299 29 LINE",
"357 -5 OFFCURVE",
"410 -12 OFFCURVE",
"464 -12 CURVE SMOOTH"
);
}
);
width = 732.89595;
}
);
leftKerningGroup = H;
rightKerningGroup = Germandbls;
unicode = 1E9E;
},
